<?xml version="1.0" standalone="no"?>
<!DOCTYPE svg PUBLIC "-//W3C//DTD SVG 20010904//EN"
 "http://www.w3.org/TR/2001/REC-SVG-20010904/DTD/svg10.dtd">
<svg version="1.0" xmlns="http://www.w3.org/2000/svg"
 width="512.000000pt" height="585.000000pt" viewBox="0 0 512.000000 585.000000"
 preserveAspectRatio="xMidYMid meet">
<metadata>
Created by potrace 1.16, written by Peter Selinger 2001-2019
</metadata>
<g transform="translate(0.000000,585.000000) scale(0.100000,-0.100000)"
fill="currentColor" stroke="none">
<path d="M608 5480 c-284 -49 -517 -265 -588 -544 -20 -78 -20 -112 -20 -2011
0 -1896 0 -1933 20 -2011 64 -253 249 -444 510 -526 l75 -23 1955 0 1955 0 75
23 c261 83 446 273 510 526 20 78 20 115 20 2011 0 1899 0 1933 -20 2011 -64
251 -242 437 -505 526 l-70 23 -1935 1 c-1064 1 -1956 -2 -1982 -6z m3875
-580 c20 -13 46 -43 59 -65 l23 -40 3 -1849 c1 -1283 -1 -1860 -8 -1888 -14
-52 -73 -115 -119 -128 -25 -8 -619 -10 -1902 -8 l-1865 3 -37 25 c-20 13 -46
43 -59 65 l-23 40 0 1870 c0 1766 1 1872 18 1902 22 41 54 72 92 89 25 11 350
13 1906 11 l1875 -2 37 -25z"/>
<path d="M3570 3971 c-87 -28 -128 -66 -748 -685 l-632 -631 -265 268 c-309
313 -322 322 -465 321 -102 0 -161 -24 -228 -92 -67 -66 -87 -119 -87 -227 0
-148 -12 -133 453 -596 465 -464 452 -454 597 -454 74 0 99 5 140 24 73 35
1581 1542 1616 1616 20 41 24 66 24 140 0 78 -4 97 -28 147 -32 65 -90 122
-156 151 -50 22 -177 33 -221 18z"/>
</g>
</svg>
