<?xml version="1.0" encoding="UTF-8"?>
<svg version="1.1" xmlns="http://www.w3.org/2000/svg" viewBox="0 0 512.000000 512.000000" fill="currentColor" >
<path d="M0 0 C0.80007002 -0.00465992 1.60014004 -0.00931984 2.4244546 -0.01412097 C5.09816675 -0.02604621 7.77136842 -0.01668516 10.44508457 -0.00736332 C12.38423409 -0.01153731 14.32338116 -0.01701518 16.26252371 -0.02368313 C21.58586177 -0.03814775 26.90904515 -0.0338898 32.23239172 -0.02651632 C37.97550468 -0.02178951 43.71858394 -0.03429016 49.46168613 -0.04453373 C60.71062263 -0.06173635 71.9595033 -0.06255873 83.20844954 -0.05732083 C92.35054127 -0.05328078 101.4926165 -0.05472072 110.63470745 -0.06006908 C111.93544481 -0.06081751 113.23618217 -0.06156593 114.57633581 -0.06233703 C117.21870196 -0.06386849 119.8610681 -0.06540684 122.50343425 -0.066952 C140.24645997 -0.07678176 157.98947859 -0.08094342 175.7325058 -0.07332611 C176.42619503 -0.07302894 177.11988426 -0.07273176 177.83459437 -0.07242559 C183.46772373 -0.06997669 189.10085301 -0.06736508 194.73398229 -0.06474145 C216.70782621 -0.05463854 238.68159372 -0.06299577 260.65542698 -0.086236 C285.34818586 -0.11230966 310.04089698 -0.1251068 334.73367029 -0.11804825 C347.80629127 -0.1145529 360.8788495 -0.11680901 373.95146084 -0.13429928 C385.0793396 -0.14900287 396.20711142 -0.14968073 407.33498805 -0.13222837 C413.01304775 -0.12370105 418.69091625 -0.12161122 424.3689661 -0.13687992 C429.56708131 -0.15068508 434.76484075 -0.14601745 439.96293516 -0.12664068 C441.84305801 -0.12286758 443.72320908 -0.12584024 445.60330688 -0.13625234 C463.78166407 -0.22976401 463.78166407 -0.22976401 470.70059299 4.38031673 C471.32563172 4.78782006 471.95067044 5.19532339 472.59464973 5.61517531 C478.32992848 9.91102246 481.99571298 16.09449819 483.16087365 23.17891979 C483.341363 26.27931283 483.36744567 29.34366705 483.33551121 32.44916439 C483.34331116 33.62671606 483.35111111 34.80426773 483.35914743 36.01750278 C483.3755507 39.25958083 483.36977046 42.50071035 483.35421634 45.74276352 C483.34284914 49.24933688 483.36039196 52.75578728 483.37411594 56.26233578 C483.39629602 63.1211602 483.39157067 69.97971035 483.37705274 76.83854532 C483.3657398 82.41509366 483.36423846 87.99156538 483.36967182 93.56812191 C483.37082107 94.76071477 483.37082107 94.76071477 483.37199353 95.97740042 C483.37359223 97.59278379 483.3752133 99.20816714 483.37685649 100.82355046 C483.39109866 115.95481775 483.37474537 131.08593332 483.34785466 146.21717572 C483.32551724 159.18764762 483.3293978 172.15789574 483.35244846 185.12836361 C483.3792336 200.2071612 483.38972551 215.28582599 483.37438715 230.36464405 C483.37279448 231.9739332 483.37122262 233.58322237 483.36967182 235.19251156 C483.36851476 236.3800717 483.36851476 236.3800717 483.36733431 237.59162295 C483.36302544 243.15852885 483.37028628 248.7253502 483.38206959 254.292243 C483.39612335 261.08071421 483.39223457 267.86889651 483.36566587 274.6573348 C483.35256597 278.11796013 483.3473089 281.57810458 483.36391163 285.03872585 C483.37760348 288.79678442 483.36040355 292.553496 483.33551121 296.31146908 C483.34666482 297.39611258 483.35781842 298.48075607 483.36931002 299.59826756 C483.26483795 307.74660846 481.32084412 314.40972968 475.74018252 320.53043842 C469.2667064 326.77773407 462.18030704 328.84161144 453.40118599 328.76063347 C452.60111597 328.76529339 451.80104595 328.76995331 450.97673139 328.77475443 C448.30301924 328.78667968 445.62981757 328.77731863 442.95610142 328.76799679 C441.0169519 328.77217078 439.07780482 328.77764865 437.13866228 328.7843166 C431.81532422 328.79878121 426.49214084 328.79452326 421.16879427 328.78714979 C415.42568131 328.78242298 409.68260205 328.79492363 403.93949986 328.8051672 C392.69056336 328.82236982 381.44168269 328.8231922 370.19273645 328.81795429 C361.05064472 328.81391425 351.90856949 328.81535419 342.76647854 328.82070255 C341.46574118 328.82145097 340.16500382 328.8221994 338.82485018 328.8229705 C336.18248403 328.82450196 333.54011788 328.82604031 330.89775174 328.82758547 C313.15472602 328.83741523 295.4117074 328.84157689 277.66868019 328.83395958 C276.97499096 328.83366241 276.28130173 328.83336523 275.56659162 328.83305905 C269.93346226 328.83061016 264.30033298 328.82799855 258.6672037 328.82537492 C236.69335978 328.81527201 214.71959227 328.82362923 192.74575901 328.84686947 C168.05300013 328.87294312 143.36028901 328.88574026 118.6675157 328.87868172 C105.59489472 328.87518637 92.52233649 328.87744248 79.44972515 328.89493275 C68.32184639 328.90963633 57.19407457 328.9103142 46.06619794 328.89286184 C40.38813824 328.88433452 34.71026974 328.88224469 29.03221989 328.89751339 C23.83410468 328.91131855 18.63634524 328.90665092 13.43825083 328.88727415 C11.55812798 328.88350104 9.67797691 328.88647371 7.79787911 328.8968858 C-10.38047808 328.99039748 -10.38047808 328.99039748 -17.29940701 324.38031673 C-18.23696509 323.76906174 -18.23696509 323.76906174 -19.19346374 323.14545816 C-24.92874249 318.84961101 -28.59452699 312.66613528 -29.75968766 305.58171368 C-29.94017701 302.48132064 -29.96625968 299.41696642 -29.93432522 296.31146908 C-29.94602515 294.54514157 -29.94602515 294.54514157 -29.95796144 292.74313068 C-29.97436471 289.50105264 -29.96858448 286.25992312 -29.95303035 283.01786995 C-29.94166315 279.51129659 -29.95920597 276.00484619 -29.97292995 272.49829769 C-29.99511003 265.63947327 -29.99038468 258.78092312 -29.97586675 251.92208815 C-29.96455381 246.34553981 -29.96305247 240.76906809 -29.96848583 235.19251156 C-29.969252 234.39744965 -29.97001816 233.60238774 -29.97080754 232.78323305 C-29.97240625 231.16784968 -29.97402731 229.55246633 -29.9756705 227.93708301 C-29.98991267 212.80581572 -29.97355939 197.67470014 -29.94666867 182.54345775 C-29.92433125 169.57298585 -29.92821181 156.60273772 -29.95126247 143.63226986 C-29.97804761 128.55347227 -29.98853952 113.47480748 -29.97320116 98.39598942 C-29.97160849 96.78670027 -29.97003663 95.1774111 -29.96848583 93.56812191 C-29.96771445 92.77641515 -29.96694308 91.98470839 -29.96614832 91.16901052 C-29.96183945 85.60210461 -29.96910029 80.03528327 -29.9808836 74.46839046 C-29.99493736 67.67991926 -29.99104858 60.89173696 -29.96447988 54.10329866 C-29.95137998 50.64267334 -29.94612291 47.18252889 -29.96272564 43.72190762 C-29.97641749 39.96384905 -29.95921756 36.20713747 -29.93432522 32.44916439 C-29.94547883 31.36452089 -29.95663244 30.2798774 -29.96812403 29.16236591 C-29.86365196 21.01402501 -27.91965813 14.35090379 -22.33899653 8.23019505 C-15.86552041 1.9828994 -8.77912105 -0.08097797 0 0 Z M25.70059299 56.38031673 C25.70059299 127.66031673 25.70059299 198.94031673 25.70059299 272.38031673 C158.36059299 272.38031673 291.02059299 272.38031673 427.70059299 272.38031673 C427.70059299 201.10031673 427.70059299 129.82031673 427.70059299 56.38031673 C295.04059299 56.38031673 162.38059299 56.38031673 25.70059299 56.38031673 Z "  transform="translate(29.29940700531006,91.61968326568604)"/>
<path d="M0 0 C9.24 0 18.48 0 28 0 C35.17632547 13.03990848 42.20562687 26.13523686 49.01416016 39.37036133 C52.9245166 46.96527785 56.94815915 54.47515271 61 62 C61.33 41.54 61.66 21.08 62 0 C69.92 0 77.84 0 86 0 C86 31.68 86 63.36 86 96 C76.43 96 66.86 96 57 96 C50.06195423 83.37777216 43.23288772 70.71901904 36.63012695 57.91821289 C32.83344739 50.56378012 28.92582811 43.29082363 25 36 C24.67 55.8 24.34 75.6 24 96 C16.08 96 8.16 96 0 96 C0 64.32 0 32.64 0 0 Z "  transform="translate(306,206)"/>
<path d="M0 0 C60.14285714 0 60.14285714 0 68.875 7.640625 C74.85432044 14.25237356 75.53853085 20.58339341 75.3203125 29.31640625 C74.81476537 35.13019829 73.19982413 38.92957729 68.875 43 C67 44 67 44 65 44 C65 44.66 65 45.32 65 46 C65.886875 46.20625 66.77375 46.4125 67.6875 46.625 C72.9943761 48.82785423 75.13505248 52.27429357 77.61328125 57.21875 C80.48510405 64.1732727 80.09750578 72.85916901 78.19140625 80.05078125 C75.43184775 86.34333852 71.22539241 90.18145139 65 93 C57.27408728 95.9673303 50.21076358 96.4039676 41.9921875 96.29296875 C40.92105713 96.28994751 39.84992676 96.28692627 38.74633789 96.28381348 C34.78912562 96.26825377 30.83205195 96.22637107 26.875 96.1875 C18.00625 96.125625 9.1375 96.06375 0 96 C0 64.32 0 32.64 0 0 Z M26 18 C26 24.27 26 30.54 26 37 C30.3003125 37.12375 30.3003125 37.12375 34.6875 37.25 C36.02880981 37.30462402 36.02880981 37.30462402 37.3972168 37.36035156 C41.44692845 37.41666694 43.50103852 37.31241573 47.01953125 35.109375 C49.53875714 32.43236142 49.53875714 32.43236142 50.01953125 28.94140625 C49.71417424 24.00771783 49.71417424 24.00771783 47.125 20 C42.63579981 17.88743521 38.66673621 17.88280574 33.8125 17.9375 C31.234375 17.958125 28.65625 17.97875 26 18 Z M26 55 C26 62.92 26 70.84 26 79 C29.9909375 79.0928125 29.9909375 79.0928125 34.0625 79.1875 C34.8862915 79.21481201 35.71008301 79.24212402 36.55883789 79.27026367 C42.55259439 79.33701249 46.98845623 78.26802985 51.8828125 74.58203125 C54.10759469 71.43155298 54.09632376 67.75662645 54 64 C52.79247333 60.16432705 51.8498424 58.56081643 48.49609375 56.34765625 C43.9091126 54.57949033 39.98293666 54.67094589 35.125 54.8125 C32.11375 54.874375 29.1025 54.93625 26 55 Z " transform="translate(117,206)"/>
<path d="M0 0 C29.37 0 58.74 0 89 0 C89 6.6 89 13.2 89 20 C78.44 20 67.88 20 57 20 C57 45.08 57 70.16 57 96 C48.75 96 40.5 96 32 96 C32 70.92 32 45.84 32 20 C21.44 20 10.88 20 0 20 C0 13.4 0 6.8 0 0 Z " transform="translate(205,206)"/>
</svg>
