<?xml version="1.0" encoding="UTF-8"?>
<svg version="1.1" xmlns="http://www.w3.org/2000/svg" width="512" height="512"  viewBox="0 0 512.000000 512.000000">
<path d="M0 0 C9.92246944 6.909955 16.24579467 16.02405128 18.5625 27.99609375 C19.01587856 32.57760345 19.04120506 37.08423604 18.99609375 41.68359375 C18.97546875 44.67421875 18.95484375 47.66484375 18.93359375 50.74609375 C31.14359375 50.74609375 43.35359375 50.74609375 55.93359375 50.74609375 C55.85109375 47.38421875 55.76859375 44.02234375 55.68359375 40.55859375 C55.5690659 26.40191086 57.97056942 16.04536863 67.96875 5.625 C76.51916905 -2.59365676 84.54285734 -4.89957132 96.17504883 -4.79516602 C105.89896537 -4.39588703 114.12022796 -1.03903957 121.1875 5.734375 C129.96020483 15.84163001 132.42606963 26.23241565 132.12109375 39.30859375 C132.05921875 43.08296875 131.99734375 46.85734375 131.93359375 50.74609375 C144.47359375 50.74609375 157.01359375 50.74609375 169.93359375 50.74609375 C169.77674132 43.01343887 169.77674132 43.01343887 169.57324219 35.28198242 C169.45440511 23.53340402 172.77726488 14.28605363 180.93359375 5.74609375 C189.44072444 -2.17738764 198.3311233 -4.83476447 209.74365234 -4.65625 C220.26911836 -4.24321053 227.35201036 -0.75575274 234.84765625 6.6328125 C246.82773107 19.60697863 246.25040168 34.0040133 245.93359375 50.74609375 C246.55177979 50.72514648 247.16996582 50.70419922 247.80688477 50.68261719 C269.13504972 50.05712298 286.54224187 52.23201296 302.71972656 67.44018555 C314.81768011 79.30119761 320.85444607 94.51589451 321.18806934 111.38792801 C321.20029449 113.95986405 321.2016581 116.53186625 321.19429016 119.1038208 C321.1973153 120.54203099 321.20120659 121.98023958 321.20588273 123.41844535 C321.216125 127.34800055 321.21399057 131.27746413 321.20970213 135.20702672 C321.207228 139.45393042 321.21625766 143.70081245 321.22373962 147.94770813 C321.23647009 156.25962424 321.23828233 164.57150802 321.23593936 172.88343224 C321.234154 179.64270756 321.23591052 186.4019731 321.2401638 193.16124725 C321.24075899 194.12445131 321.24135418 195.08765536 321.24196741 196.08004741 C321.2431792 198.03702484 321.24439334 199.99400226 321.24560978 201.95097968 C321.2564792 220.2922819 321.25432581 238.63356573 321.24822494 256.97486898 C321.24305772 273.7357349 321.25430714 290.49654267 321.27332316 307.25739709 C321.29271925 324.48595583 321.30095436 341.71448709 321.2971999 358.94305682 C321.29529037 368.60810685 321.29775116 378.2731074 321.31191444 387.9381485 C321.32385188 396.16727978 321.32520677 404.39633114 321.31312428 412.62546358 C321.30725183 416.81962129 321.30609062 421.013633 321.31812668 425.20778084 C321.32904072 429.05585354 321.32581724 432.9036593 321.31186499 436.7517198 C321.30799734 438.78487178 321.31871993 440.81803587 321.33016187 442.85115933 C321.26296156 454.38991233 319.73900474 465.76940052 314.24609375 476.05859375 C313.719552 477.06611694 313.719552 477.06611694 313.18237305 478.09399414 C304.73841338 493.7006959 290.75338086 502.23250353 274.139893 507.29239243 C271.34091172 507.86797233 268.71424686 507.87560238 265.85546207 507.88031483 C264.60149256 507.88477267 263.34752304 507.88923051 262.05555445 507.89382344 C260.66139033 507.89373415 259.26722622 507.8935443 257.87306213 507.89326477 C256.3939458 507.89656434 254.91483037 507.9002901 253.43571609 507.90440625 C249.36528353 507.91442413 245.29486572 507.91814272 241.22442257 507.92079556 C236.83633048 507.92469934 232.44825005 507.93427775 228.06016541 507.94300842 C217.45878685 507.96277257 206.85740735 507.97283978 196.25601497 507.98173621 C191.26226372 507.98611991 186.26851352 507.99148657 181.27476311 507.99672508 C164.67121507 508.01373865 148.0676677 508.02823185 131.46411228 508.03547382 C127.15519268 508.03738369 122.84627309 508.03930403 118.53735352 508.04125977 C116.9309296 508.04198538 116.9309296 508.04198538 115.29205268 508.04272565 C97.95136578 508.05102227 80.61074794 508.0763524 63.27009118 508.10884044 C45.46203497 508.14193175 27.65401382 508.15992453 9.8459267 508.16311806 C-0.15064053 508.16528143 -10.1471071 508.17400452 -20.14364433 508.19957924 C-28.65915172 508.22131467 -37.17453399 508.22932274 -45.69006597 508.21961246 C-50.03194843 508.21507576 -54.3735729 508.21691706 -58.71541977 508.2363739 C-62.6975804 508.25406406 -66.67929597 508.25296089 -70.66146172 508.23747661 C-72.09494761 508.23510934 -73.5284648 508.23937794 -74.96190303 508.25130526 C-91.77813564 508.38245683 -106.7409751 503.34597557 -119.1953125 491.74609375 C-133.37159086 476.59316156 -137.54758222 459.24158321 -137.4540863 438.92080688 C-137.45827039 437.48056767 -137.46375374 436.04033176 -137.47040612 434.60010183 C-137.4847386 430.68340616 -137.48065467 426.76692309 -137.4732393 422.85021639 C-137.46847941 418.61015177 -137.48104223 414.37013131 -137.49125671 410.13008118 C-137.508395 401.83941908 -137.5092951 393.54883294 -137.50404381 385.25815775 C-137.49999165 378.51520014 -137.50145805 371.77226487 -137.50679207 365.02930832 C-137.50754049 364.06722367 -137.50828891 363.10513902 -137.50906001 362.1139003 C-137.51059159 360.15902047 -137.51212994 358.20414065 -137.51367498 356.24926083 C-137.52738199 337.94411539 -137.52197496 319.63901276 -137.51048977 301.33386831 C-137.50055888 284.61338761 -137.51349878 267.8930176 -137.53742396 251.17255397 C-137.56184753 233.97323326 -137.57141485 216.77396402 -137.56477123 199.57462633 C-137.5612863 189.93079749 -137.56346301 180.28705373 -137.58102226 170.64323807 C-137.59578503 162.43400076 -137.59632662 154.22490847 -137.57895135 146.01567389 C-137.57047249 141.83335331 -137.56821493 137.65129132 -137.58360291 133.4689846 C-137.59755372 129.62952703 -137.59255554 125.79054705 -137.57336367 121.95111637 C-137.56788833 119.92758414 -137.58178784 117.90402695 -137.59671777 115.8805424 C-137.45047897 97.41977269 -132.05404257 80.70820612 -118.921875 67.44140625 C-104.86089111 54.16906852 -89.32166678 50.37083197 -70.50390625 50.62109375 C-69.20904297 50.63011719 -67.91417969 50.63914063 -66.58007812 50.6484375 C-63.40865854 50.67184281 -60.23763252 50.70463147 -57.06640625 50.74609375 C-57.09782715 49.69651489 -57.09782715 49.69651489 -57.12988281 48.62573242 C-57.21403559 45.39517111 -57.26537696 42.16484149 -57.31640625 38.93359375 C-57.34992188 37.83337891 -57.3834375 36.73316406 -57.41796875 35.59960938 C-57.55817962 23.71673794 -54.32948891 14.39782856 -46.06640625 5.74609375 C-33.93440732 -5.5535643 -14.54226974 -8.82432625 0 0 Z M-32.37890625 24.30859375 C-35.28050806 28.49979637 -35.2198016 32.2431325 -35.22753906 37.15161133 C-35.23250397 37.90319016 -35.23746887 38.65476898 -35.24258423 39.42912292 C-35.2571925 41.9162996 -35.2640059 44.40341247 -35.26953125 46.890625 C-35.27528416 48.62074281 -35.28104187 50.35086061 -35.2868042 52.08097839 C-35.29731063 55.70999447 -35.30315552 59.33898843 -35.30664062 62.96801758 C-35.31212215 67.61178381 -35.3361443 72.25525635 -35.36461258 76.89893055 C-35.38326314 80.47377875 -35.38844586 84.04855658 -35.3899765 87.62344933 C-35.39299851 89.33502494 -35.40101178 91.04659945 -35.41416168 92.75812721 C-35.43127169 95.15644095 -35.42933001 97.55404208 -35.42285156 99.95239258 C-35.43206635 100.65546539 -35.44128113 101.35853821 -35.45077515 102.08291626 C-35.40617661 107.37001989 -34.18076307 111.48109573 -30.53125 115.390625 C-24.82682839 119.75282976 -21.20365118 120.51472013 -14.06640625 119.74609375 C-8.61421774 117.2219324 -6.5551399 114.00008702 -4.06640625 108.74609375 C-3.03513896 104.77188245 -2.92847906 100.99181292 -2.90527344 96.89550781 C-2.90030853 96.22648437 -2.89534363 95.55746094 -2.89022827 94.86816406 C-2.87568518 92.66600495 -2.86881726 90.4639179 -2.86328125 88.26171875 C-2.86045387 87.5052581 -2.8576265 86.74879745 -2.85471344 85.96941376 C-2.83975123 81.96495721 -2.8305035 77.96053641 -2.82617188 73.95605469 C-2.82069665 69.83949615 -2.79668038 65.72326993 -2.76819992 61.60681534 C-2.74948532 58.42387975 -2.74436324 55.24102274 -2.742836 52.0580368 C-2.73982799 50.54152361 -2.73186278 49.02501118 -2.71865082 47.50855255 C-2.46402259 33.74200696 -2.46402259 33.74200696 -8.50390625 21.80859375 C-12.94826843 18.23142419 -16.1743849 17.29062524 -21.8203125 17.4296875 C-26.54896059 18.0958101 -29.29462101 20.89087227 -32.37890625 24.30859375 Z M80.62109375 24.74609375 C77.90935611 29.56696066 77.80182246 33.35806448 77.77246094 38.88208008 C77.76749603 39.59318436 77.76253113 40.30428864 77.75741577 41.03694153 C77.74283906 43.38401262 77.73599952 45.73101612 77.73046875 48.078125 C77.72471341 49.71473695 77.71895572 51.35134888 77.7131958 52.98796082 C77.70269846 56.41849073 77.69684757 59.8489973 77.69335938 63.27954102 C77.68787863 67.6642359 77.66385437 72.04861964 77.63538742 76.43321705 C77.61671581 79.81423327 77.61155303 83.19517522 77.6100235 86.57623863 C77.60700643 88.19209175 77.59900995 89.80794386 77.58583832 91.42374611 C77.56868327 93.69004262 77.5706807 95.95558781 77.57714844 98.22192383 C77.57350281 99.50891678 77.56985718 100.79590973 77.56610107 102.12190247 C78.19416863 108.31586799 80.63229231 113.18410738 84.93359375 117.74609375 C89.40797495 120.47671183 93.83910645 120.3758402 98.93359375 119.74609375 C104.43880786 117.2531666 107.79457637 113.33158553 109.93359375 107.74609375 C110.68281614 101.89219283 110.63845042 96.07732852 110.59765625 90.18359375 C110.60102935 88.46540993 110.60588608 86.74722844 110.6121521 85.02905273 C110.61950019 81.4380814 110.6088852 77.84773436 110.58544922 74.25683594 C110.55696209 69.67020468 110.57337726 65.08503653 110.60331154 60.49845886 C110.62144083 56.95346189 110.61560088 53.40880775 110.60267258 49.86380005 C110.59935408 48.1734296 110.6033705 46.48302731 110.61507034 44.79269409 C110.94369804 32.28754276 110.94369804 32.28754276 104.93359375 21.74609375 C101.38049438 18.44088503 98.67549253 17.47359114 93.93359375 17.24609375 C87.682371 17.52768036 84.42515069 19.81110097 80.62109375 24.74609375 Z M194.62109375 24.30859375 C191.71949194 28.49979637 191.7801984 32.2431325 191.77246094 37.15161133 C191.76749603 37.90319016 191.76253113 38.65476898 191.75741577 39.42912292 C191.7428075 41.9162996 191.7359941 44.40341247 191.73046875 46.890625 C191.72471584 48.62074281 191.71895813 50.35086061 191.7131958 52.08097839 C191.70268937 55.70999447 191.69684448 59.33898843 191.69335938 62.96801758 C191.68787785 67.61178381 191.6638557 72.25525635 191.63538742 76.89893055 C191.61673686 80.47377875 191.61155414 84.04855658 191.6100235 87.62344933 C191.60700149 89.33502494 191.59898822 91.04659945 191.58583832 92.75812721 C191.56872831 95.15644095 191.57066999 97.55404208 191.57714844 99.95239258 C191.56793365 100.65546539 191.55871887 101.35853821 191.54922485 102.08291626 C191.59382339 107.37001989 192.81923693 111.48109573 196.46875 115.390625 C202.17317161 119.75282976 205.79634882 120.51472013 212.93359375 119.74609375 C218.3866265 117.22154155 220.41109131 113.97795066 222.93359375 108.74609375 C224.14299219 105.11988207 224.07388976 101.61213264 224.09472656 97.80957031 C224.09969147 97.11957947 224.10465637 96.42958862 224.10977173 95.71868896 C224.12434732 93.4413553 224.13118836 91.16409135 224.13671875 88.88671875 C224.14247489 87.29734293 224.14823256 85.70796712 224.1539917 84.11859131 C224.16448923 80.78641437 224.17033976 77.45426146 224.17382812 74.12207031 C224.17930402 69.86750586 224.20331776 65.61326285 224.23180008 61.35879898 C224.25049362 58.07467748 224.25563566 54.79063229 224.257164 51.5064621 C224.26017696 49.93888343 224.26815929 48.37130567 224.28134918 46.8037796 C224.60189198 33.38190202 224.60189198 33.38190202 218.43359375 21.87109375 C213.84508876 17.97086451 211.29737459 17.30174264 205.4375 17.4296875 C200.51569402 18.05163178 197.82811342 20.75486925 194.62109375 24.30859375 Z M-101.06640625 139.74609375 C-101.14890625 190.83421875 -101.23140625 241.92234375 -101.31640625 294.55859375 C-101.35282227 310.69483643 -101.38923828 326.8310791 -101.42675781 343.45629883 C-101.44013485 357.91005536 -101.44013485 357.91005536 -101.44818115 372.36381531 C-101.45191048 378.80589131 -101.46657963 385.24782847 -101.4887085 391.68986511 C-101.51420247 399.12254374 -101.52574242 406.55508925 -101.52018605 413.9878119 C-101.51778034 417.78854516 -101.52154664 421.58898105 -101.54326677 425.38965952 C-101.56641711 429.46548089 -101.55835896 433.54065899 -101.54742432 437.61653137 C-101.5649003 439.38308594 -101.5649003 439.38308594 -101.58272934 441.18532848 C-101.52155356 449.67841961 -100.28670556 457.68471448 -94.8828125 464.5 C-94.13902344 465.09683594 -93.39523438 465.69367188 -92.62890625 466.30859375 C-91.88769531 466.92863281 -91.14648438 467.54867188 -90.3828125 468.1875 C-85.96862667 471.15758456 -82.30091513 471.99630698 -77.00743389 472.00336266 C-75.78322379 472.00981155 -74.55901368 472.01626044 -73.29770631 472.02290475 C-71.94234151 472.01996259 -70.58697712 472.01682716 -69.23161316 472.01351929 C-67.78931688 472.01725601 -66.34702262 472.02185762 -64.90473157 472.02724993 C-60.94089918 472.03949267 -56.97715111 472.03921797 -53.01330411 472.03686118 C-48.7384755 472.03645334 -44.46367403 472.04748908 -40.18885803 472.05697632 C-31.81343604 472.07359429 -23.4380422 472.07908623 -15.06260511 472.08020107 C-8.25500793 472.08115117 -1.44742005 472.08525956 5.36017418 472.09160233 C24.65824779 472.10921693 43.95629915 472.11844086 63.25438086 472.11694138 C64.29490051 472.11686147 65.33542016 472.11678155 66.4074707 472.11669922 C67.44925988 472.11661746 68.49104906 472.1165357 69.56440761 472.11645146 C86.44929065 472.1156385 103.33408449 472.13477801 120.21894173 472.16297595 C137.55353524 472.19169668 154.88808524 472.20551669 172.22270316 472.2037884 C181.95584262 472.20312422 191.68888857 472.20862893 201.42200661 472.2301445 C209.70890447 472.24834562 217.99566645 472.25271244 226.28257564 472.23912565 C230.51042793 472.23259058 234.73801945 472.23249814 238.96584702 472.24983215 C242.8379275 472.26554429 246.70954003 472.26271858 250.58160897 472.24526389 C251.98065255 472.24218986 253.37973089 472.24584164 254.77873347 472.25698404 C263.76919031 472.32383344 270.0209548 471.80662895 277.140625 465.921875 C277.67042969 465.30699219 278.20023437 464.69210937 278.74609375 464.05859375 C279.28878906 463.45660156 279.83148438 462.85460937 280.390625 462.234375 C285.15963534 454.54359123 285.35961098 446.6954069 285.2943573 437.85704041 C285.29820938 435.94513161 285.29820938 435.94513161 285.30213928 433.99459839 C285.30883501 430.47040323 285.29687382 426.94648402 285.28181194 423.42232387 C285.26866979 419.55847263 285.27309854 415.69463321 285.27526569 411.83076572 C285.27685782 404.33741701 285.26303369 396.84417653 285.24376171 389.35085559 C285.22212944 380.67957186 285.2197757 372.00835279 285.21740723 363.33703613 C285.20166755 340.45253823 285.15978407 317.56806436 285.12109375 294.68359375 C285.05921875 243.55421875 284.99734375 192.42484375 284.93359375 139.74609375 C157.55359375 139.74609375 30.17359375 139.74609375 -101.06640625 139.74609375 Z " fill="currentColor" transform="translate(164.06640625,4.25390625)"/>
<path d="M0 0 C1.58914171 1.47292467 3.17287049 2.95172041 4.75 4.4375 C5.41386719 5.03691406 6.07773437 5.63632813 6.76171875 6.25390625 C30.56729938 28.61087142 43.84547597 62.72198344 44.953125 94.98828125 C45.35862563 119.52363556 40.65356792 143.09235214 28.72167969 164.67822266 C27.81550978 166.31889109 26.94158249 167.97725335 26.0703125 169.63671875 C21.62528434 177.77175832 15.9917453 184.64872534 9.75 191.4375 C9.24162598 191.99115234 8.73325195 192.54480469 8.20947266 193.11523438 C-15.755521 218.86732116 -49.28932065 234.34905134 -84.546875 235.640625 C-122.81999702 236.31290965 -157.49126998 223.1474663 -185.29296875 196.79785156 C-210.00624557 172.59821173 -223.77844462 139.83510707 -225.25 105.4375 C-225.29125 104.65890625 -225.3325 103.8803125 -225.375 103.078125 C-226.35356359 67.60519479 -212.04059911 32.82398519 -187.91430664 7.12768555 C-137.48193385 -45.0440097 -54.19973742 -47.94908485 0 0 Z M-175.90625 25.27734375 C-195.85110002 48.20776546 -205.48361829 77.16640508 -204.25 107.4375 C-201.61747421 139.06113254 -187.2928116 167.58051345 -163.25 188.4375 C-139.05284409 207.94633587 -108.77032918 217.0669521 -77.83496094 214.21484375 C-46.88233649 210.55058975 -19.12501875 194.8300742 0.31494141 170.47705078 C19.11163483 145.24498856 27.14962189 114.63663658 22.9765625 83.49584961 C18.47535591 54.74126668 2.6594618 27.71000397 -20.44140625 9.90234375 C-36.10994008 -1.30594487 -53.99623344 -9.93388293 -73.25 -12.5625 C-74.40242188 -12.72685547 -74.40242188 -12.72685547 -75.578125 -12.89453125 C-113.82440002 -17.52109678 -149.87250955 -2.55578758 -175.90625 25.27734375 Z " fill="currentColor" transform="translate(348.25,211.5625)"/>
<path d="M0 0 C21.07065173 19.18822107 35.985101 45.48610865 37.42602539 74.40917969 C38.60221394 106.5779364 29.32324452 135.16328302 7.49633789 159.09570312 C-7.61927436 175.15033091 -27.11456118 186.25533328 -48.69506836 190.97851562 C-49.68893555 191.20152344 -50.68280273 191.42453125 -51.70678711 191.65429688 C-80.6714421 197.10603091 -111.38031592 190.53803337 -135.69506836 173.97851562 C-140.28223871 170.58794494 -144.50847282 166.8466288 -148.69506836 162.97851562 C-149.43112305 162.32367188 -150.16717773 161.66882813 -150.92553711 160.99414062 C-170.98192319 142.25883387 -181.59459757 113.94529704 -182.94506836 86.96289062 C-183.47233894 55.45847327 -171.99504627 27.70724477 -150.69506836 4.97851562 C-110.85104982 -35.95448735 -42.46300662 -37.55708003 0 0 Z M-146.69506836 16.97851562 C-149.94113174 20.8269926 -152.87089337 24.81271659 -155.69506836 28.97851562 C-156.52458008 30.17541016 -156.52458008 30.17541016 -157.37084961 31.39648438 C-171.04285336 52.48740489 -174.69710058 79.67544808 -169.69506836 103.97851562 C-162.88810374 131.31660835 -146.96907579 154.22484758 -122.69506836 168.97851562 C-98.70000639 182.39557804 -71.56400902 185.62868547 -45.04956055 178.67626953 C-18.93109621 170.936061 2.36027762 152.45682977 15.42993164 128.85351562 C27.00208533 107.14847587 29.99830957 80.70420273 23.30493164 56.97851562 C14.94523513 29.78858662 -2.34536376 8.41499192 -27.34692383 -5.24145508 C-67.81671167 -26.36766578 -115.87243641 -15.48841991 -146.69506836 16.97851562 Z " fill="currentColor" transform="translate(330.695068359375,229.021484375)"/>
<path d="M0 0 C2.83810263 4.25715395 3.41706585 8.65494079 4.4375 13.625 C4.76463989 15.20547119 4.76463989 15.20547119 5.09838867 16.81787109 C7.7564367 30.14845927 10.4424761 44.35310552 10 58 C11.0828125 58.2475 11.0828125 58.2475 12.1875 58.5 C16.32055063 60.70429367 18.0778815 63.79954027 20 68 C21.86232927 74.22378428 20.98744507 80.20297459 17.99609375 85.91796875 C15.23685165 90.18887483 11.97759375 93.53034139 7 95 C0.2817169 95.73808853 -6.32416488 96.11498046 -12 92 C-14.875 89.4375 -14.875 89.4375 -17 87 C-17 86.34 -17 85.68 -17 85 C-17.80695313 84.98582031 -18.61390625 84.97164063 -19.4453125 84.95703125 C-29.17245945 84.57496709 -38.6518311 83.22745147 -48.25 81.625 C-49.51602051 81.41593018 -50.78204102 81.20686035 -52.08642578 80.99145508 C-59.82588266 79.66787968 -67.415207 78.0306991 -75 76 C-74 74 -74 74 -72.20019531 73.36157227 C-71.41741211 73.18166748 -70.63462891 73.0017627 -69.828125 72.81640625 C-68.94640625 72.61241211 -68.0646875 72.40841797 -67.15625 72.19824219 C-66.1971875 71.98844727 -65.238125 71.77865234 -64.25 71.5625 C-63.26515625 71.34368164 -62.2803125 71.12486328 -61.265625 70.89941406 C-47.49925255 67.92752817 -33.61833885 65.75477471 -19.51953125 65.50390625 C-18.27236328 65.25447266 -18.27236328 65.25447266 -17 65 C-15.6564381 63.13081742 -15.6564381 63.13081742 -15 61 C-13.5 59.25 -13.5 59.25 -12 58 C-11.34 58 -10.68 58 -10 58 C-9.87044922 56.10507812 -9.87044922 56.10507812 -9.73828125 54.171875 C-8.89526817 43.04916679 -7.50529669 32.11125099 -5.5625 21.125 C-5.25469604 19.35334473 -5.25469604 19.35334473 -4.94067383 17.54589844 C-3.81532461 11.39322654 -2.43029452 5.7675211 0 0 Z " fill="currentColor" transform="translate(258,237)"/>
</svg>
