<?xml version="1.0" encoding="UTF-8"?>
<svg version="1.1" xmlns="http://www.w3.org/2000/svg" width="512" height="512"  viewBox="0 0 512.000000 512.000000">
<path d="M0 0 C0.90105469 0.28746094 1.80210937 0.57492188 2.73046875 0.87109375 C22.63357046 7.99064524 37.58423675 24.68513701 46.49609375 43.3359375 C55.30916409 64.80778161 55.3881849 88.4154003 46.50390625 109.84375 C39.12589928 125.3279828 27.52040872 136.63401577 15.52734375 148.5703125 C14.35171345 149.74407256 13.17630756 150.91805742 12.00111389 152.09225464 C8.94070959 155.14888138 5.87731221 158.20249044 2.81323242 161.25543213 C-0.32623264 164.38457941 -3.46278976 167.51663869 -6.59960938 170.6484375 C-12.73026703 176.76844204 -18.864097 182.88525446 -25 189 C-24.18282501 189.00142502 -23.36565002 189.00285004 -22.52371216 189.00431824 C-14.78581644 189.02221993 -7.04858024 189.06404379 0.68902397 189.13209057 C4.66613028 189.16624012 8.64285739 189.19145161 12.62011719 189.19555664 C16.46546281 189.19986573 20.30995478 189.22854112 24.15503311 189.27343178 C25.61482884 189.28632418 27.07472716 189.29074402 28.5345726 189.28615379 C38.15864901 189.26296168 46.60009163 189.9285884 53.93112183 196.81364441 C59.9549601 203.288547 60.54904542 209.70366896 60.3046875 218.33203125 C59.64125167 226.31877795 56.10037836 230.41465041 50.1953125 235.5546875 C45.78387155 238.45901695 41.38340883 239.25011631 36.17353821 239.24723816 C35.0337149 239.25143265 33.8938916 239.25562714 32.7195282 239.25994873 C31.48346329 239.25432922 30.24739838 239.24870972 28.97387695 239.24291992 C27.00469299 239.24576744 27.00469299 239.24576744 24.99572754 239.24867249 C21.40710617 239.25350502 17.81860984 239.24588607 14.2300036 239.23571944 C10.47179326 239.22691674 6.71358658 239.22869679 2.95536804 239.2290802 C-3.35179734 239.22814482 -9.65891448 239.21947615 -15.96606445 239.20581055 C-23.25974033 239.19006595 -30.55336349 239.18481322 -37.84705514 239.1855461 C-44.86618703 239.18615615 -51.88530175 239.18105416 -58.90442848 239.17275429 C-61.89120429 239.16922254 -64.87797402 239.1673912 -67.86475182 239.16686058 C-72.03054678 239.16567078 -76.19627917 239.15596417 -80.36206055 239.14526367 C-81.60419815 239.14571686 -82.84633575 239.14617004 -84.12611389 239.14663696 C-85.25747772 239.14237198 -86.38884155 239.13810699 -87.55448914 239.13371277 C-88.53946727 239.13203692 -89.5244454 239.13036108 -90.53927135 239.12863445 C-93 239 -93 239 -96 238 C-96.2475 238.61875 -96.495 239.2375 -96.75 239.875 C-98.20628639 242.35068687 -99.37812506 242.95125002 -102 244 C-102.80967438 241.08517222 -103.21845993 239.53886783 -102.0625 236.6875 C-101.711875 236.130625 -101.36125 235.57375 -101 235 C-102.98 233.68 -104.96 232.36 -107 231 C-108.485 231.99 -108.485 231.99 -110 233 C-110.99 232.34 -111.98 231.68 -113 231 C-112.690625 230.401875 -112.38125 229.80375 -112.0625 229.1875 C-110.12172731 225.23497392 -110.12172731 225.23497392 -111 221 C-111.64944725 212.5696751 -111.65051402 205.42716345 -106.12692261 198.72842407 C-97.31330601 189.12004391 -88.03509543 179.9801062 -78.76657486 170.81367111 C-75.70160229 167.78180794 -72.64299799 164.74357229 -69.58566284 161.70401001 C-68.53150462 160.65610982 -67.47734545 159.60821058 -66.42318535 158.56031227 C-65.8960569 158.03629995 -65.36892845 157.51228762 -64.82582641 156.97239614 C-57.72735204 149.91667964 -50.62416257 142.86580405 -43.50683594 135.82910156 C-38.67621415 131.05310139 -33.8546637 126.26814137 -29.04313362 121.47290576 C-26.50727319 118.94636597 -23.9671166 116.42452823 -21.41565323 113.91373825 C-18.57343487 111.11672279 -15.75127142 108.30025245 -12.93017578 105.48193359 C-12.09581497 104.66712021 -11.26145416 103.85230682 -10.40180969 103.01280212 C-3.05091411 95.61031997 2.01508649 87.56611967 2.3125 76.9375 C2.19273995 67.95549647 -0.72519261 60.2628922 -6.9296875 53.72265625 C-15.61074475 46.49936144 -25.04613345 45.1781665 -36 46 C-43.88948465 47.78670457 -50.58854193 52.23817311 -55.3125 58.83203125 C-58.72456312 64.58988776 -60.21164812 69.68575008 -60.875 76.3125 C-62.03968845 85.96611004 -64.49999051 91.22663205 -71.90234375 97.5546875 C-78.59934834 102.16901096 -86.20479084 101.88836573 -94 101 C-101.72686286 98.34704317 -106.31828512 93.13247348 -110 86 C-114.83917361 71.48247917 -109.40648897 53.09152094 -103 40 C-98.71238596 31.59627647 -93.6615893 24.6728993 -87 18 C-86.31292969 17.30132812 -85.62585938 16.60265625 -84.91796875 15.8828125 C-62.42732593 -5.56466507 -28.67077869 -9.399703 0 0 Z " fill="currentColor" transform="translate(333,112)"/>
<path d="M0 0 C6.78134667 4.10068613 11.35157897 9.72117614 13.4375 17.3125 C13.61651107 20.14428235 13.69945484 22.87370609 13.67800903 25.70272827 C13.67971788 26.5327324 13.68142673 27.36273652 13.68318737 28.21789229 C13.68647389 30.99089054 13.67549238 33.76364524 13.66455078 36.53662109 C13.66398649 38.52762852 13.66430358 40.51863637 13.66543579 42.50964355 C13.66600959 47.90997897 13.6542508 53.31022553 13.64028788 58.71054029 C13.62778511 64.35598265 13.62661037 70.00142704 13.62423706 75.6468811 C13.61802097 86.33523986 13.60160837 97.0235577 13.58153808 107.71189845 C13.55918314 119.88108692 13.54818666 132.05027734 13.53814721 144.21948123 C13.51724228 169.25051017 13.48206375 194.28150279 13.4375 219.3125 C15.4175 219.3125 17.3975 219.3125 19.4375 219.3125 C18.591875 220.26125 17.74625 221.21 16.875 222.1875 C14.32378442 225.12707392 12.1852877 228.17767888 10.0625 231.4375 C6.20719332 237.06624776 1.87483289 240.16672237 -4.5625 242.3125 C-12.48887588 242.92686967 -20.08897209 243.46519598 -26.5625 238.3125 C-32.94491308 232.58900001 -36.10933259 226.57441767 -36.84917259 217.98382378 C-36.970995 213.94614567 -36.99965263 209.91771962 -36.99487305 205.87866211 C-37.00390237 204.33054834 -37.01423245 202.78244169 -37.02575684 201.23434448 C-37.05321568 197.05523948 -37.06259615 192.87627054 -37.06861091 188.69708705 C-37.07802366 184.32083596 -37.10422931 179.94468535 -37.12861633 175.5684967 C-37.17220544 167.2921049 -37.20079894 159.01573269 -37.22393972 150.73926121 C-37.25103217 141.31232977 -37.29494112 131.88549979 -37.34022844 122.45864093 C-37.43296597 103.0766476 -37.50469647 83.69462743 -37.5625 64.3125 C-39.11710937 65.05306641 -39.11710937 65.05306641 -40.703125 65.80859375 C-42.0728271 66.45591872 -43.44262375 67.10304366 -44.8125 67.75 C-45.49441406 68.07548828 -46.17632812 68.40097656 -46.87890625 68.73632812 C-47.54277344 69.04892578 -48.20664062 69.36152344 -48.890625 69.68359375 C-49.4980957 69.97161865 -50.10556641 70.25964355 -50.73144531 70.55639648 C-57.29134441 73.26519748 -63.70805267 72.81736643 -70.2890625 70.4140625 C-76.21163312 67.54436333 -81.29736192 62.82643997 -83.93359375 56.73828125 C-86.10788362 48.35173462 -85.33170663 40.27399086 -81.4375 32.59375 C-75.85563862 25.80248532 -67.68538919 22.09612244 -59.94921875 18.29296875 C-58.8578511 17.74892899 -57.76648346 17.20488922 -56.64204407 16.6443634 C-54.35037925 15.50371525 -52.05682024 14.36686555 -49.76147461 13.23364258 C-46.23999047 11.49505821 -42.7240458 9.74566876 -39.20898438 7.99414062 C-36.97687264 6.88479241 -34.74446122 5.77604696 -32.51171875 4.66796875 C-31.45861008 4.14510788 -30.4055014 3.62224701 -29.32048035 3.08354187 C-28.34549088 2.60246475 -27.3705014 2.12138763 -26.3659668 1.62573242 C-25.50851364 1.20192795 -24.65106049 0.77812347 -23.7676239 0.34147644 C-16.76737337 -2.9250488 -7.06448303 -3.35630611 0 0 Z " fill="currentColor" transform="translate(88.5625,112.6875)"/>
<path d="M0 0 C0 0.33 0 0.66 0 1 C5.94 0.67 11.88 0.34 18 0 C18 0.66 18 1.32 18 2 C19.24735567 2.6509259 20.49801832 3.29551669 21.75 3.9375 C22.44609375 4.29714844 23.1421875 4.65679687 23.859375 5.02734375 C25.90224433 5.95558182 27.81115376 6.53166578 30 7 C30 7.99 30 8.98 30 10 C30.85759736 11.86263287 30.85759736 11.86263287 32 13.6875 C32.66 14.780625 33.32 15.87375 34 17 C35.32 16.67 36.64 16.34 38 16 C38.625 18.375 38.625 18.375 39 21 C38.34 21.66 37.68 22.32 37 23 C36.78641199 26.84458427 36.82118713 30.31620978 38 34 C39.32 33.01 40.64 32.02 42 31 C42.4375 34.0625 42.4375 34.0625 42 38 C40.46463609 39.90474132 38.75281656 41.42121633 36.92578125 43.046875 C34.78017516 45.22294608 33.5187845 47.38261557 32.0625 50.0625 C29.18487533 55.11944575 25.86886913 57.92287471 21 61 C16.69941681 63.74636313 16.69941681 63.74636313 13.0625 67.25 C10.10393186 69.76030024 7.74971332 69.28843949 4 69 C4.99 67.68 5.98 66.36 7 65 C5.23186888 64.75084061 3.46025018 64.52633368 1.6875 64.3125 C0.70136719 64.18488281 -0.28476563 64.05726563 -1.30078125 63.92578125 C-4.04368768 63.73018818 -4.04368768 63.73018818 -5.85546875 65.48046875 C-6.23316406 65.98191406 -6.61085937 66.48335938 -7 67 C-8.65 66.34 -10.3 65.68 -12 65 C-11.01 63.68 -10.02 62.36 -9 61 C-12.465 58.525 -12.465 58.525 -16 56 C-16.99 56.99 -17.98 57.98 -19 59 C-19.99 58.67 -20.98 58.34 -22 58 C-22.495 56.515 -22.495 56.515 -23 55 C-22.01 54.01 -21.02 53.02 -20 52 C-21.26974972 47.58477891 -21.26974972 47.58477891 -24 44 C-25.32 44.99 -26.64 45.98 -28 47 C-29 46 -29 46 -29.3125 43.6875 C-29 41 -29 41 -27.02734375 39.25390625 C-24.32672355 36.25148264 -24.40934925 34.23373121 -24.25 30.25 C-24.19328125 29.07953125 -24.1365625 27.9090625 -24.078125 26.703125 C-24.05234375 25.81109375 -24.0265625 24.9190625 -24 24 C-25.98 25.65 -27.96 27.3 -30 29 C-28.99221241 20.44234606 -25.49656739 16.47232117 -19.375 10.625 C-18.20130859 9.43583984 -18.20130859 9.43583984 -17.00390625 8.22265625 C-5.7042542 -2.8521271 -5.7042542 -2.8521271 0 0 Z " fill="currentColor" transform="translate(164,289)"/>
<path d="M0 0 C1.32 1.32 2.64 2.64 4 4 C2.35718838 5.66964521 0.71067239 7.3356464 -0.9375 9 C-2.31228516 10.3921875 -2.31228516 10.3921875 -3.71484375 11.8125 C-6 14 -6 14 -7 14 C-7.4375 10.9375 -7.4375 10.9375 -7 7 C-4.94453496 4.33150153 -2.57519531 2.16132464 0 0 Z " fill="currentColor" transform="translate(170,391)"/>
<path d="M0 0 C2.475 0.99 2.475 0.99 5 2 C4.02133662 3.14626322 3.04205413 4.29199788 2.0625 5.4375 C1.51722656 6.07558594 0.97195312 6.71367187 0.41015625 7.37109375 C-0.36795695 8.26991149 -1.15936528 9.15936528 -2 10 C-4.33297433 10.04092937 -6.66705225 10.04241723 -9 10 C-8.06409496 8.8944811 -7.12620142 7.79064547 -6.1875 6.6875 C-5.66542969 6.07261719 -5.14335937 5.45773437 -4.60546875 4.82421875 C-3.12827531 3.14575321 -1.59960869 1.56117966 0 0 Z " fill="#0B5170" transform="translate(181,400)"/>
<path d="M0 0 C1.134375 0.020625 2.26875 0.04125 3.4375 0.0625 C2.48020084 1.18838014 1.52162105 2.3131715 0.5625 3.4375 C0.02882812 4.06398438 -0.50484375 4.69046875 -1.0546875 5.3359375 C-2.17682007 6.62086651 -3.35621975 7.85621975 -4.5625 9.0625 C-7.6875 8.6875 -7.6875 8.6875 -10.5625 8.0625 C-9.58383662 6.91623678 -8.60455413 5.77050212 -7.625 4.625 C-7.07972656 3.98691406 -6.53445312 3.34882813 -5.97265625 2.69140625 C-3.69886364 0.06489234 -3.69886364 0.06489234 0 0 Z " fill="#0B5576" transform="translate(216.5625,327.9375)"/>
<path d="M0 0 C-2.0625 2.5 -2.0625 2.5 -5 5 C-8.8125 5.3125 -8.8125 5.3125 -12 5 C-8.70515971 0.24078624 -8.70515971 0.24078624 -5.4375 -0.875 C-3 -1 -3 -1 0 0 Z " fill="currentColor" transform="translate(204,405)"/>
<path d="M0 0 C0.66 0 1.32 0 2 0 C2.66 1.32 3.32 2.64 4 4 C2.68 4.99 1.36 5.98 0 7 C-0.99 6.34 -1.98 5.68 -3 5 C-1.125 1.125 -1.125 1.125 0 0 Z " fill="currentColor" transform="translate(223,338)"/>
<path d="M0 0 C0.99 0.33 1.98 0.66 3 1 C2.01 2.32 1.02 3.64 0 5 C-2.475 4.01 -2.475 4.01 -5 3 C-4.360625 2.690625 -3.72125 2.38125 -3.0625 2.0625 C-1.06389179 1.1654837 -1.06389179 1.1654837 0 0 Z " fill="currentColor" transform="translate(157,351)"/>
<path d="M0 0 C0.33 0 0.66 0 1 0 C1 2.31 1 4.62 1 7 C0.01 7.33 -0.98 7.66 -2 8 C-1.125 1.125 -1.125 1.125 0 0 Z " fill="#0A4B67" transform="translate(236,365)"/>
<path d="M0 0 C0.66 0 1.32 0 2 0 C2.33 1.65 2.66 3.3 3 5 C2.01 5.66 1.02 6.32 0 7 C0 4.69 0 2.38 0 0 Z " fill="#09435B" transform="translate(163,378)"/>
<path d="M0 0 C1.25541557 3.76624671 0.37061958 5.37188934 -1 9 C-1.33 9 -1.66 9 -2 9 C-2.125 5.625 -2.125 5.625 -2 2 C-1.34 1.34 -0.68 0.68 0 0 Z " fill="currentColor" transform="translate(165,356)"/>
<path d="M0 0 C0.66 0 1.32 0 2 0 C1.1875 1.9375 1.1875 1.9375 0 4 C-0.99 4.33 -1.98 4.66 -3 5 C-1.125 1.125 -1.125 1.125 0 0 Z " fill="currentColor" transform="translate(223,338)"/>
<path d="M0 0 C0.99 0 1.98 0 3 0 C1.25 3.875 1.25 3.875 -1 5 C-0.67 3.35 -0.34 1.7 0 0 Z " fill="currentColor" transform="translate(135,313)"/>
<path d="M0 0 C0.99 0.33 1.98 0.66 3 1 C1.02 1.99 1.02 1.99 -1 3 C-0.67 2.01 -0.34 1.02 0 0 Z " fill="currentColor" transform="translate(137,308)"/>
<path d="" fill="currentColor" transform="translate(0,0)"/>
</svg>
