<?xml version="1.0" standalone="no"?>
<!DOCTYPE svg PUBLIC "-//W3C//DTD SVG 20010904//EN"
 "http://www.w3.org/TR/2001/REC-SVG-20010904/DTD/svg10.dtd">
<svg version="1.0" xmlns="http://www.w3.org/2000/svg"
 width="512.000000pt" height="512.000000pt" viewBox="0 0 512.000000 512.000000"
 preserveAspectRatio="xMidYMid meet">

<g transform="translate(0.000000,512.000000) scale(0.100000,-0.100000)"
fill="currentColor" stroke="none">
<path d="M345 3446 c-165 -41 -295 -175 -330 -343 -21 -99 -21 -987 0 -1086
36 -172 173 -310 343 -346 75 -16 4329 -16 4404 0 123 26 248 121 303 229 51
101 55 144 55 660 0 516 -4 559 -55 660 -55 108 -180 203 -303 229 -80 17
-4348 14 -4417 -3z m2970 -886 l0 -605 -1450 0 c-1445 0 -1450 0 -1485 21 -19
11 -45 35 -57 54 l-23 33 0 494 c0 525 0 523 48 566 52 48 7 46 1532 44 l1435
-2 0 -605z m1425 584 c19 -11 45 -35 57 -54 l23 -33 0 -497 0 -497 -23 -33
c-12 -19 -38 -43 -57 -54 -34 -21 -48 -21 -580 -21 l-545 0 -3 595 c-1 327 0
601 3 608 4 10 113 12 547 10 527 -3 544 -4 578 -24z"/>
<path d="M706 2700 c-58 -18 -96 -73 -96 -140 0 -52 21 -92 62 -122 l33 -23
727 0 c718 0 727 0 754 21 50 37 69 72 69 124 0 52 -19 87 -69 124 -27 21 -37
21 -739 23 -392 1 -725 -2 -741 -7z"/>
<path d="M3923 2765 c-58 -25 -90 -101 -72 -169 9 -32 38 -69 137 -170 143
-144 186 -172 255 -161 37 6 59 24 185 148 152 151 171 181 158 250 -17 90
-113 140 -202 107 -15 -6 -59 -42 -98 -80 l-72 -70 -65 66 c-35 36 -76 72 -91
80 -34 18 -93 17 -135 -1z"/>
</g>
</svg>
