<?xml version="1.0" encoding="UTF-8"?>
<svg version="1.1" xmlns="http://www.w3.org/2000/svg" width="512" height="512"  viewBox="0 0 512.000000 512.000000">
<path d="M0 0 C0.90105469 0.28746094 1.80210937 0.57492188 2.73046875 0.87109375 C22.63357046 7.99064524 37.58423675 24.68513701 46.49609375 43.3359375 C55.30916409 64.80778161 55.3881849 88.4154003 46.50390625 109.84375 C39.12589928 125.3279828 27.52040872 136.63401577 15.52734375 148.5703125 C14.35171345 149.74407256 13.17630756 150.91805742 12.00111389 152.09225464 C8.94070959 155.14888138 5.87731221 158.20249044 2.81323242 161.25543213 C-0.32623264 164.38457941 -3.46278976 167.51663869 -6.59960938 170.6484375 C-12.73026703 176.76844204 -18.864097 182.88525446 -25 189 C-24.18282501 189.00142502 -23.36565002 189.00285004 -22.52371216 189.00431824 C-14.78581644 189.02221993 -7.04858024 189.06404379 0.68902397 189.13209057 C4.66613028 189.16624012 8.64285739 189.19145161 12.62011719 189.19555664 C16.46546281 189.19986573 20.30995478 189.22854112 24.15503311 189.27343178 C25.61482884 189.28632418 27.07472716 189.29074402 28.5345726 189.28615379 C38.15864901 189.26296168 46.60009163 189.9285884 53.93112183 196.81364441 C59.9549601 203.288547 60.54904542 209.70366896 60.3046875 218.33203125 C59.64125167 226.31877795 56.10037836 230.41465041 50.1953125 235.5546875 C45.80722984 238.44363872 41.40382761 239.24948321 36.22064209 239.27415466 C34.52608131 239.28911736 34.52608131 239.28911736 32.79728699 239.30438232 C31.57221939 239.305047 30.34715179 239.30571167 29.08496094 239.30639648 C27.13264305 239.31888176 27.13264305 239.31888176 25.1408844 239.33161926 C21.58075571 239.35350019 18.02071288 239.36235466 14.46052456 239.36744571 C12.23218975 239.37109733 10.00387715 239.37734159 7.77555084 239.3844471 C-0.01015707 239.4089208 -7.79579857 239.42198867 -15.58154297 239.42553711 C-22.81958445 239.42916925 -30.05720111 239.45904651 -37.29511285 239.50094169 C-43.52465256 239.53572584 -49.75405203 239.55108696 -55.98368812 239.55178314 C-59.69751724 239.5525733 -63.41091332 239.56119006 -67.12464142 239.58978081 C-71.27252278 239.62100152 -75.41940263 239.61186324 -79.56738281 239.59936523 C-80.78435349 239.61419952 -82.00132416 239.62903381 -83.25517273 239.64431763 C-90.81601048 239.57961808 -96.74687977 238.44820716 -103 234 C-109.34954291 227.2945569 -111.47270706 221.16613602 -111.2265625 211.98046875 C-109.96955685 195.44434273 -89.82125214 181.7465898 -78.76657486 170.81367111 C-75.70160229 167.78180794 -72.64299799 164.74357229 -69.58566284 161.70401001 C-68.53150462 160.65610982 -67.47734545 159.60821058 -66.42318535 158.56031227 C-65.8960569 158.03629995 -65.36892845 157.51228762 -64.82582641 156.97239614 C-57.72735204 149.91667964 -50.62416257 142.86580405 -43.50683594 135.82910156 C-38.67621415 131.05310139 -33.8546637 126.26814137 -29.04313362 121.47290576 C-26.50727319 118.94636597 -23.9671166 116.42452823 -21.41565323 113.91373825 C-18.57343487 111.11672279 -15.75127142 108.30025245 -12.93017578 105.48193359 C-12.09581497 104.66712021 -11.26145416 103.85230682 -10.40180969 103.01280212 C-3.05091411 95.61031997 2.01508649 87.56611967 2.3125 76.9375 C2.19273995 67.95549647 -0.72519261 60.2628922 -6.9296875 53.72265625 C-15.61074475 46.49936144 -25.04613345 45.1781665 -36 46 C-43.88948465 47.78670457 -50.58854193 52.23817311 -55.3125 58.83203125 C-58.72456312 64.58988776 -60.21164812 69.68575008 -60.875 76.3125 C-62.03968845 85.96611004 -64.49999051 91.22663205 -71.90234375 97.5546875 C-78.59934834 102.16901096 -86.20479084 101.88836573 -94 101 C-101.72686286 98.34704317 -106.31828512 93.13247348 -110 86 C-114.83917361 71.48247917 -109.40648897 53.09152094 -103 40 C-98.71238596 31.59627647 -93.6615893 24.6728993 -87 18 C-86.31292969 17.30132812 -85.62585938 16.60265625 -84.91796875 15.8828125 C-62.42732593 -5.56466507 -28.67077869 -9.399703 0 0 Z " fill="currentColor" transform="translate(257,139)"/>
<path d="M0 0 C13.93616778 10.86086819 24.39961553 26.17937248 26.984375 43.9296875 C28.38958024 60.39947183 26.6766885 76.44366484 17.265625 90.49609375 C15.80360336 92.7773493 15.80360336 92.7773493 16.07421875 95 C17.21423303 97.41702599 18.66189584 98.90864193 20.546875 100.8046875 C36.30331215 118.08594114 39.82985497 139.22340081 39.15917969 161.86035156 C38.03728724 181.55927876 27.24593345 199.39924897 13.171875 212.7421875 C-6.04514633 229.0811526 -27.50490332 233.50729419 -52.015625 231.9296875 C-67.60255546 230.16727469 -82.5509424 222.44903663 -94.015625 211.9296875 C-94.77101563 211.26582031 -95.52640625 210.60195313 -96.3046875 209.91796875 C-110.61951468 196.61157442 -118.85560062 177.86189731 -120.265625 158.49609375 C-120.56767779 149.72712377 -119.9516943 142.36616789 -113.95703125 135.609375 C-107.10869969 129.16524513 -101.4639431 127.36914396 -92.1171875 127.5546875 C-85.51651876 128.35275324 -80.13318293 131.37841022 -75.578125 136.1796875 C-71.13932315 142.00639641 -70.04182387 148.36740525 -69.078125 155.4921875 C-68.29413081 161.1316751 -66.8685949 165.02614549 -64.015625 169.9296875 C-63.726875 170.61933594 -63.438125 171.30898438 -63.140625 172.01953125 C-61.72880925 174.41667675 -60.55307009 174.86056506 -58.015625 175.9296875 C-57.29246094 176.34347656 -56.56929688 176.75726563 -55.82421875 177.18359375 C-47.95227715 181.52807552 -40.66149968 183.12625882 -31.828125 180.8671875 C-23.04512435 177.76321104 -17.27095858 172.16039851 -13.015625 163.9296875 C-9.72505891 155.3868717 -10.58915911 147.22877027 -14.015625 138.9296875 C-17.63120206 132.18776988 -22.90192374 127.70001097 -30.015625 124.9296875 C-33.78111312 124.06459526 -37.58206259 123.48456017 -41.41894531 123.04174805 C-48.22048137 122.19937647 -54.86159127 120.13777049 -59.328125 114.6171875 C-64.84921634 107.48640467 -66.0194575 100.77956712 -65.015625 91.9296875 C-63.23056778 84.66596408 -59.06014263 80.13905746 -53.015625 75.9296875 C-48.6982294 73.52190918 -44.78387859 72.69505917 -39.953125 71.9921875 C-33.50412263 71.00189126 -29.9003825 69.22196014 -25.703125 64.1171875 C-22.96532188 58.94578161 -22.51913842 54.90033578 -24.078125 49.3046875 C-26.20868317 43.61997093 -29.41440442 41.17374952 -34.890625 38.5546875 C-40.33829975 37.46515255 -44.36818 38.04260173 -49.265625 40.6796875 C-52.02155194 42.93453682 -53.88348996 45.08684078 -56.015625 47.9296875 C-60.22327274 53.34879166 -64.1611337 58.1693045 -71.015625 59.9296875 C-77.91224946 60.70404533 -85.08966782 61.10613131 -91.203125 57.390625 C-97.05009967 52.6777618 -101.9421924 47.57789476 -103.015625 39.9296875 C-104.23319954 28.16634637 -99.18521024 19.92275107 -92.015625 10.9296875 C-69.08471005 -16.10335892 -28.76878019 -19.75058744 0 0 Z " fill="currentColor" transform="translate(473.015625,146.0703125)"/>
<path d="M0 0 C6.78161456 4.10084812 11.35131692 9.72115213 13.4375 17.3125 C13.62476205 20.17332297 13.71630786 22.9351434 13.70492554 25.79402161 C13.70945665 26.63400985 13.71398776 27.47399809 13.71865618 28.33944052 C13.73128969 31.1466788 13.72968049 33.95372281 13.72802734 36.76098633 C13.73401325 38.77680205 13.74081894 40.79261548 13.74838257 42.8084259 C13.76604348 48.27958707 13.77073799 53.75068566 13.77201414 59.22187257 C13.77343625 62.64152504 13.77770699 66.06116164 13.78300858 69.48081017 C13.80150919 81.4150328 13.80967915 93.34921077 13.80810547 105.28344727 C13.80690408 116.40109917 13.82800597 127.51855694 13.8595928 138.63615972 C13.88575975 148.18709469 13.89647258 157.73796626 13.89519465 167.28893679 C13.89468514 172.99068095 13.90036242 178.69225256 13.92155075 184.39396095 C13.94094004 189.75794691 13.94105269 195.12159583 13.92651749 200.4855938 C13.92442916 202.450756 13.92913166 204.41593934 13.9412384 206.38106537 C13.95673372 209.07111269 13.94735475 211.76000405 13.93197632 214.45002747 C13.94226344 215.22125452 13.95255057 215.99248158 13.96314943 216.78707916 C13.87448258 223.8417834 11.6202746 229.72763534 7.0625 235.125 C-1.348905 242.13450417 -7.77931631 243.13921075 -18.5625 242.3125 C-25.08761917 240.68122021 -30.07101449 235.94307284 -33.5625 230.3125 C-37.27543921 222.48476281 -37.00488958 214.34329031 -36.99487305 205.87866211 C-37.00390237 204.33054834 -37.01423245 202.78244169 -37.02575684 201.23434448 C-37.05321568 197.05523948 -37.06259615 192.87627054 -37.06861091 188.69708705 C-37.07802366 184.32083596 -37.10422931 179.94468535 -37.12861633 175.5684967 C-37.17220544 167.2921049 -37.20079894 159.01573269 -37.22393972 150.73926121 C-37.25103217 141.31232977 -37.29494112 131.88549979 -37.34022844 122.45864093 C-37.43296597 103.0766476 -37.50469647 83.69462743 -37.5625 64.3125 C-39.11710937 65.05306641 -39.11710937 65.05306641 -40.703125 65.80859375 C-42.0728271 66.45591872 -43.44262375 67.10304366 -44.8125 67.75 C-45.49441406 68.07548828 -46.17632812 68.40097656 -46.87890625 68.73632812 C-47.54277344 69.04892578 -48.20664062 69.36152344 -48.890625 69.68359375 C-49.4980957 69.97161865 -50.10556641 70.25964355 -50.73144531 70.55639648 C-57.29134441 73.26519748 -63.70805267 72.81736643 -70.2890625 70.4140625 C-76.21163312 67.54436333 -81.29736192 62.82643997 -83.93359375 56.73828125 C-86.10788362 48.35173462 -85.33170663 40.27399086 -81.4375 32.59375 C-75.85563862 25.80248532 -67.68538919 22.09612244 -59.94921875 18.29296875 C-58.8578511 17.74892899 -57.76648346 17.20488922 -56.64204407 16.6443634 C-54.35037925 15.50371525 -52.05682024 14.36686555 -49.76147461 13.23364258 C-46.23999047 11.49505821 -42.7240458 9.74566876 -39.20898438 7.99414062 C-36.97687264 6.88479241 -34.74446122 5.77604696 -32.51171875 4.66796875 C-31.45861008 4.14510788 -30.4055014 3.62224701 -29.32048035 3.08354187 C-28.34549088 2.60246475 -27.3705014 2.12138763 -26.3659668 1.62573242 C-25.50851364 1.20192795 -24.65106049 0.77812347 -23.7676239 0.34147644 C-16.76737337 -2.9250488 -7.06448303 -3.35630611 0 0 Z " fill="currentColor" transform="translate(84.5625,135.6875)"/>
</svg>
