<?xml version="1.0" encoding="UTF-8"?>
<svg version="1.1" xmlns="http://www.w3.org/2000/svg" width="512" height="512" viewBox="0 0 512.000000 512.000000">
<path d="M0 0 C0.99590753 -0.00538554 1.99181506 -0.01077108 3.0179016 -0.01631981 C6.32315475 -0.03051777 9.62800277 -0.02351581 12.93327332 -0.01637268 C15.31609415 -0.02208055 17.69891225 -0.02904642 20.08172607 -0.03717041 C25.86352657 -0.05321607 31.64520209 -0.05521147 37.42702011 -0.04995751 C42.13107275 -0.04590228 46.83509339 -0.04737535 51.53914452 -0.05270576 C52.54662797 -0.0538284 52.54662797 -0.0538284 53.57446462 -0.05497371 C54.93931551 -0.05650533 56.3041664 -0.05804367 57.66901728 -0.05958868 C70.4454746 -0.07329133 83.22187055 -0.06789211 95.99832644 -0.05640347 C107.66031055 -0.04647655 119.32213587 -0.0594063 130.98409549 -0.08333766 C142.98751953 -0.1077822 154.99086978 -0.11732322 166.99431819 -0.11068493 C173.72173652 -0.10720416 180.44901496 -0.10968789 187.1764164 -0.12693596 C193.50571279 -0.14245585 199.83470724 -0.13839334 206.16399193 -0.11963081 C208.47859008 -0.11595874 210.79321085 -0.11901278 213.10778809 -0.1295166 C237.6015052 -0.23213171 254.47353013 5.40821727 272.87101746 21.9360199 C275.25699716 24.05159331 277.72077607 26.06494457 280.19572449 28.07518005 C281.52023621 29.15219177 281.52023621 29.15219177 282.87150574 30.2509613 C284.17668152 31.30863708 284.17668152 31.30863708 285.50822449 32.38768005 C291.33180888 37.11987528 297.11294783 41.89186103 302.82072449 46.76268005 C307.25684616 50.54550115 311.77432248 54.19286889 316.38322449 57.76268005 C323.45412265 63.24914937 330.1970228 69.0807437 336.91349792 74.99266052 C338.25929755 76.16992614 339.62038397 77.32968264 340.98478699 78.4853363 C355.37510039 90.68098801 363.09840875 105.91539846 364.81681824 124.7743988 C365.46832775 142.08875759 360.11564025 158.52001421 348.44572449 171.45018005 C339.77272123 180.64223569 329.80026888 188.45544578 319.82926941 196.17308044 C314.76260734 200.12024073 309.93831113 204.31408288 305.11393738 208.55149841 C300.46156975 212.61637597 295.66971242 216.44789922 290.779953 220.22142029 C286.36724458 223.65145893 282.14413487 227.26218364 277.94572449 230.95018005 C261.68307999 245.14390824 245.54049082 256.9144038 223.02990723 256.78208923 C221.53816263 256.79122589 221.53816263 256.79122589 220.01628178 256.80054712 C216.71570653 256.81706856 213.41552167 256.81241681 210.11491394 256.80760193 C207.73533735 256.81494864 205.35576432 256.82353662 202.97619629 256.83326721 C196.53379835 256.85543074 190.09152851 256.85841638 183.64909768 256.8565197 C179.6177837 256.85572821 175.58648984 256.86065251 171.5551815 256.86700439 C170.19676612 256.86910381 168.83835074 256.87120141 167.47993535 256.87329721 C166.46544157 256.87486251 166.46544157 256.87486251 165.43045297 256.87645942 C152.66347737 256.89532646 139.89655933 256.89432275 127.12957557 256.88749009 C115.48184616 256.88191978 103.83433704 256.90272442 92.18665908 256.93585056 C80.19452309 256.96968852 68.20249233 256.9847432 56.21030778 256.98013353 C49.49061235 256.97789868 42.77115061 256.98345327 36.05149269 257.00802612 C29.72706807 257.03039063 23.40309965 257.02833448 17.07867241 257.0080986 C14.76813523 257.0047055 12.45756676 257.00970355 10.14707184 257.02408218 C-11.62782068 257.15015451 -29.096483 253.40744056 -45.42927551 238.01268005 C-59.34445419 223.09065172 -63.79651333 205.33126454 -63.78230286 185.47117615 C-63.78830041 184.09666077 -63.79510873 182.72214872 -63.80265808 181.34764099 C-63.82020433 177.64064719 -63.82500872 173.93374593 -63.82628965 170.22671461 C-63.82771872 167.90182651 -63.83200259 165.57696137 -63.83728409 163.25207901 C-63.85574942 155.11578651 -63.86395943 146.97955922 -63.86238098 138.84324646 C-63.86118175 131.3008379 -63.88225007 123.75871648 -63.91386831 116.21638048 C-63.94016685 109.70726428 -63.95074258 103.19824106 -63.94947016 96.68907225 C-63.94896434 92.81645495 -63.9544339 88.94409299 -63.97582626 85.07152939 C-64.10088431 60.72243476 -63.46418562 38.04022034 -45.60847473 19.37644958 C-33.16203049 6.88748247 -17.70399608 -0.11720838 0 0 Z M-16.05427551 52.51268005 C-18.9051245 56.66377461 -19.61764527 59.92665399 -19.63894653 64.93362427 C-19.64610184 66.08734024 -19.65325714 67.24105621 -19.66062927 68.42973328 C-19.66331818 69.69678101 -19.66600708 70.96382874 -19.66877747 72.26927185 C-19.67504363 73.61632461 -19.68169057 74.96337565 -19.68869019 76.3104248 C-19.70971826 80.73590392 -19.72009273 85.16138333 -19.73005676 89.5868988 C-19.73410506 91.11190623 -19.73822201 92.63691349 -19.74240685 94.16192055 C-19.76145731 101.32841206 -19.77568754 108.4948933 -19.78401881 115.66140527 C-19.79378519 123.92538022 -19.82008943 132.18908689 -19.86051971 140.45296735 C-19.89071751 146.84545893 -19.90549123 153.23787378 -19.90879983 159.63043529 C-19.91114654 163.44591066 -19.92005682 167.26109938 -19.945261 171.07649803 C-19.96861065 174.66923775 -19.97274769 178.2615035 -19.96249962 181.85429955 C-19.96177135 183.79223577 -19.98081498 185.73014829 -20.00056458 187.66798401 C-19.94948468 196.25862947 -18.94012929 201.8609546 -12.74177551 208.20018005 C-5.91770928 212.79330156 0.01390131 213.8314446 8.03422546 213.76863098 C9.42646135 213.77565094 9.42646135 213.77565094 10.84682322 213.78281271 C13.94048482 213.79472813 17.03370063 213.7853189 20.12736511 213.77586365 C22.35199237 213.77993087 24.5766176 213.7852736 26.80123901 213.79179382 C32.83215233 213.80545515 38.86291147 213.80017357 44.89382744 213.79065657 C51.20951117 213.7830539 57.52518183 213.79010727 63.84086609 213.79481506 C75.12536285 213.80062015 86.40978144 213.79130534 97.69426256 213.77603705 C107.91597597 213.76263466 118.13758715 213.76496301 128.35929871 213.77879333 C140.2430144 213.79486499 152.12666805 213.80081483 164.01039839 213.79195654 C170.2961011 213.78728283 176.58173347 213.78664696 182.86743164 213.79656601 C188.77721976 213.80524067 194.68681509 213.79920438 200.59658241 213.78188324 C202.76372775 213.77792111 204.93088935 213.77904775 207.09802818 213.78567123 C210.05964466 213.79388743 213.02064605 213.7835639 215.98222351 213.76863098 C217.26395187 213.77866923 217.26395187 213.77866923 218.57157373 213.78891027 C227.23158033 213.70440589 233.50374415 211.01206251 239.88322449 205.20018005 C241.01505938 204.20557687 242.14788025 203.21209464 243.28166199 202.2197113 C243.83048035 201.73454041 244.37929871 201.24936951 244.94474792 200.74949646 C247.07801245 198.89138442 249.28497196 197.13659043 251.50822449 195.38768005 C255.32799086 192.36267152 259.0542917 189.24003762 262.75822449 186.07518005 C267.21461392 182.27024041 271.74991252 178.59965527 276.38322449 175.01268005 C282.06030911 170.61254413 287.49266058 165.98331794 292.88249207 161.23728943 C297.15915308 157.49332846 301.56014278 153.96951105 306.07072449 150.51268005 C315.36388798 143.49658542 315.36388798 143.49658542 320.50822449 133.38768005 C321.26891146 126.54149732 320.74247919 120.96770564 316.50822449 115.38768005 C313.3709618 112.13982741 309.9919671 109.25635511 306.50822449 106.38768005 C305.63681824 105.66709412 304.76541199 104.94650818 303.86759949 104.2040863 C302.05999562 102.72153401 300.24733585 101.24512823 298.43009949 99.7743988 C295.23411656 97.16377639 292.08747392 94.50051502 288.94572449 91.82518005 C284.39198417 87.95200604 279.7732652 84.18144617 275.08634949 80.4697113 C272.09854967 78.0568366 269.17775785 75.56961054 266.25822449 73.07518005 C261.16894872 68.73284341 255.97309391 64.55495957 250.68254089 60.4606781 C247.80902898 58.22871122 244.98578034 55.96565457 242.23869324 53.5790863 C241.45280823 52.90051575 241.45280823 52.90051575 240.65104675 52.20823669 C239.23356722 50.97498162 237.82746801 49.72868007 236.42228699 48.48143005 C229.88236783 43.78250691 223.76920388 42.94470796 215.9577179 42.99327087 C215.02688822 42.98717977 214.09605854 42.98108867 213.1370219 42.97481298 C210.03423047 42.95823347 206.93185169 42.96295163 203.82902527 42.96775818 C201.59778926 42.96041495 199.36655705 42.95182798 197.1353302 42.9420929 C191.08570494 42.91989547 185.03621597 42.91694533 178.98655558 42.91884041 C173.93192681 42.91896019 168.87732684 42.91039306 163.8227061 42.90206289 C151.21422089 42.8817366 138.60582022 42.88067634 125.99733089 42.88787001 C115.063136 42.89344438 104.12917548 42.87262066 93.19503535 42.83950955 C81.9510949 42.80572618 70.70726335 42.79108393 59.46326053 42.79522657 C53.1573062 42.79729269 46.85158535 42.79183544 40.54567337 42.76733398 C34.61444836 42.74504908 28.68371074 42.74695978 22.75248337 42.76726151 C20.57972077 42.77066836 18.40692524 42.76559657 16.23420715 42.75127792 C-1.91587682 42.3005883 -1.91587682 42.3005883 -16.05427551 52.51268005 Z " fill="currentColor" transform="translate(105.49177551269531,127.61231994628906)"/>
<path d="M0 0 C2.29684969 2.23122541 3.81708442 4.23190044 5.1875 7.125 C4.8575 7.785 4.5275 8.445 4.1875 9.125 C3.8575 8.135 3.5275 7.145 3.1875 6.125 C-4.57891525 1.39912763 -13.9367647 -0.57024974 -22.8125 -1.875 C-21.8125 -3.875 -21.8125 -3.875 -20.1875 -4.5 C-12.41865809 -5.72665925 -6.4619896 -4.30799306 0 0 Z " fill="currentColor" transform="translate(355.8125,238.875)"/>
<path d="M0 0 C0.6640625 1.71484375 0.6640625 1.71484375 1 4 C-1.31288314 9.01704351 -4.69554498 13.99290891 -10 16 C-10.99 15.67 -11.98 15.34 -13 15 C-11.96939453 14.00419922 -11.96939453 14.00419922 -10.91796875 12.98828125 C-10.01691406 12.10527344 -9.11585938 11.22226562 -8.1875 10.3125 C-7.29417969 9.44238281 -6.40085937 8.57226562 -5.48046875 7.67578125 C-3.20985423 5.22637818 -1.58588655 2.92414297 0 0 Z " fill="currentColor" transform="translate(361,260)"/>
<path d="M0 0 C5.19689119 -0.61658031 5.19689119 -0.61658031 8 0 C10.17596146 2.06225326 11.60042821 4.36234546 13 7 C12.67 7.66 12.34 8.32 12 9 C11.67 8.01 11.34 7.02 11 6 C9.30230766 4.89831016 9.30230766 4.89831016 7 4 C6.39929688 3.73960937 5.79859375 3.47921875 5.1796875 3.2109375 C3.4570997 2.46471526 1.72890755 1.73146089 0 1 C0 0.67 0 0.34 0 0 Z " fill="currentColor" transform="translate(348,239)"/>
<path d="M0 0 C4.875 1.75 4.875 1.75 6 4 C2.37 3.67 -1.26 3.34 -5 3 C-3.68 2.34 -2.36 1.68 -1 1 C-0.67 0.67 -0.34 0.34 0 0 Z " fill="currentColor" transform="translate(349,236)"/>
<path d="M0 0 C0.33 1.32 0.66 2.64 1 4 C0.01 4.66 -0.98 5.32 -2 6 C-2.99 5.67 -3.98 5.34 -5 5 C-3.35 3.35 -1.7 1.7 0 0 Z " fill="currentColor" transform="translate(353,270)"/>
<path d="M0 0 C0.6875 1.8125 0.6875 1.8125 1 4 C-0.4375 5.75 -0.4375 5.75 -2 7 C-2.66 6.67 -3.32 6.34 -4 6 C-2.68 4.02 -1.36 2.04 0 0 Z " fill="currentColor" transform="translate(361,260)"/>
<path d="M0 0 C0.66 0 1.32 0 2 0 C1.67 0.99 1.34 1.98 1 3 C0.34 2.34 -0.32 1.68 -1 1 C-0.67 0.67 -0.34 0.34 0 0 Z " fill="curren" transform="translate(347,235)"/>
</svg>
