<?xml version="1.0" encoding="UTF-8"?>
<svg version="1.1" xmlns="http://www.w3.org/2000/svg" width="512" height="512" viewBox="0 0 512.000000 512.000000">
<path d="M0 0 C0.93783829 -0.00571014 1.87567657 -0.01142029 2.8419342 -0.01730347 C3.86900482 -0.01842133 4.89607544 -0.01953918 5.95426941 -0.02069092 C7.57906975 -0.02813828 7.57906975 -0.02813828 9.23669434 -0.03573608 C12.82769908 -0.05036643 16.41865965 -0.05716118 20.00968933 -0.06268311 C22.50209556 -0.06843383 24.99450177 -0.07419157 27.48690796 -0.07995605 C32.04792072 -0.08912439 36.60892079 -0.0954237 41.16994172 -0.09845281 C47.2094484 -0.10248618 53.24879961 -0.11476168 59.28825378 -0.14080811 C65.76913655 -0.16832863 72.24988584 -0.18120014 78.73082542 -0.18312836 C81.20157163 -0.18615649 83.67231695 -0.19419036 86.14303017 -0.20731354 C89.59979846 -0.22436344 93.0560699 -0.22249607 96.51286316 -0.21600342 C98.04436005 -0.22982559 98.04436005 -0.22982559 99.60679626 -0.243927 C105.89172722 -0.20693892 110.48170164 0.4229978 115.29093933 4.85919189 C115.76918152 5.44700439 116.24742371 6.03481689 116.74015808 6.64044189 C117.23129089 7.22825439 117.72242371 7.81606689 118.22843933 8.42169189 C121.09165744 12.52532696 120.58242543 17.04755541 120.58879089 21.83111572 C120.5937558 22.71924454 120.5987207 23.60737335 120.60383606 24.52241516 C120.61845542 27.46410901 120.62525946 30.40574892 120.63078308 33.34747314 C120.63653489 35.39147442 120.64229262 37.43547568 120.64805603 39.47947693 C120.65856549 43.76759086 120.66440846 48.05568604 120.66789246 52.34381104 C120.67337586 57.83503556 120.69740094 63.32601197 120.72586441 68.8171587 C120.74450038 73.04052959 120.74969691 77.26384084 120.75122833 81.48724937 C120.75425341 83.51142419 120.76227705 85.53559799 120.77541351 87.55973244 C120.79249325 90.39387436 120.79058895 93.22741177 120.78410339 96.06158447 C120.79331818 96.89556763 120.80253296 97.72955078 120.81202698 98.58880615 C120.76642498 104.95943889 119.30004561 109.02800468 114.99015808 113.89044189 C101.77088294 125.49761031 73.21295653 119.14044189 61.42765808 119.14044189 C61.42765808 157.75044189 61.42765808 196.36044189 61.42765808 236.14044189 C113.23765808 236.14044189 165.04765808 236.14044189 218.42765808 236.14044189 C218.42765808 197.53044189 218.42765808 158.92044189 218.42765808 119.14044189 C204.89765808 119.14044189 191.36765808 119.14044189 177.42765808 119.14044189 C168.33901111 116.86828015 168.33901111 116.86828015 165.05265808 113.89044189 C164.40554871 113.32841064 163.75843933 112.76637939 163.09172058 112.18731689 C159.03577701 107.19831588 159.13026704 101.43892983 159.13713074 95.32452393 C159.13041351 94.45867676 159.12369629 93.59282959 159.11677551 92.70074463 C159.09784007 89.84985553 159.09387367 86.99920239 159.09172058 84.14825439 C159.08528994 82.15817164 159.07856138 80.16808982 159.07154846 78.17800903 C159.05958711 74.01035368 159.0558665 69.84278116 159.05705261 65.67510986 C159.05725582 60.34660289 159.02994648 55.01862914 158.99550819 49.69024849 C158.97322285 45.5808775 158.96921556 41.47163455 158.97027206 37.36220932 C158.96791885 35.39829545 158.95911117 33.43437791 158.94360733 31.47052383 C158.92391278 28.71835682 158.9297987 25.96733616 158.94181824 23.21514893 C158.93057922 22.41177094 158.91934021 21.60839294 158.90776062 20.78067017 C158.97647247 14.55898925 160.54772989 9.18187246 164.91037941 4.57457161 C169.13330394 0.90805245 172.30245356 0.01685841 177.75927734 0 C178.86539871 -0.00571014 179.97152008 -0.01142029 181.11116028 -0.01730347 C182.32524567 -0.01842133 183.53933105 -0.01953918 184.79020691 -0.02069092 C186.06847855 -0.02565582 187.34675018 -0.03062073 188.66375732 -0.03573608 C192.1721346 -0.04885255 195.68049274 -0.05530362 199.1888907 -0.05974674 C201.38149094 -0.06267883 203.57408596 -0.06678391 205.76668358 -0.07125092 C212.6288306 -0.08492418 219.49096569 -0.09459154 226.35312539 -0.09845281 C234.27069143 -0.10293258 242.18808475 -0.12047731 250.10559827 -0.1494534 C256.22799845 -0.17108091 262.35035007 -0.18115766 268.47278804 -0.18249393 C272.12829682 -0.18354124 275.7836432 -0.18943315 279.43911171 -0.20731354 C283.51848936 -0.22687929 287.59750626 -0.22250102 291.67692566 -0.21600342 C292.88493835 -0.2252182 294.09295105 -0.23443298 295.33757019 -0.243927 C305.65193906 -0.19238987 305.65193906 -0.19238987 310.42765808 3.14044189 C316.46143937 9.44848597 317.72841079 14.29970672 317.70231628 22.85870361 C317.70998268 24.15966476 317.70998268 24.15966476 317.71780396 25.48690796 C317.73168012 28.34805238 317.73074454 31.20895536 317.72843933 34.07012939 C317.73232759 36.06403696 317.73666253 38.0579437 317.74142456 40.05184937 C317.74888271 44.22968227 317.74859859 48.40743066 317.74333191 52.58526611 C317.73754051 57.93063031 317.75446239 63.27564765 317.77767658 68.62095451 C317.79243226 72.73886121 317.79328307 76.85668474 317.79016685 80.97461319 C317.79067923 82.94492403 317.79590122 84.91523962 317.80597878 86.88552475 C317.81836016 89.64504051 317.81154108 92.40388553 317.79997253 95.16339111 C317.80761627 95.97193542 317.81526001 96.78047974 317.82313538 97.61352539 C317.76828154 103.55435713 316.69946581 108.30499579 312.88468933 113.06622314 C312.34199402 113.52384033 311.79929871 113.98145752 311.24015808 114.45294189 C310.71035339 114.92344971 310.18054871 115.39395752 309.63468933 115.87872314 C296.15019259 123.58755933 266.27069839 119.14044189 258.42765808 119.14044189 C258.42765808 157.75044189 258.42765808 196.36044189 258.42765808 236.14044189 C310.23765808 236.14044189 362.04765808 236.14044189 415.42765808 236.14044189 C415.42765808 197.53044189 415.42765808 158.92044189 415.42765808 119.14044189 C401.89765808 119.14044189 388.36765808 119.14044189 374.42765808 119.14044189 C363.0430427 116.29428805 363.0430427 116.29428805 359.17765808 111.14044189 C356.29039279 106.19084425 356.27395121 102.03026329 356.26652527 96.44976807 C356.26156036 95.56163925 356.25659546 94.67351044 356.2514801 93.75846863 C356.23686074 90.81677478 356.23005671 87.87513487 356.22453308 84.93341064 C356.21878127 82.88940937 356.21302354 80.84540811 356.20726013 78.80140686 C356.19675067 74.51329293 356.1909077 70.22519775 356.18742371 65.93707275 C356.1819403 60.44584823 356.15791523 54.95487182 356.12945175 49.46372509 C356.11081578 45.2403542 356.10561925 41.01704295 356.10408783 36.79363441 C356.10106275 34.7694596 356.09303911 32.7452858 356.07990265 30.72115135 C356.06282292 27.88700943 356.06472721 25.05347202 356.07121277 22.21929932 C356.06199799 21.38531616 356.0527832 20.55133301 356.04328918 19.69207764 C356.0845571 13.92692052 357.10260919 9.66100626 361.14640808 5.27716064 C361.73422058 4.79891846 362.32203308 4.32067627 362.92765808 3.82794189 C363.51547058 3.33680908 364.10328308 2.84567627 364.70890808 2.33966064 C367.74514554 0.22119496 370.4165348 0.01307336 374 0 C374.93783829 -0.00571014 375.87567657 -0.01142029 376.8419342 -0.01730347 C377.86900482 -0.01842133 378.89607544 -0.01953918 379.95426941 -0.02069092 C381.57906975 -0.02813828 381.57906975 -0.02813828 383.23669434 -0.03573608 C386.82769908 -0.05036643 390.41865965 -0.05716118 394.00968933 -0.06268311 C396.50209556 -0.06843383 398.99450177 -0.07419157 401.48690796 -0.07995605 C406.04792072 -0.08912439 410.60892079 -0.0954237 415.16994172 -0.09845281 C421.2094484 -0.10248618 427.24879961 -0.11476168 433.28825378 -0.14080811 C439.76913655 -0.16832863 446.24988584 -0.18120014 452.73082542 -0.18312836 C455.20157163 -0.18615649 457.67231695 -0.19419036 460.14303017 -0.20731354 C463.59979846 -0.22436344 467.0560699 -0.22249607 470.51286316 -0.21600342 C471.53386108 -0.2252182 472.55485901 -0.23443298 473.60679626 -0.243927 C479.89172722 -0.20693892 484.48170164 0.4229978 489.29093933 4.85919189 C489.76918152 5.44700439 490.24742371 6.03481689 490.74015808 6.64044189 C491.23129089 7.22825439 491.72242371 7.81606689 492.22843933 8.42169189 C495.08425764 12.51472139 494.58932634 17.02680844 494.60466003 21.79937744 C494.61451683 23.12675179 494.61451683 23.12675179 494.62457275 24.48094177 C494.64430177 27.41301559 494.65596851 30.34503816 494.66593933 33.27716064 C494.67001486 34.27941996 494.67409039 35.28167927 494.67828941 36.31431007 C494.6991501 41.62085387 494.71345091 46.92737182 494.7228241 52.23394775 C494.73387854 57.70711435 494.76826749 63.17987326 494.8079958 68.65289593 C494.83418112 72.86776978 494.84251773 77.08254686 494.84610558 81.29749489 C494.85096785 83.31444865 494.86257156 85.3313982 494.88114357 87.34827232 C494.90557184 90.17735142 494.90456302 93.00538073 494.89762878 95.83453369 C494.91043884 96.66132629 494.9232489 97.4881189 494.93644714 98.33996582 C494.88554945 104.06291186 493.57080785 108.32926639 490.42765808 113.14044189 C488.49797058 114.98028564 488.49797058 114.98028564 486.55265808 116.07794189 C485.91586121 116.45821533 485.27906433 116.83848877 484.62297058 117.23028564 C475.82748893 120.87681096 463.89699924 119.14044189 455.42765808 119.14044189 C455.42765808 209.56044189 455.42765808 299.98044189 455.42765808 393.14044189 C462.35765808 393.14044189 469.28765808 393.14044189 476.42765808 393.14044189 C488.38048858 396.12864952 488.38048858 396.12864952 491.55357456 400.79688835 C494.37302973 406.11384843 494.9995392 410.43191842 494.92936707 416.39874268 C494.93477005 417.28760162 494.94017303 418.17646057 494.94573975 419.09225464 C494.95816651 422.00710154 494.94177911 424.92094914 494.92375183 427.83575439 C494.92390693 429.87260998 494.92539775 431.90946586 494.92816162 433.94631958 C494.92954281 438.20468268 494.91703215 442.46270781 494.89421082 446.7210083 C494.86579105 452.17291805 494.86857716 457.62426816 494.88130093 463.07621956 C494.88826192 467.27817549 494.88046457 471.48000252 494.8680439 475.68194199 C494.86353605 477.69214254 494.86318676 479.70235696 494.8671093 481.71255875 C494.87002654 484.52230374 494.85349116 487.33128217 494.83171082 490.14093018 C494.83621246 490.96705811 494.84071411 491.79318604 494.84535217 492.64434814 C494.77169914 498.37610396 493.72727551 502.64744755 489.70890808 507.00372314 C489.12109558 507.48196533 488.53328308 507.96020752 487.92765808 508.45294189 C487.33984558 508.94407471 486.75203308 509.43520752 486.14640808 509.94122314 C483.11017062 512.05968883 480.43878136 512.26781043 476.85531616 512.28088379 C475.44855873 512.28944901 475.44855873 512.28944901 474.01338196 512.29818726 C472.47277603 512.29986404 472.47277603 512.29986404 470.90104675 512.30157471 C469.81784653 512.30653961 468.7346463 512.31150452 467.61862183 512.31661987 C464.02761708 512.33125022 460.43665651 512.33804497 456.84562683 512.34356689 C454.35322061 512.34931762 451.8608144 512.35507536 449.3684082 512.36083984 C444.80739544 512.37000818 440.24639537 512.37630749 435.68537444 512.3793366 C429.64586776 512.38336997 423.60651655 512.39564547 417.56706238 512.42169189 C411.08617961 512.44921241 404.60543033 512.46208393 398.12449074 512.46401215 C395.65374453 512.46704027 393.18299921 512.47507415 390.712286 512.48819733 C387.2555177 512.50524723 383.79924626 512.50337986 380.342453 512.49688721 C378.81095612 512.51070938 378.81095612 512.51070938 377.2485199 512.52481079 C370.96358894 512.48782271 366.37361452 511.85788599 361.56437683 507.42169189 C361.08613464 506.83387939 360.60789246 506.24606689 360.11515808 505.64044189 C359.62402527 505.05262939 359.13289246 504.46481689 358.62687683 503.85919189 C355.76365873 499.75555683 356.27289073 495.23332838 356.26652527 490.44976807 C356.26156036 489.56163925 356.25659546 488.67351044 356.2514801 487.75846863 C356.23686074 484.81677478 356.23005671 481.87513487 356.22453308 478.93341064 C356.21878127 476.88940937 356.21302354 474.84540811 356.20726013 472.80140686 C356.19675067 468.51329293 356.1909077 464.22519775 356.18742371 459.93707275 C356.1819403 454.44584823 356.15791523 448.95487182 356.12945175 443.46372509 C356.11081578 439.2403542 356.10561925 435.01704295 356.10408783 430.79363441 C356.10106275 428.7694596 356.09303911 426.7452858 356.07990265 424.72115135 C356.06282292 421.88700943 356.06472721 419.05347202 356.07121277 416.21929932 C356.06199799 415.38531616 356.0527832 414.55133301 356.04328918 413.69207764 C356.08889119 407.3214449 357.55527055 403.25287911 361.86515808 398.39044189 C375.08443322 386.78327348 403.64235963 393.14044189 415.42765808 393.14044189 C415.42765808 354.53044189 415.42765808 315.92044189 415.42765808 276.14044189 C363.61765808 276.14044189 311.80765808 276.14044189 258.42765808 276.14044189 C258.42765808 314.75044189 258.42765808 353.36044189 258.42765808 393.14044189 C271.95765808 393.14044189 285.48765808 393.14044189 299.42765808 393.14044189 C308.51630505 395.41260364 308.51630505 395.41260364 311.80265808 398.39044189 C312.44976746 398.95247314 313.09687683 399.51450439 313.76359558 400.09356689 C317.81953915 405.08256791 317.72504912 410.84195396 317.71818542 416.95635986 C317.72490265 417.82220703 317.73161987 418.6880542 317.73854065 419.58013916 C317.75747609 422.43102825 317.76144249 425.2816814 317.76359558 428.13262939 C317.77002622 430.12271215 317.77675478 432.11279397 317.7837677 434.10287476 C317.79572905 438.2705301 317.79944966 442.43810263 317.79826355 446.60577393 C317.79806034 451.9342809 317.82536968 457.26225465 317.85980797 462.5906353 C317.88209331 466.70000629 317.8861006 470.80924924 317.8850441 474.91867447 C317.88739731 476.88258833 317.896205 478.84650588 317.91170883 480.81035995 C317.93140338 483.56252696 317.92551746 486.31354763 317.91349792 489.06573486 C317.92473694 489.86911285 317.93597595 490.67249084 317.94755554 491.50021362 C317.87884369 497.72189454 316.30758627 503.09901132 311.94493675 507.70631218 C307.72201223 511.37283134 304.55286261 512.26402537 299.09603882 512.28088379 C297.98991745 512.28659393 296.88379608 512.29230408 295.74415588 512.29818726 C294.5300705 512.29930511 293.31598511 512.30042297 292.06510925 512.30157471 C290.78683762 512.30653961 289.50856598 512.31150452 288.19155884 512.31661987 C284.68318157 512.32973634 281.17482343 512.33618741 277.66642547 512.34063053 C275.47382522 512.34356262 273.2812302 512.3476677 271.08863258 512.3521347 C264.22648556 512.36580797 257.36435047 512.37547533 250.50219077 512.3793366 C242.58462473 512.38381637 234.66723141 512.4013611 226.74971789 512.43033719 C220.62731771 512.4519647 214.50496609 512.46204145 208.38252813 512.46337771 C204.72701935 512.46442503 201.07167297 512.47031694 197.41620445 512.48819733 C193.3368268 512.50776307 189.2578099 512.50338481 185.1783905 512.49688721 C183.36637146 512.51070938 183.36637146 512.51070938 181.51774597 512.52481079 C171.20337711 512.47327366 171.20337711 512.47327366 166.42765808 509.14044189 C160.39387679 502.83239782 159.12690538 497.98117706 159.15299988 489.42218018 C159.14788895 488.55487274 159.14277802 487.68756531 159.13751221 486.79397583 C159.12363605 483.93283141 159.12457162 481.07192843 159.12687683 478.21075439 C159.12298857 476.21684683 159.11865363 474.22294009 159.1138916 472.22903442 C159.10643346 468.05120152 159.10671757 463.87345313 159.11198425 459.69561768 C159.11777566 454.35025348 159.10085378 449.00523614 159.07763958 443.65992928 C159.0628839 439.54202258 159.06203309 435.42419905 159.06514931 431.3062706 C159.06463693 429.33595976 159.05941494 427.36564417 159.04933739 425.39535904 C159.03695601 422.63584328 159.04377508 419.87699826 159.05534363 417.11749268 C159.04769989 416.30894836 159.04005615 415.50040405 159.03218079 414.6673584 C159.08703462 408.72652666 160.15585035 403.975888 163.97062683 399.21466064 C164.51332214 398.75704346 165.05601746 398.29942627 165.61515808 397.82794189 C166.40986511 397.12218018 166.40986511 397.12218018 167.22062683 396.40216064 C180.70512357 388.69332446 210.58461777 393.14044189 218.42765808 393.14044189 C218.42765808 354.53044189 218.42765808 315.92044189 218.42765808 276.14044189 C166.61765808 276.14044189 114.80765808 276.14044189 61.42765808 276.14044189 C61.42765808 314.75044189 61.42765808 353.36044189 61.42765808 393.14044189 C74.95765808 393.14044189 88.48765808 393.14044189 102.42765808 393.14044189 C113.81227347 395.98659574 113.81227347 395.98659574 117.67765808 401.14044189 C120.56492338 406.09003954 120.58136495 410.2506205 120.58879089 415.83111572 C120.5937558 416.71924454 120.5987207 417.60737335 120.60383606 418.52241516 C120.61845542 421.46410901 120.62525946 424.40574892 120.63078308 427.34747314 C120.63653489 429.39147442 120.64229262 431.43547568 120.64805603 433.47947693 C120.65856549 437.76759086 120.66440846 442.05568604 120.66789246 446.34381104 C120.67337586 451.83503556 120.69740094 457.32601197 120.72586441 462.8171587 C120.74450038 467.04052959 120.74969691 471.26384084 120.75122833 475.48724937 C120.75425341 477.51142419 120.76227705 479.53559799 120.77541351 481.55973244 C120.79249325 484.39387436 120.79058895 487.22741177 120.78410339 490.06158447 C120.79792557 491.3125592 120.79792557 491.3125592 120.81202698 492.58880615 C120.77075907 498.35396327 119.75270697 502.61987753 115.70890808 507.00372314 C115.12109558 507.48196533 114.53328308 507.96020752 113.92765808 508.45294189 C113.33984558 508.94407471 112.75203308 509.43520752 112.14640808 509.94122314 C109.11017062 512.05968883 106.43878136 512.26781043 102.85531616 512.28088379 C101.44855873 512.28944901 101.44855873 512.28944901 100.01338196 512.29818726 C98.47277603 512.29986404 98.47277603 512.29986404 96.90104675 512.30157471 C95.81784653 512.30653961 94.7346463 512.31150452 93.61862183 512.31661987 C90.02761708 512.33125022 86.43665651 512.33804497 82.84562683 512.34356689 C80.35322061 512.34931762 77.8608144 512.35507536 75.3684082 512.36083984 C70.80739544 512.37000818 66.24639537 512.37630749 61.68537444 512.3793366 C55.64586776 512.38336997 49.60651655 512.39564547 43.56706238 512.42169189 C37.08617961 512.44921241 30.60543033 512.46208393 24.12449074 512.46401215 C21.65374453 512.46704027 19.18299921 512.47507415 16.712286 512.48819733 C13.2555177 512.50524723 9.79924626 512.50337986 6.342453 512.49688721 C4.81095612 512.51070938 4.81095612 512.51070938 3.2485199 512.52481079 C-3.03641106 512.48782271 -7.62638548 511.85788599 -12.43562317 507.42169189 C-12.91386536 506.83387939 -13.39210754 506.24606689 -13.88484192 505.64044189 C-14.37597473 505.05262939 -14.86710754 504.46481689 -15.37312317 503.85919189 C-18.22894148 499.7661624 -17.73401018 495.25407534 -17.74934387 490.48150635 C-17.75591507 489.59659012 -17.76248627 488.71167389 -17.76925659 487.79994202 C-17.7889856 484.86786819 -17.80065235 481.93584563 -17.81062317 479.00372314 C-17.8146987 478.00146383 -17.81877422 476.99920452 -17.82297325 475.96657372 C-17.84383394 470.66002992 -17.85813475 465.35351197 -17.86750793 460.04693604 C-17.87856238 454.57376944 -17.91295133 449.10101052 -17.95267963 443.62798786 C-17.97886496 439.41311401 -17.98720157 435.19833693 -17.99078941 430.9833889 C-17.99565169 428.96643513 -18.0072554 426.94948559 -18.02582741 424.93261147 C-18.05025568 422.10353237 -18.04924686 419.27550306 -18.04231262 416.4463501 C-18.05512268 415.6195575 -18.06793274 414.79276489 -18.08113098 413.94091797 C-18.03023328 408.21797193 -16.71549169 403.9516174 -13.57234192 399.14044189 C-11.64265442 397.30059814 -11.64265442 397.30059814 -9.69734192 396.20294189 C-9.06054504 395.82266846 -8.42374817 395.44239502 -7.76765442 395.05059814 C1.02782723 391.40407283 12.95831692 393.14044189 21.42765808 393.14044189 C21.42765808 302.72044189 21.42765808 212.30044189 21.42765808 119.14044189 C14.49765808 119.14044189 7.56765808 119.14044189 0.42765808 119.14044189 C-11.52517241 116.15223427 -11.52517241 116.15223427 -14.6982584 111.48399544 C-17.51771357 106.16703536 -18.14422304 101.84896536 -18.0740509 95.88214111 C-18.07945389 94.99328217 -18.08485687 94.10442322 -18.09042358 93.18862915 C-18.10285035 90.27378225 -18.08646295 87.35993465 -18.06843567 84.44512939 C-18.06859077 82.40827381 -18.07008159 80.37141793 -18.07284546 78.33456421 C-18.07422665 74.07620111 -18.06171599 69.81817598 -18.03889465 65.55987549 C-18.01047489 60.10796574 -18.013261 54.65661563 -18.02598476 49.20466423 C-18.03294576 45.0027083 -18.02514841 40.80088127 -18.01272774 36.5989418 C-18.00821989 34.58874125 -18.0078706 32.57852683 -18.01179314 30.56832504 C-18.01471037 27.75858005 -17.99817499 24.94960161 -17.97639465 22.13995361 C-17.9808963 21.31382568 -17.98539795 20.48769775 -17.99003601 19.63653564 C-17.91638298 13.90477983 -16.87195934 9.63343624 -12.85359192 5.27716064 C-12.26577942 4.79891846 -11.67796692 4.32067627 -11.07234192 3.82794189 C-10.48452942 3.33680908 -9.89671692 2.84567627 -9.29109192 2.33966064 C-6.25485446 0.22119496 -3.5834652 0.01307336 0 0 Z " fill="currentColor" transform="translate(17.572341918945313,-0.14044189453125)"/>
</svg>
