<?xml version="1.0" encoding="UTF-8"?>
<svg version="1.1" xmlns="http://www.w3.org/2000/svg" height="512.000000pt" viewBox="0 0 512.000000 512.000000"
 preserveAspectRatio="xMidYMid meet">
<path d="M0 0 C0.93783829 -0.00571014 1.87567657 -0.01142029 2.8419342 -0.01730347 C3.86900482 -0.01842133 4.89607544 -0.01953918 5.95426941 -0.02069092 C7.57906975 -0.02813828 7.57906975 -0.02813828 9.23669434 -0.03573608 C12.82769908 -0.05036643 16.41865965 -0.05716118 20.00968933 -0.06268311 C22.50209556 -0.06843383 24.99450177 -0.07419157 27.48690796 -0.07995605 C32.04792072 -0.08912439 36.60892079 -0.0954237 41.16994172 -0.09845281 C47.2094484 -0.10248618 53.24879961 -0.11476168 59.28825378 -0.14080811 C65.76913655 -0.16832863 72.24988584 -0.18120014 78.73082542 -0.18312836 C81.20157163 -0.18615649 83.67231695 -0.19419036 86.14303017 -0.20731354 C89.59979846 -0.22436344 93.0560699 -0.22249607 96.51286316 -0.21600342 C98.04436005 -0.22982559 98.04436005 -0.22982559 99.60679626 -0.243927 C105.89172722 -0.20693892 110.48170164 0.4229978 115.29093933 4.85919189 C115.76918152 5.44700439 116.24742371 6.03481689 116.74015808 6.64044189 C117.23129089 7.22825439 117.72242371 7.81606689 118.22843933 8.42169189 C121.09165744 12.52532696 120.58242543 17.04755541 120.58879089 21.83111572 C120.5937558 22.71924454 120.5987207 23.60737335 120.60383606 24.52241516 C120.61845542 27.46410901 120.62525946 30.40574892 120.63078308 33.34747314 C120.63653489 35.39147442 120.64229262 37.43547568 120.64805603 39.47947693 C120.65856549 43.76759086 120.66440846 48.05568604 120.66789246 52.34381104 C120.67337586 57.83503556 120.69740094 63.32601197 120.72586441 68.8171587 C120.74450038 73.04052959 120.74969691 77.26384084 120.75122833 81.48724937 C120.75425341 83.51142419 120.76227705 85.53559799 120.77541351 87.55973244 C120.79249325 90.39387436 120.79058895 93.22741177 120.78410339 96.06158447 C120.79331818 96.89556763 120.80253296 97.72955078 120.81202698 98.58880615 C120.76642498 104.95943889 119.30004561 109.02800468 114.99015808 113.89044189 C101.77088294 125.49761031 73.21295653 119.14044189 61.42765808 119.14044189 C61.42765808 157.75044189 61.42765808 196.36044189 61.42765808 236.14044189 C113.23765808 236.14044189 165.04765808 236.14044189 218.42765808 236.14044189 C218.42765808 197.53044189 218.42765808 158.92044189 218.42765808 119.14044189 C204.89765808 119.14044189 191.36765808 119.14044189 177.42765808 119.14044189 C168.33901111 116.86828015 168.33901111 116.86828015 165.05265808 113.89044189 C164.40554871 113.32841064 163.75843933 112.76637939 163.09172058 112.18731689 C159.03577701 107.19831588 159.13026704 101.43892983 159.13713074 95.32452393 C159.13041351 94.45867676 159.12369629 93.59282959 159.11677551 92.70074463 C159.09784007 89.84985553 159.09387367 86.99920239 159.09172058 84.14825439 C159.08528994 82.15817164 159.07856138 80.16808982 159.07154846 78.17800903 C159.05958711 74.01035368 159.0558665 69.84278116 159.05705261 65.67510986 C159.05725582 60.34660289 159.02994648 55.01862914 158.99550819 49.69024849 C158.97322285 45.5808775 158.96921556 41.47163455 158.97027206 37.36220932 C158.96791885 35.39829545 158.95911117 33.43437791 158.94360733 31.47052383 C158.92391278 28.71835682 158.9297987 25.96733616 158.94181824 23.21514893 C158.93057922 22.41177094 158.91934021 21.60839294 158.90776062 20.78067017 C158.97647247 14.55898925 160.54772989 9.18187246 164.91037941 4.57457161 C169.13330394 0.90805245 172.30245356 0.01685841 177.75927734 0 C178.86539871 -0.00571014 179.97152008 -0.01142029 181.11116028 -0.01730347 C182.32524567 -0.01842133 183.53933105 -0.01953918 184.79020691 -0.02069092 C186.06847855 -0.02565582 187.34675018 -0.03062073 188.66375732 -0.03573608 C192.1721346 -0.04885255 195.68049274 -0.05530362 199.1888907 -0.05974674 C201.38149094 -0.06267883 203.57408596 -0.06678391 205.76668358 -0.07125092 C212.6288306 -0.08492418 219.49096569 -0.09459154 226.35312539 -0.09845281 C234.27069143 -0.10293258 242.18808475 -0.12047731 250.10559827 -0.1494534 C256.22799845 -0.17108091 262.35035007 -0.18115766 268.47278804 -0.18249393 C272.12829682 -0.18354124 275.7836432 -0.18943315 279.43911171 -0.20731354 C283.51848936 -0.22687929 287.59750626 -0.22250102 291.67692566 -0.21600342 C292.88493835 -0.2252182 294.09295105 -0.23443298 295.33757019 -0.243927 C305.65193906 -0.19238987 305.65193906 -0.19238987 310.42765808 3.14044189 C316.46143937 9.44848597 317.72841079 14.29970672 317.70231628 22.85870361 C317.70998268 24.15966476 317.70998268 24.15966476 317.71780396 25.48690796 C317.73168012 28.34805238 317.73074454 31.20895536 317.72843933 34.07012939 C317.73232759 36.06403696 317.73666253 38.0579437 317.74142456 40.05184937 C317.74888271 44.22968227 317.74859859 48.40743066 317.74333191 52.58526611 C317.73754051 57.93063031 317.75446239 63.27564765 317.77767658 68.62095451 C317.79243226 72.73886121 317.79328307 76.85668474 317.79016685 80.97461319 C317.79067923 82.94492403 317.79590122 84.91523962 317.80597878 86.88552475 C317.81836016 89.64504051 317.81154108 92.40388553 317.79997253 95.16339111 C317.80761627 95.97193542 317.81526001 96.78047974 317.82313538 97.61352539 C317.76828154 103.55435713 316.69946581 108.30499579 312.88468933 113.06622314 C312.34199402 113.52384033 311.79929871 113.98145752 311.24015808 114.45294189 C310.71035339 114.92344971 310.18054871 115.39395752 309.63468933 115.87872314 C296.15019259 123.58755933 266.27069839 119.14044189 258.42765808 119.14044189 C258.42765808 157.75044189 258.42765808 196.36044189 258.42765808 236.14044189 C310.23765808 236.14044189 362.04765808 236.14044189 415.42765808 236.14044189 C415.42765808 197.53044189 415.42765808 158.92044189 415.42765808 119.14044189 C401.89765808 119.14044189 388.36765808 119.14044189 374.42765808 119.14044189 C363.0430427 116.29428805 363.0430427 116.29428805 359.17765808 111.14044189 C356.29039279 106.19084425 356.27395121 102.03026329 356.26652527 96.44976807 C356.26156036 95.56163925 356.25659546 94.67351044 356.2514801 93.75846863 C356.23686074 90.81677478 356.23005671 87.87513487 356.22453308 84.93341064 C356.21878127 82.88940937 356.21302354 80.84540811 356.20726013 78.80140686 C356.19675067 74.51329293 356.1909077 70.22519775 356.18742371 65.93707275 C356.1819403 60.44584823 356.15791523 54.95487182 356.12945175 49.46372509 C356.11081578 45.2403542 356.10561925 41.01704295 356.10408783 36.79363441 C356.10106275 34.7694596 356.09303911 32.7452858 356.07990265 30.72115135 C356.06282292 27.88700943 356.06472721 25.05347202 356.07121277 22.21929932 C356.06199799 21.38531616 356.0527832 20.55133301 356.04328918 19.69207764 C356.0845571 13.92692052 357.10260919 9.66100626 361.14640808 5.27716064 C361.73422058 4.79891846 362.32203308 4.32067627 362.92765808 3.82794189 C363.51547058 3.33680908 364.10328308 2.84567627 364.70890808 2.33966064 C367.74514554 0.22119496 370.4165348 0.01307336 374 0 C374.93783829 -0.00571014 375.87567657 -0.01142029 376.8419342 -0.01730347 C377.86900482 -0.01842133 378.89607544 -0.01953918 379.95426941 -0.02069092 C381.57906975 -0.02813828 381.57906975 -0.02813828 383.23669434 -0.03573608 C386.82769908 -0.05036643 390.41865965 -0.05716118 394.00968933 -0.06268311 C396.50209556 -0.06843383 398.99450177 -0.07419157 401.48690796 -0.07995605 C406.04792072 -0.08912439 410.60892079 -0.0954237 415.16994172 -0.09845281 C421.2094484 -0.10248618 427.24879961 -0.11476168 433.28825378 -0.14080811 C439.76913655 -0.16832863 446.24988584 -0.18120014 452.73082542 -0.18312836 C455.20157163 -0.18615649 457.67231695 -0.19419036 460.14303017 -0.20731354 C463.59979846 -0.22436344 467.0560699 -0.22249607 470.51286316 -0.21600342 C471.53386108 -0.2252182 472.55485901 -0.23443298 473.60679626 -0.243927 C479.89172722 -0.20693892 484.48170164 0.4229978 489.29093933 4.85919189 C489.76918152 5.44700439 490.24742371 6.03481689 490.74015808 6.64044189 C491.23129089 7.22825439 491.72242371 7.81606689 492.22843933 8.42169189 C495.08425764 12.51472139 494.58932634 17.02680844 494.60466003 21.79937744 C494.61451683 23.12675179 494.61451683 23.12675179 494.62457275 24.48094177 C494.64430177 27.41301559 494.65596851 30.34503816 494.66593933 33.27716064 C494.67001486 34.27941996 494.67409039 35.28167927 494.67828941 36.31431007 C494.6991501 41.62085387 494.71345091 46.92737182 494.7228241 52.23394775 C494.73387854 57.70711435 494.76826749 63.17987326 494.8079958 68.65289593 C494.83418112 72.86776978 494.84251773 77.08254686 494.84610558 81.29749489 C494.85096785 83.31444865 494.86257156 85.3313982 494.88114357 87.34827232 C494.90557184 90.17735142 494.90456302 93.00538073 494.89762878 95.83453369 C494.91043884 96.66132629 494.9232489 97.4881189 494.93644714 98.33996582 C494.88554945 104.06291186 493.57080785 108.32926639 490.42765808 113.14044189 C488.49797058 114.98028564 488.49797058 114.98028564 486.55265808 116.07794189 C485.91586121 116.45821533 485.27906433 116.83848877 484.62297058 117.23028564 C478.56359886 119.7424451 471.98765961 119.25961874 465.55265808 119.20294189 C464.57812683 119.19843018 463.60359558 119.19391846 462.59953308 119.18927002 C460.20884375 119.17755095 457.81828369 119.16114409 455.42765808 119.14044189 C455.43134525 119.86489754 455.43503242 120.58935318 455.43883133 121.33576202 C455.52724869 138.980285 455.5933999 156.62475156 455.63490677 174.26944733 C455.65551378 182.80237291 455.68359867 191.33515042 455.72941589 199.86798096 C455.7693408 207.30700644 455.79510442 214.74592466 455.80401206 222.1850543 C455.80921729 226.12243144 455.82141225 230.05950178 455.85057831 233.9967804 C455.87783704 237.70682575 455.88608219 241.41643948 455.88008881 245.12657547 C455.88170467 247.12896495 455.90317256 249.131308 455.92533875 251.13357544 C455.89050539 258.7722241 455.46921593 264.81436049 450.01561356 270.65189362 C444.69469006 275.4080705 439.85782376 276.43924957 432.91696167 276.38095093 C432.16948302 276.38265978 431.42200436 276.38436863 430.65187484 276.38612926 C428.15215172 276.38941834 425.65269819 276.37843014 423.15299988 276.36749268 C421.35918179 276.36692844 419.56536323 276.36724537 417.77154541 276.36837769 C412.90418767 276.3689517 408.03692842 276.35718946 403.16959357 276.34322977 C398.08202091 276.33073057 392.994446 276.32955255 387.90686035 276.32717896 C378.27386197 276.32096181 368.64090897 276.30454779 359.00793058 276.28447998 C348.04067777 276.2621283 337.0734228 276.25112938 326.10615289 276.24108911 C303.54662367 276.22018179 280.98715665 276.18350259 258.42765808 276.14044189 C258.42765808 301.88044189 258.42765808 327.62044189 258.42765808 354.14044189 C279.0400516 353.94301037 279.0400516 353.94301037 299.65177917 353.69000244 C302.25154084 353.67538816 304.851314 353.66264973 307.45109558 353.65216064 C308.11332123 353.63909378 308.77554687 353.62602692 309.45783997 353.61256409 C318.0539404 353.45165996 325.49559938 353.60240417 332.42765808 359.14044189 C337.64207308 366.23840367 338.14156248 373.3555819 338.04289246 381.89874268 C338.04844147 383.13580963 338.05399048 384.37287659 338.05970764 385.64743042 C338.06943561 389.01148072 338.05700977 392.37396996 338.03342247 395.73785257 C338.01317441 399.27348274 338.01920007 402.80908314 338.02153015 406.34475708 C338.02147674 412.27760323 338.00181512 418.21012916 337.96965027 424.1428833 C337.93273042 430.98561988 337.92398112 437.82793803 337.93094778 444.67076123 C337.93726854 451.27773525 337.92647169 457.88456702 337.90698242 464.4915123 C337.89884367 467.29275426 337.89609231 470.09392316 337.89767456 472.89517593 C337.89872253 476.81058115 337.87446222 480.72561265 337.84757996 484.64093018 C337.85051056 485.79335205 337.85344116 486.94577393 337.85646057 488.13311768 C337.71483605 501.52913816 337.71483605 501.52913816 333.04673004 506.65753365 C327.89032455 511.15583229 324.2519666 512.38945413 317.47068787 512.41459656 C316.77054369 512.41983324 316.07039951 512.42506992 315.34903884 512.43046528 C313.00311713 512.44546611 310.65741352 512.44617045 308.31144714 512.44683838 C306.6292738 512.45445991 304.94710395 512.4628874 303.26493835 512.47206116 C298.69452918 512.49401598 294.12418692 512.50280659 289.55373096 512.5078876 C286.69726327 512.51153057 283.84081312 512.51777038 280.98435211 512.52488899 C271.015902 512.54938868 261.04750395 512.56243613 251.07902527 512.565979 C241.79268436 512.56961279 232.50667426 512.59949559 223.22043443 512.64138359 C215.24406244 512.67609939 207.2678 512.69152768 199.29135299 512.69222504 C194.52907574 512.69301753 189.7671353 512.70174314 185.00493622 512.7302227 C180.52323099 512.75642488 176.04214124 512.75859669 171.56039429 512.74256706 C169.9189291 512.74075417 168.27742836 512.74742898 166.63603973 512.76338577 C150.33194852 512.91217451 150.33194852 512.91217451 144.42765808 507.14044189 C140.37375515 502.04707668 139.31208939 498.24576341 139.27375793 491.86734009 C139.26515747 490.79928131 139.25655701 489.73122253 139.24769592 488.63079834 C139.241306 486.88059387 139.241306 486.88059387 139.23478699 485.09503174 C139.22252075 483.24556442 139.22252075 483.24556442 139.21000671 481.35873413 C139.18516807 477.27295249 139.16848266 473.18720781 139.15422058 469.10137939 C139.1488579 467.69125996 139.14348039 466.28114059 139.13808823 464.87102127 C139.11646617 459.00157495 139.09773279 453.1321313 139.08646584 447.26265526 C139.0702475 438.87086098 139.03711413 430.47953119 138.98006499 422.08791196 C138.94126028 416.176896 138.92182062 410.26600369 138.91654527 404.35486376 C138.9129054 400.82988408 138.90103189 397.30540048 138.86844254 393.78055954 C138.83254024 389.84097712 138.8367595 385.90196919 138.84416199 381.96221924 C138.82775665 380.80756165 138.81135132 379.65290405 138.79444885 378.46325684 C138.85068301 371.12864814 140.00197618 365.15370414 144.42765808 359.14044189 C151.9054962 353.1675625 160.22779613 353.47109383 169.40422058 353.65216064 C170.65227478 353.65719604 171.90032898 353.66223145 173.186203 353.66741943 C177.80859136 353.69340369 182.43064996 353.76320949 187.05265808 353.82794189 C202.58328308 353.98262939 202.58328308 353.98262939 218.42765808 354.14044189 C218.42765808 328.40044189 218.42765808 302.66044189 218.42765808 276.14044189 C212.9562323 276.16138916 207.48480652 276.18233643 201.84757996 276.20391846 C183.78261661 276.27015765 165.71764852 276.31456884 147.65259552 276.34769058 C136.6983216 276.36830907 125.7441628 276.39641616 114.78996277 276.44219971 C105.24142902 276.48208916 95.69297864 276.50787989 86.14436388 276.51679587 C81.08918975 276.52200702 76.03425413 276.53424045 70.97915649 276.56336212 C66.21854313 276.59056444 61.45826595 276.59887712 56.69758224 276.59287262 C54.95291185 276.5939707 53.20822991 276.60189587 51.46362686 276.61726379 C33.33514026 276.76908674 33.33514026 276.76908674 26.93054962 270.72839737 C22.58490545 265.91736073 21.17587939 261.52128984 21.18714905 255.14830017 C21.18439972 253.94661697 21.18165039 252.74493378 21.17881775 251.50683594 C21.1860083 250.19700745 21.19319885 248.88717896 21.2006073 247.53765869 C21.20117173 246.13792428 21.20085423 244.73818927 21.19972229 243.3384552 C21.19914902 239.54543176 21.2108992 235.75253509 21.2248702 231.95954108 C21.23738178 227.99305856 21.2385484 224.02657306 21.24092102 220.06007385 C21.24713453 212.5520273 21.26354361 205.04403907 21.28362 197.53601819 C21.30598301 188.98710091 21.31697344 180.43818083 21.32701087 171.88924158 C21.34790995 154.30627463 21.38308342 136.72336443 21.42765808 119.14044189 C20.83340027 119.15091553 20.23914246 119.16138916 19.62687683 119.17218018 C16.89384819 119.21415321 14.16088771 119.23989769 11.42765808 119.26544189 C10.49308777 119.28219971 9.55851746 119.29895752 8.59562683 119.31622314 C0.36208096 119.37380039 -7.07927136 118.74809374 -13.57234192 113.14044189 C-17.36300476 107.56362501 -18.15184177 102.4967959 -18.0740509 95.88214111 C-18.07945389 94.99328217 -18.08485687 94.10442322 -18.09042358 93.18862915 C-18.10285035 90.27378225 -18.08646295 87.35993465 -18.06843567 84.44512939 C-18.06859077 82.40827381 -18.07008159 80.37141793 -18.07284546 78.33456421 C-18.07422665 74.07620111 -18.06171599 69.81817598 -18.03889465 65.55987549 C-18.01047489 60.10796574 -18.013261 54.65661563 -18.02598476 49.20466423 C-18.03294576 45.0027083 -18.02514841 40.80088127 -18.01272774 36.5989418 C-18.00821989 34.58874125 -18.0078706 32.57852683 -18.01179314 30.56832504 C-18.01471037 27.75858005 -17.99817499 24.94960161 -17.97639465 22.13995361 C-17.9808963 21.31382568 -17.98539795 20.48769775 -17.99003601 19.63653564 C-17.91638298 13.90477983 -16.87195934 9.63343624 -12.85359192 5.27716064 C-12.26577942 4.79891846 -11.67796692 4.32067627 -11.07234192 3.82794189 C-10.48452942 3.33680908 -9.89671692 2.84567627 -9.29109192 2.33966064 C-6.25485446 0.22119496 -3.5834652 0.01307336 0 0 Z " fill="currentColor" transform="translate(17.572341918945313,-0.14044189453125)"/>
</svg>
