<?xml version="1.0" encoding="UTF-8"?>
<svg version="1.1" xmlns="http://www.w3.org/2000/svg" height="512.000000pt" viewBox="0 0 200.000000 212.000000"
 preserveAspectRatio="xMidYMid meet">
<path d="M0 0 C0.92515915 -0.01286545 1.8503183 -0.0257309 2.80351257 -0.03898621 C3.82168564 -0.04279297 4.8398587 -0.04659973 5.8888855 -0.05052185 C6.95897354 -0.06205795 8.02906158 -0.07359406 9.13157654 -0.08547974 C12.68594797 -0.11990072 16.24014534 -0.13831409 19.79464722 -0.15379333 C21.00744228 -0.16069624 22.22023735 -0.16759914 23.46978378 -0.17471123 C29.89154957 -0.21059791 36.31322691 -0.23410858 42.7350769 -0.24778748 C49.36656057 -0.26431978 55.99697493 -0.32270912 62.62809944 -0.39093113 C67.72742174 -0.43573956 72.82648876 -0.44928398 77.92599106 -0.45440483 C80.37002014 -0.46229796 82.81404094 -0.48194169 85.25787735 -0.51362801 C88.68389728 -0.55510811 92.10723128 -0.55222998 95.53341675 -0.5388031 C96.53944443 -0.56082794 97.54547211 -0.58285278 98.58198547 -0.60554504 C105.0953148 -0.51903301 108.37345099 0.9249697 112.98986721 5.5495491 C113.78655363 6.40989069 113.78655363 6.40989069 114.59933472 7.28761292 C115.43907837 8.08465637 116.27882202 8.88169983 117.14401245 9.70289612 C117.84985474 10.40761047 118.55569702 11.11232483 119.28292847 11.83839417 C120.06474487 12.61892151 120.84656128 13.39944885 121.65206909 14.20362854 C122.43904175 14.99446838 123.2260144 15.78530823 124.03683472 16.60011292 C124.85087769 17.4102887 125.66492065 18.22046448 126.50363159 19.05519104 C127.66282104 20.21631409 127.66282104 20.21631409 128.84542847 21.40089417 C129.54337524 22.09996887 130.24132202 22.79904358 130.9604187 23.51930237 C133.92269079 26.71544965 133.7266009 28.98081238 133.73304749 33.24720764 C133.73944496 35.15280205 133.73944496 35.15280205 133.74597168 37.09689331 C133.74562214 38.51268008 133.74516059 39.92846683 133.74459839 41.34425354 C133.74758912 42.82897018 133.75099145 44.31368605 133.754776 45.79840088 C133.7636279 49.83754826 133.76595458 53.87667447 133.76659179 57.91583061 C133.7675398 61.28336452 133.77121676 64.65089346 133.77476388 68.01842546 C133.7829126 75.95988242 133.7853477 83.90132804 133.78463745 91.8427887 C133.78403621 100.04641176 133.79459623 108.24996917 133.81038111 116.45357561 C133.82343608 123.48798703 133.82882223 130.52237692 133.82818204 137.55680037 C133.82792649 141.76212336 133.83080888 145.967388 133.84136009 150.17269897 C133.85100704 154.12562498 133.85114383 158.07843642 133.84384346 162.03136635 C133.84279343 163.48505634 133.84518513 164.93875335 133.85120392 166.39243126 C133.8588675 168.370946 133.85310538 170.34949939 133.84657288 172.32801819 C133.84711764 173.43710289 133.84766241 174.54618759 133.84822369 175.68888092 C133.59933472 178.28761292 133.59933472 178.28761292 131.59933472 180.28761292 C129.23486328 180.5392952 129.23486328 180.5392952 126.209198 180.5415802 C125.06501404 180.54721985 123.92083008 180.5528595 122.74197388 180.55867004 C121.48060608 180.55462158 120.21923828 180.55057312 118.91964722 180.54640198 C117.58271087 180.54911094 116.24577601 180.55267134 114.90884399 180.55702209 C111.27254343 180.56615967 107.63635602 180.56259626 104.00005341 180.55626392 C100.19997343 180.55121098 96.39990334 180.5558934 92.599823 180.55903625 C86.21748103 180.56267797 79.8351853 180.55787144 73.45285034 180.5483551 C66.06719062 180.53747014 58.68164131 180.54099558 51.29598427 180.55200791 C44.96219752 180.56107497 38.62844407 180.56236893 32.29465294 180.55713058 C28.50852015 180.55400766 24.7224393 180.55361031 20.93630981 180.56020355 C17.37734034 180.56596796 13.81851363 180.56199688 10.25955963 180.55041504 C8.32527362 180.54649569 6.39097558 180.55246182 4.45669556 180.55867004 C3.3125116 180.5530304 2.16832764 180.54739075 0.98947144 180.5415802 C-0.00899811 180.54082615 -1.00746765 180.5400721 -2.03619385 180.5392952 C-4.40066528 180.28761292 -4.40066528 180.28761292 -6.40066528 178.28761292 C-6.65234756 175.29844666 -6.65234756 175.29844666 -6.65463257 171.37892151 C-6.65775255 170.65991858 -6.66087253 169.94091564 -6.66408706 169.20012474 C-6.67209657 166.77868448 -6.66573205 164.35749277 -6.65945435 161.93605042 C-6.6621629 160.20503085 -6.66572307 158.47401243 -6.67007446 156.74299622 C-6.67921687 152.03235821 -6.67564661 147.3218075 -6.66931629 142.61116791 C-6.66426585 137.68999998 -6.66894507 132.76883972 -6.67208862 127.84767151 C-6.67573107 119.58219557 -6.67092189 111.31675532 -6.66140747 103.05128479 C-6.65052239 93.4843707 -6.65404777 83.91754183 -6.66506028 74.35062981 C-6.67412525 66.14849554 -6.67542232 57.946387 -6.67018294 49.74424934 C-6.66705888 44.84029365 -6.66666582 39.93637807 -6.67325592 35.03242493 C-6.67901728 30.42287439 -6.67505478 25.81343414 -6.66346741 21.20389557 C-6.66081432 19.50832554 -6.6615969 17.81274628 -6.66599274 16.11717987 C-6.6714242 13.81009442 -6.66464364 11.50336672 -6.65463257 9.19630432 C-6.65387852 7.90286102 -6.65312447 6.60941772 -6.65234756 5.27677917 C-6.24659585 0.45776954 -4.37578546 0.03933476 0 0 Z M3.59933472 10.28761292 C3.59933472 63.08761292 3.59933472 115.88761292 3.59933472 170.28761292 C43.19933472 170.28761292 82.79933472 170.28761292 123.59933472 170.28761292 C123.59933472 127.38761292 123.59933472 84.48761292 123.59933472 40.28761292 C109.73933472 39.79261292 109.73933472 39.79261292 95.59933472 39.28761292 C88.74773312 32.43601132 93.94517237 19.97106711 93.59933472 10.28761292 C63.89933472 10.28761292 34.19933472 10.28761292 3.59933472 10.28761292 Z M103.59933472 13.28761292 C103.59933472 18.89761292 103.59933472 24.50761292 103.59933472 30.28761292 C109.20933472 30.28761292 114.81933472 30.28761292 120.59933472 30.28761292 C115.62772254 24.26934554 110.30104229 18.6242394 104.59933472 13.28761292 C104.26933472 13.28761292 103.93933472 13.28761292 103.59933472 13.28761292 Z " fill="#000000" transform="translate(36.400665283203125,9.712387084960938)"/>
<path d="M0 0 C1.53482787 3.06965574 1.56961275 4.55858966 1 8 C-1.3572032 11.11487565 -4.15076487 13.71346786 -7 16.375 C-7.763125 17.11105469 -8.52625 17.84710938 -9.3125 18.60546875 C-11.19554387 20.41789848 -13.09111959 22.21486682 -15 24 C-13.71009024 26.88992373 -12.43767028 28.75744552 -10.03125 30.8046875 C-9.46019531 31.30613281 -8.88914063 31.80757812 -8.30078125 32.32421875 C-7.10411503 33.35475343 -5.90360202 34.38083863 -4.69921875 35.40234375 C-1.05336041 38.62024581 1.04671972 41.037335 2 46 C1 48.375 1 48.375 -1 50 C-3.6015625 50.6015625 -3.6015625 50.6015625 -7 50 C-10.11318985 47.64024799 -12.71327821 44.84943815 -15.375 42 C-16.11105469 41.236875 -16.84710938 40.47375 -17.60546875 39.6875 C-19.41789848 37.80445613 -21.21486682 35.90888041 -23 34 C-26.03999336 35.34697885 -28.00266578 36.81164992 -30.2421875 39.2578125 C-30.83386719 39.88300781 -31.42554687 40.50820312 -32.03515625 41.15234375 C-33.26200422 42.467754 -34.48079604 43.79072425 -35.69140625 45.12109375 C-40.22441884 49.87043232 -40.22441884 49.87043232 -44.3203125 50.5546875 C-47 50 -47 50 -49 48 C-49.625 45.3984375 -49.625 45.3984375 -49 42 C-46.63872171 38.88782298 -43.84955917 36.28683483 -41 33.625 C-40.236875 32.88894531 -39.47375 32.15289062 -38.6875 31.39453125 C-36.80445613 29.58210152 -34.90888041 27.78513318 -33 26 C-34.34697885 22.96000664 -35.81164992 20.99733422 -38.2578125 18.7578125 C-39.19560547 17.87029297 -39.19560547 17.87029297 -40.15234375 16.96484375 C-41.467754 15.73799578 -42.79072425 14.51920396 -44.12109375 13.30859375 C-48.87043232 8.77558116 -48.87043232 8.77558116 -49.5546875 4.6796875 C-49 2 -49 2 -47 0 C-44.3984375 -0.625 -44.3984375 -0.625 -41 0 C-37.88782298 2.36127829 -35.28683483 5.15044083 -32.625 8 C-31.88894531 8.763125 -31.15289062 9.52625 -30.39453125 10.3125 C-28.58210152 12.19554387 -26.78513318 14.09111959 -25 16 C-21.97503419 14.64937713 -19.9194306 13.14970763 -17.6171875 10.77734375 C-16.70259766 9.84631836 -16.70259766 9.84631836 -15.76953125 8.89648438 C-15.14433594 8.25001953 -14.51914063 7.60355469 -13.875 6.9375 C-12.62463926 5.6527607 -11.37213484 4.37010319 -10.1171875 3.08984375 C-9.29130127 2.23700806 -9.29130127 2.23700806 -8.44873047 1.36694336 C-5.52726685 -1.38959099 -3.7378907 -1.05427686 0 0 Z " fill="#000000" transform="translate(124,85)"/>
</svg>
