<?xml version="1.0" encoding="UTF-8"?>
<svg version="1.1" xmlns="http://www.w3.org/2000/svg" width="512" height="512"  viewBox="0 0 512.000000 512.000000">
<path d="M0 0 C0.70014418 -0.00523668 1.40028836 -0.01047336 2.12164903 -0.01586872 C4.46757074 -0.03086955 6.81327434 -0.03157389 9.15924072 -0.03224182 C10.84141406 -0.03986336 12.52358392 -0.04829084 14.20574951 -0.0574646 C18.77615869 -0.07941942 23.34650095 -0.08821003 27.9169569 -0.09329104 C30.77342459 -0.09693401 33.62987475 -0.10317382 36.48633575 -0.11029243 C46.45478587 -0.13479212 56.42318392 -0.14783957 66.3916626 -0.15138245 C75.67800351 -0.15501624 84.96401361 -0.18489903 94.25025344 -0.22678703 C102.22662542 -0.26150283 110.20288787 -0.27693113 118.17933488 -0.27762848 C122.94161213 -0.27842097 127.70355257 -0.28714658 132.46575165 -0.31562614 C136.94745688 -0.34182832 141.42854662 -0.34400013 145.91029358 -0.3279705 C147.55175876 -0.32615761 149.19325951 -0.33283242 150.83464813 -0.34878922 C167.13873934 -0.49757796 167.13873934 -0.49757796 173.04302979 5.27415466 C177.09693271 10.36751988 178.15859847 14.16883314 178.19692993 20.54725647 C178.2055304 21.61531525 178.21413086 22.68337402 178.22299194 23.78379822 C178.22938187 25.53400269 178.22938187 25.53400269 178.23590088 27.31956482 C178.24407837 28.55254303 178.25225586 29.78552124 178.26068115 31.05586243 C178.28551979 35.14164407 178.30220521 39.22738874 178.31646729 43.31321716 C178.32182996 44.72333659 178.32720748 46.13345597 178.33259964 47.54357529 C178.35422169 53.41302161 178.37295507 59.28246526 178.38422203 65.1519413 C178.40044037 73.54373557 178.43357373 81.93506537 178.49062288 90.32668459 C178.52942758 96.23770056 178.54886725 102.14859286 178.55414259 108.05973279 C178.55778247 111.58471248 178.56965597 115.10919608 178.60224533 118.63403702 C178.63814762 122.57361944 178.63392837 126.51262737 178.62652588 130.45237732 C178.64293121 131.60703491 178.65933655 132.7616925 178.67623901 133.95133972 C178.62000486 141.28594842 177.46871169 147.26089241 173.04302979 153.27415466 C165.56519167 159.24703406 157.24289173 158.94350273 148.06646729 158.76243591 C146.81841309 158.75740051 145.57035889 158.75236511 144.28448486 158.74717712 C139.6620965 158.72119287 135.0400379 158.65138707 130.41802979 158.58665466 C120.06427979 158.48352966 109.71052979 158.38040466 99.04302979 158.27415466 C99.04302979 184.01415466 99.04302979 209.75415466 99.04302979 236.27415466 C107.25016846 236.24273376 107.25016846 236.24273376 115.62310791 236.2106781 C133.68807126 236.14443891 151.75303935 236.10002771 169.81809235 236.06690598 C180.77236626 236.04628748 191.72652507 236.0181804 202.6807251 235.97239685 C212.22925885 235.93250739 221.77770923 235.90671667 231.32632399 235.89780068 C236.38149812 235.89258954 241.43643374 235.88035611 246.49153137 235.85123444 C251.25214474 235.82403211 256.01242192 235.81571944 260.77310562 235.82172394 C262.51777601 235.82062586 264.26245795 235.81270069 266.007061 235.79733276 C284.1355476 235.64550982 284.1355476 235.64550982 290.54013824 241.68619919 C294.88578242 246.49723583 296.29480847 250.89330671 296.28353882 257.26629639 C296.28766281 259.06882118 296.28766281 259.06882118 296.29187012 260.90776062 C296.28467957 262.21758911 296.27748901 263.5274176 296.27008057 264.87693787 C296.26951614 266.27667228 296.26983363 267.67640729 296.27096558 269.07614136 C296.27153885 272.8691648 296.25978867 276.66206147 296.24581766 280.45505548 C296.23330608 284.421538 296.23213946 288.3880235 296.22976685 292.35452271 C296.22355334 299.86256925 296.20714426 307.37055748 296.18706787 314.87857836 C296.16470486 323.42749565 296.15371442 331.97641573 296.143677 340.52535498 C296.12277792 358.10832193 296.08760444 375.69123213 296.04302979 393.27415466 C296.6372876 393.26368103 297.23154541 393.2532074 297.84381104 393.24241638 C300.57683967 393.20044335 303.30980015 393.17469887 306.04302979 393.14915466 C306.9776001 393.13239685 307.91217041 393.11563904 308.87506104 393.09837341 C317.10860691 393.04079617 324.54995922 393.66650281 331.04302979 399.27415466 C334.83369263 404.85097154 335.62252964 409.91780066 335.54473877 416.53245544 C335.55014175 417.42131439 335.55554474 418.31017334 335.56111145 419.22596741 C335.57353821 422.14081431 335.55715081 425.05466191 335.53912354 427.96946716 C335.53927864 430.00632275 335.54076946 432.04317863 335.54353333 434.08003235 C335.54491451 438.33839545 335.53240386 442.59642058 335.50958252 446.85472107 C335.48116275 452.30663081 335.48394887 457.75798093 335.49667263 463.20993233 C335.50363362 467.41188825 335.49583628 471.61371529 335.4834156 475.81565475 C335.47890776 477.82585531 335.47855846 479.83606973 335.482481 481.84627151 C335.48539824 484.65601651 335.46886286 487.46499494 335.44708252 490.27464294 C335.45158417 491.10077087 335.45608582 491.9268988 335.46072388 492.77806091 C335.38707085 498.50981673 334.34264721 502.78116032 330.32427979 507.13743591 C329.73646729 507.6156781 329.14865479 508.09392029 328.54302979 508.58665466 C327.95521729 509.07778748 327.36740479 509.56892029 326.76177979 510.07493591 C323.72554232 512.1934016 321.05415306 512.4015232 317.47068787 512.41459656 C316.06393044 512.42316177 316.06393044 512.42316177 314.62875366 512.43190002 C313.08814774 512.43357681 313.08814774 512.43357681 311.51641846 512.43528748 C310.43321823 512.44025238 309.35001801 512.44521729 308.23399353 512.45033264 C304.64298878 512.46496299 301.05202821 512.47175774 297.46099854 512.47727966 C294.96859231 512.48303038 292.4761861 512.48878813 289.98377991 512.49455261 C285.42276714 512.50372095 280.86176707 512.51002026 276.30074614 512.51304936 C270.26123946 512.51708273 264.22188826 512.52935824 258.18243408 512.55540466 C251.70155132 512.58292518 245.22080203 512.5957967 238.73986244 512.59772491 C236.26911623 512.60075304 233.79837091 512.60878692 231.3276577 512.6219101 C227.87088941 512.63895999 224.41461796 512.63709263 220.95782471 512.63059998 C219.42632782 512.64442215 219.42632782 512.64442215 217.8638916 512.65852356 C211.57896065 512.62153548 206.98898622 511.99159876 202.17974854 507.55540466 C201.70150635 506.96759216 201.22326416 506.37977966 200.73052979 505.77415466 C200.23939697 505.18634216 199.74826416 504.59852966 199.24224854 503.99290466 C196.37903043 499.88926959 196.88826244 495.36704114 196.88189697 490.58348083 C196.87693207 489.69535202 196.87196716 488.80722321 196.86685181 487.8921814 C196.85223245 484.95048755 196.84542841 482.00884764 196.83990479 479.06712341 C196.83415298 477.02312214 196.82839525 474.97912087 196.82263184 472.93511963 C196.81212237 468.6470057 196.8062794 464.35891052 196.80279541 460.07078552 C196.797312 454.579561 196.77328693 449.08858459 196.74482346 443.59743786 C196.72618749 439.37406697 196.72099095 435.15075572 196.71945953 430.92734718 C196.71643445 428.90317237 196.70841081 426.87899857 196.69527435 424.85486412 C196.67819462 422.02072219 196.68009892 419.18718479 196.68658447 416.35301208 C196.67736969 415.51902893 196.66815491 414.68504578 196.65866089 413.82579041 C196.70426289 407.45515767 198.17064225 403.38659188 202.48052979 398.52415466 C215.69980492 386.91698625 244.25773133 393.27415466 256.04302979 393.27415466 C256.04302979 354.66415466 256.04302979 316.05415466 256.04302979 276.27415466 C204.23302979 276.27415466 152.42302979 276.27415466 99.04302979 276.27415466 C99.04302979 314.88415466 99.04302979 353.49415466 99.04302979 393.27415466 C112.57302979 393.27415466 126.10302979 393.27415466 140.04302979 393.27415466 C149.13167675 395.5463164 149.13167675 395.5463164 152.41802979 398.52415466 C153.06513916 399.08618591 153.71224854 399.64821716 154.37896729 400.22727966 C158.43491086 405.21628068 158.34042082 410.97566673 158.33355713 417.09007263 C158.34027435 417.9559198 158.34699158 418.82176697 158.35391235 419.71385193 C158.3728478 422.56474102 158.37681419 425.41539417 158.37896729 428.26634216 C158.38539793 430.25642492 158.39212649 432.24650673 158.3991394 434.23658752 C158.41110076 438.40424287 158.41482136 442.5718154 158.41363525 446.73948669 C158.41343205 452.06799367 158.44074138 457.39596742 158.47517967 462.72434807 C158.49746502 466.83371906 158.5014723 470.94296201 158.5004158 475.05238724 C158.50276901 477.0163011 158.5115767 478.98021865 158.52708054 480.94407272 C158.54677508 483.69623973 158.54088917 486.44726039 158.52886963 489.19944763 C158.54010864 490.00282562 158.55134766 490.80620361 158.56292725 491.63392639 C158.49421539 497.85560731 156.92295798 503.23272409 152.56030846 507.84002495 C148.33738393 511.50654411 145.16823431 512.39773814 139.71141052 512.41459656 C138.60528915 512.4203067 137.49916779 512.42601685 136.35952759 512.43190002 C135.1454422 512.43301788 133.93135681 512.43413574 132.68048096 512.43528748 C131.40220932 512.44025238 130.12393768 512.44521729 128.80693054 512.45033264 C125.29855327 512.46344911 121.79019513 512.46990018 118.28179717 512.4743433 C116.08919693 512.47727539 113.8966019 512.48138046 111.70400429 512.48584747 C104.84185726 512.49952074 97.97972218 512.50918809 91.11756247 512.51304936 C83.19999644 512.51752913 75.28260312 512.53507387 67.3650896 512.56404996 C61.24268942 512.58567747 55.1203378 512.59575422 48.99789983 512.59709048 C45.34239105 512.5981378 41.68704467 512.60402971 38.03157616 512.6219101 C33.9521985 512.64147584 29.87318161 512.63709757 25.79376221 512.63059998 C23.98174316 512.64442215 23.98174316 512.64442215 22.13311768 512.65852356 C11.81874881 512.60698643 11.81874881 512.60698643 7.04302979 509.27415466 C1.0092485 502.96611059 -0.25772292 498.11488983 -0.23162842 489.55589294 C-0.23673935 488.68858551 -0.24185028 487.82127808 -0.24711609 486.9276886 C-0.26099225 484.06654417 -0.26005667 481.2056412 -0.25775146 478.34446716 C-0.26163973 476.3505596 -0.26597467 474.35665286 -0.27073669 472.36274719 C-0.27819484 468.18491429 -0.27791073 464.0071659 -0.27264404 459.82933044 C-0.26685264 454.48396625 -0.28377452 449.13894891 -0.30698872 443.79364204 C-0.3217444 439.67573535 -0.3225952 435.55791182 -0.31947899 431.43998337 C-0.31999136 429.46967253 -0.32521335 427.49935694 -0.33529091 425.52907181 C-0.34767229 422.76955605 -0.34085322 420.01071103 -0.32928467 417.25120544 C-0.33692841 416.44266113 -0.34457214 415.63411682 -0.35244751 414.80107117 C-0.29759368 408.86023943 0.77122205 404.10960077 4.58599854 399.34837341 C5.12869385 398.89075623 5.67138916 398.43313904 6.23052979 397.96165466 C7.02523682 397.25589294 7.02523682 397.25589294 7.83599854 396.53587341 C21.32049527 388.82703723 51.19998947 393.27415466 59.04302979 393.27415466 C59.04302979 354.66415466 59.04302979 316.05415466 59.04302979 276.27415466 C7.23302979 276.27415466 -44.57697021 276.27415466 -97.95697021 276.27415466 C-97.95697021 314.88415466 -97.95697021 353.49415466 -97.95697021 393.27415466 C-84.42697021 393.27415466 -70.89697021 393.27415466 -56.95697021 393.27415466 C-45.57235483 396.12030851 -45.57235483 396.12030851 -41.70697021 401.27415466 C-38.81970492 406.22375231 -38.80326334 410.38433327 -38.7958374 415.96482849 C-38.7908725 416.85295731 -38.78590759 417.74108612 -38.78079224 418.65612793 C-38.76617288 421.59782178 -38.75936884 424.53946169 -38.75384521 427.48118591 C-38.74809341 429.52518719 -38.74233568 431.56918845 -38.73657227 433.6131897 C-38.7260628 437.90130362 -38.72021983 442.18939881 -38.71673584 446.4775238 C-38.71125243 451.96874833 -38.68722736 457.45972473 -38.65876389 462.95087147 C-38.64012792 467.17424236 -38.63493138 471.39755361 -38.63339996 475.62096214 C-38.63037488 477.64513696 -38.62235124 479.66931076 -38.60921478 481.69344521 C-38.59213505 484.52758713 -38.59403934 487.36112454 -38.6005249 490.19529724 C-38.58670273 491.44627197 -38.58670273 491.44627197 -38.57260132 492.72251892 C-38.61386923 498.48767604 -39.63192133 502.7535903 -43.67572021 507.13743591 C-44.26353271 507.6156781 -44.85134521 508.09392029 -45.45697021 508.58665466 C-46.04478271 509.07778748 -46.63259521 509.56892029 -47.23822021 510.07493591 C-50.27445768 512.1934016 -52.94584694 512.4015232 -56.52931213 512.41459656 C-57.93606956 512.42316177 -57.93606956 512.42316177 -59.37124634 512.43190002 C-60.91185226 512.43357681 -60.91185226 512.43357681 -62.48358154 512.43528748 C-63.56678177 512.44025238 -64.64998199 512.44521729 -65.76600647 512.45033264 C-69.35701122 512.46496299 -72.94797179 512.47175774 -76.53900146 512.47727966 C-79.03140769 512.48303038 -81.5238139 512.48878813 -84.01622009 512.49455261 C-88.57723286 512.50372095 -93.13823293 512.51002026 -97.69925386 512.51304936 C-103.73876054 512.51708273 -109.77811174 512.52935824 -115.81756592 512.55540466 C-122.29844868 512.58292518 -128.77919797 512.5957967 -135.26013756 512.59772491 C-137.73088377 512.60075304 -140.20162909 512.60878692 -142.6723423 512.6219101 C-146.12911059 512.63895999 -149.58538204 512.63709263 -153.04217529 512.63059998 C-154.57367218 512.64442215 -154.57367218 512.64442215 -156.1361084 512.65852356 C-162.42103935 512.62153548 -167.01101378 511.99159876 -171.82025146 507.55540466 C-172.29849365 506.96759216 -172.77673584 506.37977966 -173.26947021 505.77415466 C-173.76060303 505.18634216 -174.25173584 504.59852966 -174.75775146 503.99290466 C-177.61356977 499.89987517 -177.11863847 495.38778811 -177.13397217 490.61521912 C-177.14054337 489.73030289 -177.14711456 488.84538666 -177.15388489 487.93365479 C-177.1736139 485.00158096 -177.18528064 482.06955839 -177.19525146 479.13743591 C-177.19932699 478.1351766 -177.20340252 477.13291729 -177.20760155 476.10028648 C-177.22846224 470.79374269 -177.24276304 465.48722474 -177.25213623 460.1806488 C-177.26319067 454.70748221 -177.29757963 449.23472329 -177.33730793 443.76170063 C-177.36349326 439.54682678 -177.37182986 435.3320497 -177.37541771 431.11710167 C-177.38027998 429.1001479 -177.39188369 427.08319835 -177.4104557 425.06632423 C-177.43488398 422.23724513 -177.43387516 419.40921582 -177.42694092 416.58006287 C-177.43975098 415.75327026 -177.45256104 414.92647766 -177.46575928 414.07463074 C-177.41486158 408.3516847 -176.10011999 404.08533017 -172.95697021 399.27415466 C-171.02728271 397.43431091 -171.02728271 397.43431091 -169.08197021 396.33665466 C-168.44517334 395.95638123 -167.80837646 395.57610779 -167.15228271 395.18431091 C-161.09291099 392.67215146 -154.51697174 393.15497782 -148.08197021 393.21165466 C-147.10743896 393.21616638 -146.13290771 393.2206781 -145.12884521 393.22532654 C-142.73815588 393.2370456 -140.34759582 393.25345247 -137.95697021 393.27415466 C-137.96065739 392.54969902 -137.96434456 391.82524338 -137.96814346 391.07883453 C-138.05656082 373.43431155 -138.12271204 355.789845 -138.1642189 338.14514923 C-138.18482592 329.61222365 -138.2129108 321.07944613 -138.25872803 312.5466156 C-138.29865293 305.10759012 -138.32441656 297.6686719 -138.33332419 290.22954226 C-138.33852942 286.29216511 -138.35072438 282.35509477 -138.37989044 278.41781616 C-138.40714917 274.70777081 -138.41539432 270.99815707 -138.40940094 267.28802109 C-138.41101681 265.28563161 -138.4324847 263.28328856 -138.45465088 261.28102112 C-138.41981752 253.64237246 -137.99852806 247.60023607 -132.54492569 241.76270294 C-127.22400219 237.00652605 -122.3871359 235.97534699 -115.4462738 236.03364563 C-114.69879515 236.03193678 -113.9513165 236.03022793 -113.18118697 236.0284673 C-110.68146385 236.02517822 -108.18201033 236.03616642 -105.68231201 236.04710388 C-103.88849392 236.04766812 -102.09467537 236.04735119 -100.30085754 236.04621887 C-95.4334998 236.04564486 -90.56624055 236.0574071 -85.69890571 236.07136679 C-80.61133304 236.08386599 -75.52375814 236.08504401 -70.43617249 236.0874176 C-60.80317411 236.09363475 -51.1702211 236.11004876 -41.53724271 236.13011658 C-30.5699899 236.15246826 -19.60273494 236.16346718 -8.63546503 236.17350745 C13.9240642 236.19441477 36.48353122 236.23109397 59.04302979 236.27415466 C59.04302979 210.53415466 59.04302979 184.79415466 59.04302979 158.27415466 C38.43063626 158.47158619 38.43063626 158.47158619 17.81890869 158.72459412 C15.21914703 158.73920839 12.61937386 158.75194683 10.01959229 158.76243591 C9.02625381 158.78203621 9.02625381 158.78203621 8.0128479 158.80203247 C-0.58325253 158.96293659 -8.02491151 158.81219239 -14.95697021 153.27415466 C-20.17138521 146.17619289 -20.67087461 139.05901466 -20.57220459 130.51585388 C-20.5777536 129.27878693 -20.58330261 128.04171997 -20.58901978 126.76716614 C-20.59874774 123.40311583 -20.5863219 120.0406266 -20.5627346 116.67674398 C-20.54248655 113.14111382 -20.5485122 109.60551341 -20.55084229 106.06983948 C-20.55078888 100.13699333 -20.53112725 94.2044674 -20.4989624 88.27171326 C-20.46204256 81.42897668 -20.45329325 74.58665852 -20.46025991 67.74383533 C-20.46658067 61.13686131 -20.45578382 54.53002953 -20.43629456 47.92308426 C-20.42815581 45.1218423 -20.42540444 42.3206734 -20.42698669 39.51942062 C-20.42803466 35.6040154 -20.40377436 31.68898391 -20.37689209 27.77366638 C-20.37982269 26.62124451 -20.3827533 25.46882263 -20.38577271 24.28147888 C-20.24414819 10.8854584 -20.24414819 10.8854584 -15.57604218 5.75706291 C-10.41963669 1.25876426 -6.78127873 0.02514243 0 0 Z " fill="currentColor" transform="translate(176.95697021484375,-0.2741546630859375)"/>
</svg>
