<?xml version="1.0" encoding="UTF-8"?>
<svg version="1.1" xmlns="http://www.w3.org/2000/svg" width="512" height="512" fill="currentColor"  viewBox="0 0 512.000000 512.000000">
<path d="M0 0 C0.82221356 -0.00205263 1.64442713 -0.00410527 2.49155626 -0.0062201 C5.2705198 -0.01191342 8.04943414 -0.01042999 10.82840252 -0.00901413 C12.83136909 -0.01159643 14.83433514 -0.0146092 16.83730048 -0.01801753 C22.36010619 -0.02610663 27.88289893 -0.02787816 33.40570986 -0.028615 C39.35470628 -0.03046222 45.3036959 -0.03800785 51.25268841 -0.04475021 C64.94802787 -0.05905661 78.64336637 -0.06486168 92.33871159 -0.06944216 C99.10424267 -0.07177709 105.86977291 -0.07537961 112.63530333 -0.07913754 C135.78776439 -0.09197339 158.94022497 -0.10269289 182.09268951 -0.10614014 C183.54637066 -0.10636177 185.0000518 -0.10658355 186.45373295 -0.10680549 C187.91095281 -0.10702613 189.36817268 -0.10724661 190.82539254 -0.10746694 C193.74889648 -0.10790949 196.67240042 -0.10835661 199.59590435 -0.10880661 C200.68319485 -0.1089707 200.68319485 -0.1089707 201.79245082 -0.1091381 C225.30235659 -0.11276969 248.81223154 -0.12869342 272.3221255 -0.15199697 C297.16976473 -0.17658157 322.01738635 -0.19031232 346.8650381 -0.19150805 C349.59158242 -0.19167951 352.31812674 -0.19189494 355.04467106 -0.19214249 C356.0517217 -0.19222614 356.0517217 -0.19222614 357.0791168 -0.19231148 C367.89267019 -0.19346308 378.706192 -0.20449426 389.51973472 -0.21902954 C400.38437644 -0.23338122 411.24897565 -0.23638611 422.11362413 -0.22858956 C428.00187789 -0.22467246 433.89002518 -0.22566423 439.77826595 -0.23964691 C445.16510383 -0.25232229 450.55175454 -0.25124457 455.93859192 -0.2390562 C457.89081858 -0.23708813 459.84305821 -0.24022843 461.79526661 -0.24890056 C464.44294884 -0.25992057 467.08996206 -0.2525566 469.73762512 -0.24050903 C470.88226351 -0.25190182 470.88226351 -0.25190182 472.05002591 -0.26352477 C477.65976643 -0.20818223 481.79839945 1.00486698 485.92085552 4.88533401 C486.39909771 5.48216995 486.8773399 6.07900589 487.37007427 6.69392776 C487.86120708 7.29334183 488.3523399 7.89275589 488.85835552 8.51033401 C491.30675356 11.82005775 491.18946094 14.17392651 491.20474529 18.25392532 C491.21547825 20.21395493 491.21547825 20.21395493 491.22642803 22.21358109 C491.22926845 23.67024589 491.23198016 25.12691094 491.23457623 26.5835762 C491.24083976 28.11106395 491.24748646 29.63855016 491.25448895 31.1660347 C491.27190981 35.32320603 491.28245384 39.48036586 491.29069448 43.63756466 C491.29584275 46.23435987 491.30191858 48.8311515 491.3082056 51.42794418 C491.32726144 59.55124867 491.34149127 67.67454404 491.34981757 75.79786658 C491.3595899 85.17741709 491.38590758 94.5567316 491.42631847 103.93619895 C491.45647362 111.1838335 491.47128591 118.43140039 491.47459859 125.67909646 C491.47694993 130.00870872 491.48592097 134.33806897 491.51105976 138.66761398 C491.53433489 142.74211333 491.53857613 146.81619467 491.52829838 150.89074326 C491.52780275 152.38469203 491.53413117 153.87866133 491.54785442 155.37254715 C491.56556671 157.4152867 491.55608407 159.45820765 491.54532146 161.50099564 C491.54770982 162.64326488 491.55009817 163.78553413 491.5525589 164.9624176 C490.78378488 169.88429306 488.25270425 172.96859859 484.74507427 176.38142776 C478.24638088 180.61313509 471.62551634 180.38981224 464.12007427 180.25642776 C463.15005474 180.24740433 462.18003521 180.23838089 461.18062115 180.22908401 C458.8060102 180.20568883 456.43192652 180.17290953 454.05757427 180.13142776 C454.06033965 181.27848946 454.06310503 182.42555115 454.06595421 183.60737228 C454.13254969 211.51651417 454.18185007 239.42564575 454.21301079 267.33485031 C454.21607033 270.02160016 454.21919429 272.70834993 454.22236919 275.39509964 C454.22315613 276.06289887 454.22394306 276.73069809 454.22475383 277.41873366 C454.23780047 288.22538684 454.26145021 299.03199205 454.28903266 309.83861679 C454.31710754 320.93085213 454.33353045 332.02306793 454.33983976 343.11533785 C454.34375105 349.34417329 454.35294525 355.57289999 454.37476444 361.80170059 C454.3951381 367.66538853 454.40140622 373.528923 454.39689732 379.39264297 C454.39772211 381.5436677 454.40368242 383.69469759 454.4151907 385.84569168 C454.43014835 388.78581069 454.42651574 391.72535261 454.41833782 394.66548538 C454.42707635 395.51375507 454.43581487 396.36202476 454.4448182 397.23599958 C454.39388858 404.02482126 453.17000762 409.56225208 448.74507427 414.94392776 C443.62160871 419.11419044 439.52890185 420.50626985 432.93851185 420.5117445 C432.24175234 420.51640442 431.54499284 420.52106434 430.82711941 420.52586547 C428.49278539 420.53781467 426.1590335 420.52842064 423.82469463 420.51910782 C422.13404609 420.52328078 420.44340035 420.52875809 418.75275981 420.53542763 C414.10705984 420.549906 409.4615369 420.54563004 404.81582713 420.53826082 C399.80549078 420.53353734 394.79519319 420.54603175 389.78486919 420.55627823 C379.9691051 420.5734879 370.15340496 420.57430171 360.33762969 420.56906532 C352.36014525 420.56502629 344.38267973 420.56646401 336.40519619 420.57181358 C334.70303311 420.57293622 334.70303311 420.57293622 332.9664829 420.57408153 C330.66128795 420.57561298 328.356093 420.57715133 326.05089806 420.5786965 C304.42542666 420.59242947 282.79999142 420.58697832 261.17452084 420.57551128 C241.38623335 420.56557887 221.59803937 420.57851832 201.80976631 420.60244548 C181.49642507 420.62682266 161.18312741 420.63644769 140.86977184 420.62979275 C129.46327075 420.62629736 118.05684157 420.62855367 106.65035152 420.64604378 C96.93982325 420.66074851 87.22941753 420.66142385 77.51889171 420.64397287 C72.56398017 420.63544612 67.60928773 420.63335418 62.65438747 420.64862442 C58.1180611 420.66243165 53.58214233 420.6577595 49.04583977 420.63838518 C47.40524281 420.63461266 45.76461351 420.63758313 44.12404527 420.64799684 C26.80110896 420.75013259 26.80110896 420.75013259 19.68257427 413.81892776 C15.98591617 407.70522398 15.76948063 401.73826246 15.81706524 394.7857399 C15.81535639 393.8650432 15.81364754 392.94434649 15.81188691 391.99574989 C15.80860216 388.92183651 15.81957902 385.84814318 15.83052349 382.77425003 C15.83108782 380.56634908 15.83077061 378.35844776 15.82963848 376.15054703 C15.82906483 370.16351624 15.84082122 364.17656565 15.8547864 358.1895535 C15.86729164 351.93018707 15.8684641 345.67081879 15.87083721 339.4114418 C15.87634648 328.90769025 15.88883764 318.40396347 15.90669537 307.90022659 C15.92506604 297.08349631 15.93921673 286.26677402 15.94771099 275.45003128 C15.94849916 274.44915936 15.94849916 274.44915936 15.94930325 273.42806781 C15.95191341 270.08053034 15.95444081 266.73299281 15.95692706 263.38545525 C15.97783034 235.63409229 16.01300745 207.8827621 16.05757427 180.13142776 C15.17404278 180.15499344 15.17404278 180.15499344 14.27266216 180.17903519 C11.555234 180.24211977 8.83796066 180.28064767 6.12007427 180.31892776 C5.19388287 180.34406448 4.26769146 180.3692012 3.31343365 180.39509964 C-3.62618516 180.46814826 -10.5330918 179.90459974 -16.09867573 175.37752151 C-16.76383198 174.48226761 -16.76383198 174.48226761 -17.44242573 173.56892776 C-17.90648823 172.9695137 -18.37055073 172.37009964 -18.84867573 171.75252151 C-21.12385746 168.38037716 -21.07439766 166.06616893 -21.08959675 162.00893021 C-21.09675205 160.7022438 -21.10390736 159.3955574 -21.11127949 158.04927444 C-21.1141199 156.59260964 -21.11683162 155.13594459 -21.11942768 153.67927933 C-21.12569121 152.15179158 -21.13233791 150.62430537 -21.1393404 149.09682083 C-21.15676126 144.9396495 -21.16730529 140.78248967 -21.17554593 136.62529087 C-21.1806942 134.02849566 -21.18677004 131.43170403 -21.19305706 128.83491135 C-21.2121129 120.71160686 -21.22634272 112.58831149 -21.23466903 104.46498895 C-21.24444136 95.08543844 -21.27075903 85.70612393 -21.31116992 76.32665658 C-21.34132508 69.07902203 -21.35613736 61.83145514 -21.35945004 54.58375907 C-21.36180139 50.25414681 -21.37077242 45.92478656 -21.39591122 41.59524155 C-21.41918634 37.5207422 -21.42342759 33.44666086 -21.41314983 29.37211227 C-21.41265421 27.8781635 -21.41898263 26.3841942 -21.43270588 24.89030838 C-21.45041817 22.84756883 -21.44093553 20.80464788 -21.43017292 18.76185989 C-21.43256127 17.61959064 -21.43494963 16.4773214 -21.43741035 15.30043793 C-20.41093999 8.72872875 -16.0111932 4.90604184 -10.94242573 1.13142776 C-7.25011908 -0.09934112 -3.84468734 -0.00883382 0 0 Z M15.05757427 37.13142776 C15.05757427 72.11142776 15.05757427 107.09142776 15.05757427 143.13142776 C160.25757427 143.13142776 305.45757427 143.13142776 455.05757427 143.13142776 C455.05757427 108.15142776 455.05757427 73.17142776 455.05757427 37.13142776 C309.85757427 37.13142776 164.65757427 37.13142776 15.05757427 37.13142776 Z M53.05757427 180.13142776 C53.05757427 207.52142776 53.05757427 234.91142776 53.05757427 263.13142776 C107.17757427 263.13142776 161.29757427 263.13142776 217.05757427 263.13142776 C217.05757427 235.74142776 217.05757427 208.35142776 217.05757427 180.13142776 C162.93757427 180.13142776 108.81757427 180.13142776 53.05757427 180.13142776 Z M254.05757427 180.13142776 C254.05757427 207.52142776 254.05757427 234.91142776 254.05757427 263.13142776 C307.84757427 263.13142776 361.63757427 263.13142776 417.05757427 263.13142776 C417.05757427 235.74142776 417.05757427 208.35142776 417.05757427 180.13142776 C363.26757427 180.13142776 309.47757427 180.13142776 254.05757427 180.13142776 Z M53.05757427 300.13142776 C53.05757427 327.52142776 53.05757427 354.91142776 53.05757427 383.13142776 C107.17757427 383.13142776 161.29757427 383.13142776 217.05757427 383.13142776 C217.05757427 355.74142776 217.05757427 328.35142776 217.05757427 300.13142776 C162.93757427 300.13142776 108.81757427 300.13142776 53.05757427 300.13142776 Z M254.05757427 300.13142776 C254.05757427 327.52142776 254.05757427 354.91142776 254.05757427 383.13142776 C307.84757427 383.13142776 361.63757427 383.13142776 417.05757427 383.13142776 C417.05757427 355.74142776 417.05757427 328.35142776 417.05757427 300.13142776 C363.26757427 300.13142776 309.47757427 300.13142776 254.05757427 300.13142776 Z " fill="currentColor" transform="translate(20.94242572784424,45.86857223510742)"/>
<path d="M0 0 C1.07865829 -0.0098568 1.07865829 -0.0098568 2.17910767 -0.01991272 C4.55926625 -0.03962365 6.93936171 -0.05130506 9.31958008 -0.0612793 C10.13428583 -0.06535482 10.94899158 -0.06943035 11.78838539 -0.07362938 C16.10289887 -0.09448348 20.41738063 -0.10878648 24.73193359 -0.11816406 C29.17606249 -0.12921054 33.61968821 -0.16359161 38.06363964 -0.20333576 C41.49102166 -0.22955644 44.91828495 -0.23786084 48.34575844 -0.24144554 C49.9831309 -0.24629961 51.62049848 -0.25787982 53.25777245 -0.27648354 C69.2579708 -0.44694687 69.2579708 -0.44694687 75.90161133 4.17700195 C80.21987595 8.47506204 81.73121442 12.60539064 82.02661133 18.6887207 C81.73334245 24.52660435 79.93409606 28.5588743 75.65161133 32.55200195 C70.61461728 36.84543974 64.31243815 37.42674911 57.91577148 37.45166016 C57.25620956 37.45677109 56.59664764 37.46188202 55.917099 37.46714783 C53.75819572 37.48093491 51.59961563 37.48009525 49.44067383 37.4777832 C47.92524093 37.48167638 46.4098091 37.48601231 44.89437866 37.49076843 C41.72552954 37.49820745 38.55679187 37.49795646 35.38793945 37.49267578 C31.34763364 37.48688694 27.30778711 37.50380898 23.26755714 37.52702045 C20.13950987 37.54182638 17.01157144 37.54262018 13.88349533 37.53951073 C12.3949022 37.54002059 10.90630244 37.54519471 9.41774368 37.55532265 C-9.06804804 37.66566845 -9.06804804 37.66566845 -14.9624939 32.56343079 C-18.93082732 28.43611618 -21.04492367 24.03411999 -21.12573242 18.2043457 C-20.73443907 12.99713418 -19.11768403 9.42033597 -16.09838867 5.17700195 C-10.63459154 0.93977152 -6.81481316 0.05154249 0 0 Z " fill="currentColor" transform="translate(97.098388671875,134.822998046875)"/>
<path d="M0 0 C0.73046539 -0.0065712 1.46093079 -0.0131424 2.21353149 -0.01991272 C4.63096218 -0.03962253 7.04833078 -0.05130384 9.46582031 -0.0612793 C10.29280678 -0.06535482 11.11979324 -0.06943035 11.9718399 -0.07362938 C16.35003916 -0.09448142 20.72820716 -0.10878621 25.10644531 -0.11816406 C29.62017095 -0.12921966 34.13340242 -0.16361193 38.64695358 -0.20333576 C42.12490736 -0.2295292 45.60274393 -0.23785836 49.08078766 -0.24144554 C50.74410587 -0.24630539 52.40741905 -0.25790223 54.07064056 -0.27648354 C56.40425837 -0.30093147 58.73660483 -0.29990018 61.0703125 -0.29296875 C61.75108856 -0.30577881 62.43186462 -0.31858887 63.13327026 -0.33178711 C69.04714588 -0.26809723 73.19271874 1.7915722 77.53613281 5.7746582 C81.93680644 11.46518445 82.5434376 16.15051174 81.79394531 23.17700195 C80.14790894 28.42821582 77.5959991 32.33942472 72.79394531 35.17700195 C65.1568723 37.75054643 57.42068341 37.48647799 49.45410156 37.4777832 C47.96251813 37.48167769 46.4709358 37.48601389 44.97935486 37.49076843 C41.86355991 37.4981998 38.74787834 37.49796168 35.63208008 37.49267578 C31.66018139 37.48688214 27.68874917 37.50382432 23.71692753 37.52702045 C20.63949418 37.54182641 17.56217145 37.54262027 14.48470879 37.53951073 C13.02123528 37.5400204 11.557755 37.54519078 10.09431648 37.55532265 C-7.87029209 37.66446318 -7.87029209 37.66446318 -15.08105469 31.86450195 C-19.90388817 25.76503608 -21.09350505 20.82657408 -20.20605469 13.17700195 C-18.4258973 7.73181465 -14.81779369 4.39473803 -10.20605469 1.17700195 C-6.734299 0.01975006 -3.61208014 0.01409917 0 0 Z " fill="currentColor" transform="translate(225.2060546875,134.822998046875)"/>
<path d="M0 0 C1.09328865 -0.01226624 1.09328865 -0.01226624 2.20866394 -0.02478027 C4.62127877 -0.04959476 7.03383479 -0.06614239 9.4465332 -0.08056641 C10.27227152 -0.08589008 11.09800983 -0.09121376 11.94877052 -0.09669876 C16.32163184 -0.12341649 20.69446477 -0.14279355 25.06738281 -0.15722656 C28.67864391 -0.17055135 32.28933802 -0.19837828 35.90039062 -0.23925781 C40.26760206 -0.28869333 44.63430028 -0.3133611 49.00177956 -0.32045364 C50.66150325 -0.32714798 52.3212163 -0.3423226 53.98077965 -0.36634445 C69.63590917 -0.57997434 69.63590917 -0.57997434 75.43000793 3.81234741 C79.63407176 8.01859633 81.66665648 12.04550148 82.05981445 17.94287109 C81.95800661 22.9962424 80.72749135 27.0373428 77.2980957 30.89208984 C71.57554645 36.20312994 65.55374777 37.43744153 57.80810547 37.4675293 C57.14693726 37.47264023 56.48576904 37.47775116 55.80456543 37.48301697 C53.64085584 37.49680246 51.47746871 37.49596475 49.3137207 37.49365234 C47.79589217 37.49754514 46.27806472 37.501881 44.76023865 37.50663757 C41.5871934 37.51407588 38.41425947 37.51382578 35.24121094 37.50854492 C31.19183922 37.5027511 27.14292502 37.51969049 23.09362888 37.5428896 C19.96133294 37.55767998 16.82914589 37.5584915 13.69682121 37.55537987 C12.2046105 37.55589034 10.71239326 37.56107618 9.22021675 37.57119179 C0.13077422 37.62525893 -7.15339338 37.43880382 -15.00268555 32.38037109 C-19.35930825 28.02374839 -20.40290138 24.24705811 -20.62768555 18.19287109 C-20.45647429 12.17070118 -19.09226691 8.96613944 -14.6940918 4.76318359 C-9.80799901 0.449775 -6.36001929 0.06199497 0 0 Z " fill="currentColor" transform="translate(354.190185546875,134.80712890625)"/>
</svg>
