<?xml version="1.0" encoding="UTF-8"?>
<svg version="1.1" xmlns="http://www.w3.org/2000/svg" width="512" height="512"  viewBox="0 0 512.000000 512.000000"> 
<path d="M0 0 C1.51144347 -0.00373967 3.02288502 -0.00834246 4.53432351 -0.01373065 C8.67555064 -0.02593699 12.81669684 -0.02570297 16.95793784 -0.02334189 C21.42912956 -0.02293313 25.90029554 -0.03397865 30.37147522 -0.04345703 C39.1271633 -0.06005532 47.88282444 -0.06556606 56.63852694 -0.06668179 C63.75779415 -0.06763287 70.8770525 -0.07174619 77.99631691 -0.07808304 C98.19207553 -0.0956927 118.38781291 -0.10492241 138.58357926 -0.10342209 C139.67186801 -0.10334218 140.76015676 -0.10326227 141.88142395 -0.10317993 C142.97104552 -0.10309817 144.0606671 -0.10301641 145.18330751 -0.10293217 C162.83737025 -0.10211948 180.49134764 -0.12125365 198.1453857 -0.14945666 C216.28353687 -0.1782038 234.42164643 -0.19199593 252.55982095 -0.19026911 C262.73852761 -0.18960582 272.9171448 -0.1950716 283.09583092 -0.21662521 C291.76312842 -0.23486113 300.43029589 -0.23916459 309.0976043 -0.22560637 C313.51646789 -0.21908873 317.9350822 -0.21891579 322.35392189 -0.23631287 C326.40624441 -0.25210229 330.4581212 -0.24912061 334.51043323 -0.2317446 C335.96936797 -0.22868754 337.42833647 -0.23225786 338.88723137 -0.24346475 C356.39034091 -0.36891809 371.14624835 4.78851827 383.91145325 16.92758179 C394.62643052 27.91777251 401.51342605 41.49779743 401.38801575 57.04867554 C401.3837709 58.09710632 401.3837709 58.09710632 401.37944031 59.16671753 C401.36837595 61.3671387 401.3432993 63.56713047 401.31770325 65.76742554 C401.3076556 67.27262793 401.2985329 68.7778368 401.2903595 70.28305054 C401.26848218 73.94464492 401.23405021 77.60599322 401.19270325 81.26742554 C401.76770569 81.37627075 402.34270813 81.48511597 402.93513489 81.59725952 C417.72990219 84.60467516 429.68824434 93.72476352 438.595047 105.74789429 C445.85878862 117.20293914 448.49729769 127.96125529 448.46012878 141.30335999 C448.4646599 142.50158742 448.46919101 143.69981486 448.47385943 144.93435222 C448.48429692 148.24331453 448.48583491 151.55205873 448.48347068 154.86102188 C448.48306124 158.4365028 448.49411382 162.01195173 448.50358582 165.5874176 C448.52016985 172.58647358 448.5256942 179.58549585 448.52681057 186.58456983 C448.52776237 192.27696898 448.53187922 197.96935706 448.53821182 203.6617527 C448.55581786 219.81787287 448.5650518 235.97396651 448.56355087 252.13009634 C448.56343101 253.43545344 448.56343101 253.43545344 448.56330872 254.7671814 C448.56322695 255.63848809 448.56314519 256.50979479 448.56306095 257.40750472 C448.56224844 271.52115345 448.58137907 285.63469536 448.60958545 299.74831321 C448.63835116 314.25686606 448.65212369 328.76536689 448.6503979 343.27394897 C448.64973522 351.41263041 448.65517345 359.5511999 448.676754 367.68985558 C448.69501449 374.62059732 448.69927343 381.55117637 448.68573515 388.48193183 C448.67922965 392.01375158 448.67899973 395.54525964 448.69644165 399.07704926 C448.71520942 402.9170326 448.70255462 406.75656702 448.68717957 410.59657288 C448.69746669 411.69718778 448.70775382 412.79780268 448.71835268 413.93176955 C448.57945996 429.71333362 442.33775136 443.62363118 431.532547 454.98617554 C420.66629411 465.58031858 407.1642266 472.50732004 391.77904224 472.52469444 C391.07471954 472.52820052 390.37039683 472.53170659 389.64473101 472.53531891 C387.29677536 472.54458466 384.94907038 472.53972219 382.60110474 472.53485107 C380.8957959 472.53858977 379.19048879 472.54319217 377.48518437 472.54858172 C372.80808587 472.56080004 368.13105896 472.56055262 363.45394814 472.55819297 C358.40606533 472.5577845 353.35820538 472.5688268 348.31033325 472.57830811 C338.42366266 472.5949129 328.53701592 472.60041743 318.65033255 472.60153286 C310.61239667 472.60248362 302.57446865 472.60659532 294.53653526 472.61293411 C271.73991332 472.63054543 248.9433102 472.6397732 226.14668141 472.63827316 C224.91800387 472.63819325 223.68932633 472.63811334 222.42341614 472.63803101 C221.19323567 472.63794924 219.9630552 472.63786748 218.69559654 472.63778324 C198.76208741 472.63697047 178.82865388 472.65610627 158.89516661 472.68430774 C138.4201505 472.71304641 117.94517123 472.72684748 97.47013444 472.72512019 C85.97798514 472.72445661 74.48591507 472.72993493 62.99378395 472.75147629 C53.20842813 472.76970103 43.42318746 472.77402478 33.63782201 472.76045744 C28.64784369 472.75393425 23.65808619 472.75378721 18.66812897 472.77116394 C14.09400435 472.78692837 9.52027503 472.78399667 4.94615986 472.76659568 C3.29745542 472.76353319 1.64872123 472.76712966 0.00005189 472.77831583 C-18.04730815 472.89258985 -33.23190148 468.24932832 -46.52604675 455.60726929 C-59.94166623 441.84707054 -64.11791098 426.95891222 -64.07472229 408.19438171 C-64.0784618 406.65406468 -64.08306453 405.11374954 -64.08845294 403.57343739 C-64.10066125 399.35239968 -64.10042503 395.13144135 -64.09806418 390.91039002 C-64.09765547 386.35330816 -64.10870045 381.79625156 -64.11817932 377.23918152 C-64.13477868 368.31504924 -64.1402884 359.39094339 -64.14140408 350.46679697 C-64.14235511 343.21070677 -64.14646816 335.95462527 -64.15280533 328.69853783 C-64.17041526 308.11541659 -64.17964465 287.5323162 -64.17814438 266.94918738 C-64.17806447 265.83998966 -64.17798456 264.73079195 -64.17790222 263.58798218 C-64.17782046 262.4774263 -64.1777387 261.36687042 -64.17765446 260.22266134 C-64.17684175 242.22910664 -64.1959762 224.2356357 -64.22417895 206.24210522 C-64.25292469 187.75591035 -64.2667183 169.2697563 -64.2649914 150.78353852 C-64.26432806 140.40921281 -64.26979591 130.03497488 -64.2913475 119.66066933 C-64.30958158 110.82685257 -64.31388838 101.9931634 -64.30032866 93.15933595 C-64.2938101 88.65541288 -64.29364144 84.1517344 -64.31103516 79.64783478 C-64.32682045 75.51779732 -64.32384702 71.38819729 -64.30646689 67.25817015 C-64.30340894 65.77097184 -64.30698357 64.28374044 -64.31818704 62.79658119 C-64.44165879 45.23136119 -59.35412184 30.3853015 -47.1471405 17.54867554 C-33.48366167 4.22735394 -18.64851808 -0.0437596 0 0 Z M-17.80729675 46.26742554 C-22.85579017 52.65308748 -23.93057217 58.39616924 -23.93593121 66.48068047 C-23.93915565 67.71384841 -23.9423801 68.94701635 -23.94570225 70.21755302 C-23.94423127 71.57783574 -23.94266356 72.93811837 -23.94100952 74.29840088 C-23.94287841 75.749808 -23.94517943 77.20121461 -23.94787484 78.65262043 C-23.95398948 82.63697917 -23.95385965 86.62131692 -23.95268047 90.60567927 C-23.95247638 94.90433879 -23.95799598 99.20299157 -23.96273804 103.50164795 C-23.97104311 111.92171439 -23.97379281 120.34177383 -23.97435042 128.76184402 C-23.97482561 135.6056461 -23.9768805 142.44944587 -23.98005104 149.29324722 C-23.98885691 168.6960842 -23.99347047 188.09891564 -23.99272057 207.50175463 C-23.99268061 208.54768286 -23.99264065 209.5936111 -23.99259949 210.67123413 C-23.99255861 211.71843904 -23.99251773 212.76564395 -23.99247561 213.84458233 C-23.99206907 230.81990436 -24.00164079 247.79520422 -24.01573785 264.77051984 C-24.03009795 282.20006127 -24.03700825 299.62959188 -24.03614408 317.05913937 C-24.035812 326.84477304 -24.03856384 336.63038346 -24.04932213 346.41601181 C-24.05842226 354.7467716 -24.06060635 363.0774976 -24.0538127 371.40826021 C-24.05054516 375.65832589 -24.05049932 379.9083267 -24.05916595 384.15838623 C-24.06702137 388.05066139 -24.06560934 391.94282015 -24.05688182 395.83509244 C-24.05534473 397.24150694 -24.05717087 398.64793008 -24.0627419 400.05433439 C-24.20908438 414.11141512 -24.20908438 414.11141512 -17.80729675 426.26742554 C-11.21095449 431.48248245 -5.3059616 432.39110088 3.030653 432.39605999 C3.69702178 432.39781303 4.36339056 432.39956606 5.04995233 432.40137222 C7.28073359 432.40602061 9.51144933 432.40356973 11.74223328 432.40113831 C13.35863235 432.40300686 14.97503097 432.40530774 16.59142888 432.40800363 C21.03184996 432.41412248 25.47225223 432.41398793 29.91267657 432.41280925 C34.70213788 432.41260527 39.49159314 432.41812375 44.28105164 432.42286682 C53.66365668 432.43117421 63.04625545 432.43392169 72.42886387 432.4344792 C80.05451189 432.43495428 87.68015784 432.43700863 95.30580521 432.44017982 C116.9221432 432.44898634 138.53847622 432.45359916 160.15481602 432.45284935 C161.90292811 432.45278942 161.90292811 432.45278942 163.68635559 432.45272827 C164.85318509 432.45268739 166.02001459 432.45264651 167.22220255 432.45260439 C186.13748154 432.45219783 205.05274064 432.46176981 223.96801387 432.47586664 C243.38637696 432.49022432 262.80473034 432.49713717 282.22309887 432.49627286 C293.12655867 432.4959407 304.02999759 432.4986962 314.93345261 432.50945091 C324.21575419 432.51854788 333.49802546 432.52073775 342.78032957 432.51394149 C347.51645677 432.51067233 352.25252577 432.51063389 356.98864746 432.51929474 C361.32502007 432.52714306 365.66128814 432.52574538 369.99765815 432.51701061 C371.56557893 432.51547195 373.13350744 432.51730553 374.7014191 432.52287068 C389.41205197 432.80264058 389.41205197 432.80264058 402.19270325 426.26742554 C408.36800421 418.45650431 408.34080552 410.89446118 408.32641602 401.27355957 C408.32868157 400.16335131 408.33094713 399.05314304 408.33328134 397.9092921 C408.3396135 394.18767627 408.33879247 390.46609694 408.33796692 386.74447632 C408.34095888 384.07680119 408.34433318 381.40912892 408.34814453 378.74145508 C408.35644293 372.24646575 408.359199 365.7514855 408.35975691 359.25649132 C408.36023241 353.97638103 408.36228888 348.69627374 408.36545753 343.4161644 C408.37426157 328.44032935 408.37887725 313.46450146 408.37812706 298.48866381 C408.3780871 297.68169522 408.37804715 296.87472663 408.37800598 296.04330444 C408.3779651 295.23534872 408.37792422 294.42739299 408.3778821 293.59495376 C408.37747561 280.49954478 408.38704662 267.40416454 408.40114435 254.30876388 C408.41551142 240.85686563 408.42241436 227.4049814 408.42155057 213.95307529 C408.42121874 206.40309298 408.42395997 198.85314083 408.43472862 191.30316544 C408.44383793 184.87548829 408.4460053 178.44785497 408.4392192 172.02017416 C408.43595628 168.7422247 408.43697802 165.46437666 408.44457245 162.18643188 C408.45227997 158.62929901 408.44765556 155.07238685 408.43994141 151.51525879 C408.44765675 149.96884506 408.44765675 149.96884506 408.45552796 148.39119065 C408.41599521 140.14119402 407.72411124 132.8177771 402.19270325 126.26742554 C394.1924642 119.94245022 386.38432478 120.12117013 376.5375824 120.14717102 C374.76579795 120.14588938 374.76579795 120.14588938 372.95821989 120.14458185 C369.68810792 120.14322123 366.41803574 120.1463401 363.14792848 120.15135992 C359.61834863 120.15568319 356.08877059 120.15421666 352.55918884 120.15345764 C346.44675381 120.1529336 340.33432947 120.15606793 334.22189713 120.16169548 C325.38437462 120.16982665 316.54685728 120.17242736 307.70933144 120.17368347 C293.37061521 120.17587144 279.03190467 120.18252464 264.69319153 120.19198608 C250.76545744 120.20116678 236.8377249 120.2082444 222.9099884 120.2124939 C222.05131002 120.21275662 221.19263163 120.21301934 220.30793269 120.21329003 C216.00014398 120.21459508 211.69235527 120.21585878 207.38456655 120.21710193 C171.65394139 120.22746662 135.92332284 120.24507802 100.19270325 120.26742554 C100.19714447 119.53350586 100.20158569 118.79958618 100.2061615 118.04342651 C100.24636838 111.09991981 100.27675353 104.15643069 100.29632759 97.21283722 C100.30672938 93.64374289 100.320822 90.0747454 100.34358215 86.50570679 C100.36544007 83.05624958 100.37729893 79.60688506 100.38245773 76.15736389 C100.38790801 74.21212708 100.40349996 72.26692713 100.41929626 70.32174683 C100.420425 61.35057337 100.24166552 53.43067034 94.19270325 46.26742554 C87.18716042 40.72885535 80.71253848 40.1168629 71.92756653 40.12216187 C71.12024078 40.11880325 70.31291504 40.11544464 69.48112488 40.11198425 C66.82507264 40.10252291 64.16908376 40.10053362 61.51301575 40.09945679 C59.65745519 40.09624103 57.80189488 40.09287672 55.94633484 40.08937073 C52.06116651 40.08339163 48.17602038 40.08152959 44.29084778 40.0821228 C39.32570661 40.08222439 34.36070854 40.06856985 29.39560127 40.05135059 C25.56418714 40.04020335 21.73280732 40.03820443 17.90137863 40.03873253 C16.07145062 40.03755661 14.2415216 40.03315675 12.41160965 40.02540016 C9.8465156 40.01554448 7.28172858 40.01850011 4.71662903 40.02450562 C3.96935547 40.01888611 3.22208191 40.0132666 2.4521637 40.00747681 C-5.0739011 40.05199424 -11.89520644 41.27499371 -17.80729675 46.26742554 Z M137.19270325 40.26742554 C137.85270325 43.23742554 138.51270325 46.20742554 139.19270325 49.26742554 C139.52270325 59.49742554 139.85270325 69.72742554 140.19270325 80.26742554 C170.22270325 80.26742554 200.25270325 80.26742554 231.19270325 80.26742554 C232.31424511 62.0195128 232.31424511 62.0195128 225.19270325 46.26742554 C218.38476122 40.88507821 212.31322883 40.13923351 203.71858215 40.15390015 C202.63462158 40.15368111 202.63462158 40.15368111 201.52876282 40.15345764 C199.15889908 40.15414993 196.78911562 40.16191008 194.41926575 40.16976929 C192.76874332 40.1716359 191.11822033 40.17305865 189.46769714 40.17405701 C185.13749138 40.17786304 180.80731951 40.18767688 176.47712708 40.19876099 C172.05289671 40.20901636 167.62866084 40.21356345 163.204422 40.21859741 C154.53383358 40.22930095 145.86327264 40.24635426 137.19270325 40.26742554 Z M268.19270325 40.26742554 C268.85270325 43.23742554 269.51270325 46.20742554 270.19270325 49.26742554 C270.52270325 59.49742554 270.85270325 69.72742554 271.19270325 80.26742554 C300.89270325 80.26742554 330.59270325 80.26742554 361.19270325 80.26742554 C362.31424511 62.0195128 362.31424511 62.0195128 355.19270325 46.26742554 C348.41479063 40.90881941 342.36855548 40.13909361 333.81037903 40.15390015 C333.09749222 40.15375412 332.38460541 40.15360809 331.65011597 40.15345764 C329.3127174 40.15414982 326.97540026 40.16190941 324.63801575 40.16976929 C323.00991357 40.17163594 321.38181083 40.17305868 319.75370789 40.17405701 C315.48268566 40.17786272 311.2116978 40.18767628 306.94068909 40.19876099 C302.57678187 40.20901706 298.21286906 40.2135636 293.84895325 40.21859741 C285.2968542 40.22930039 276.74478301 40.2463533 268.19270325 40.26742554 Z " fill="currentColor" transform="translate(63.80729675292969,19.732574462890625)"/>
</svg>
