<?xml version="1.0" encoding="UTF-8"?>
<svg version="1.1" xmlns="http://www.w3.org/2000/svg" width="512" height="512"  viewBox="0 0 512.000000 512.000000" fill="currentColor">
<path d="M0 0 C0.77215725 -0.00495952 1.5443145 -0.00991903 2.33987045 -0.01502883 C4.91866088 -0.02794789 7.49693038 -0.01961211 10.07573318 -0.01129913 C11.9467484 -0.01618979 13.8177606 -0.02238041 15.68876767 -0.02975702 C20.82388548 -0.0461576 25.95884977 -0.04383833 31.0939846 -0.03838205 C36.63470341 -0.035712 42.17538128 -0.05024327 47.71608353 -0.06247711 C58.56897596 -0.08353477 69.42181497 -0.08807175 80.27472541 -0.08628923 C89.09690275 -0.08498169 97.91906343 -0.08878532 106.74123764 -0.09621429 C109.28231724 -0.09831349 111.82339684 -0.10041109 114.36447644 -0.10250711 C115.62924523 -0.10355064 116.89401402 -0.10459417 118.19710913 -0.10566932 C135.32370806 -0.11920315 152.45030079 -0.12679562 169.5769043 -0.12234497 C170.24649211 -0.12217302 170.91607991 -0.12200106 171.60595826 -0.1218239 C174.99956948 -0.12093503 178.39318069 -0.11999022 181.78679189 -0.11902589 C182.46075341 -0.11883485 183.13471493 -0.11864382 183.82909953 -0.118447 C185.19201362 -0.1180599 186.55492771 -0.11766958 187.9178418 -0.11727602 C209.11970713 -0.11130743 230.32146327 -0.12673889 251.52330399 -0.15888214 C275.35361031 -0.19497981 299.18384794 -0.21424514 323.01418996 -0.20934343 C335.6280577 -0.20709904 348.24181721 -0.21233749 360.8556633 -0.23723602 C371.5951708 -0.25825429 382.33451073 -0.26183585 393.07402512 -0.24293643 C398.55200038 -0.23378171 404.02966326 -0.2326278 409.50761414 -0.25329208 C414.52646629 -0.27201487 419.54475051 -0.2674836 424.56358114 -0.24474627 C426.37511907 -0.24056383 428.18670065 -0.24474847 429.9981924 -0.25834221 C442.34165907 -0.34463048 453.97739592 0.57823472 463.43541336 9.5979538 C470.29481205 17.63576201 474.62733969 27.50570831 474.17760086 38.1682663 C473.06746626 49.40837912 468.769126 57.53076372 460.18150711 64.9104538 C449.97279997 73.17849581 439.28549912 72.81623168 426.79091263 72.7707901 C424.92657172 72.77496536 423.06223336 72.78044393 421.1978997 72.78710991 C416.08590844 72.801558 410.97407849 72.79732174 405.86207843 72.7899431 C400.34457687 72.78521218 394.82711026 72.79772063 389.3096199 72.80796051 C378.50465442 72.82515535 367.69974708 72.82598708 356.89477147 72.82074761 C348.11217909 72.81670592 339.32960389 72.81814945 330.54701233 72.82349586 C329.29694441 72.82424429 328.04687649 72.82499271 326.75892773 72.82576381 C324.21940057 72.82729529 321.67987342 72.82883364 319.14034627 72.83037878 C302.08994823 72.84020724 285.03955599 72.84437161 267.98915672 72.83675289 C267.32267543 72.83645572 266.65619414 72.83615854 265.96951645 72.83585237 C260.55751147 72.83340353 255.14550656 72.83079189 249.73350166 72.82816823 C228.62548238 72.81806675 207.51754265 72.8264204 186.40953445 72.84966278 C162.6832444 72.87574605 138.95699572 72.88853093 115.23068702 72.88147503 C102.67221664 72.87798159 90.11381159 72.88022316 77.55535126 72.89772606 C66.8645302 72.91244124 56.17382046 72.91309235 45.4830016 72.89565515 C40.029489 72.8871372 34.57617532 72.8850152 29.12267303 72.9003067 C24.12741793 72.91413979 19.13253245 72.90940814 14.13729881 72.89006747 C12.33321286 72.88630295 10.5290974 72.88924243 8.72503771 72.89967912 C-3.4966225 72.96533798 -14.38632778 72.16089541 -24.25989914 64.14873505 C-31.88058665 56.59489567 -35.70772344 47.16276589 -36.22864914 36.57061005 C-36.03390189 26.32690456 -32.23688106 16.77872341 -25.04114914 9.38311005 C-17.33288352 3.40308652 -9.84888466 -0.09026946 0 0 Z " transform="translate(37.0411491394043,219.61688995361328)" fill="currentColor"/>
<path d="M0 0 C6.72109648 5.2870963 10.54333911 12.17930156 11.91796875 20.59375 C12.03123237 22.95376013 12.09391658 25.31641119 12.12329102 27.67895508 C12.13319061 28.37218872 12.14309021 29.06542236 12.15328979 29.77966309 C12.1847275 32.05750177 12.20959159 34.33536127 12.234375 36.61328125 C12.25495987 38.19797794 12.27595674 39.78266933 12.29734802 41.36735535 C12.35241046 45.52818495 12.4018892 49.68906279 12.45019531 53.84997559 C12.50052627 58.09989694 12.55615168 62.34974866 12.61132812 66.59960938 C12.71871596 74.93093062 12.82020354 83.26231031 12.91796875 91.59375 C13.34677338 91.15606293 13.775578 90.71837585 14.21737671 90.26742554 C18.71565946 85.6800826 23.22840943 81.10733254 27.74951172 76.54248047 C29.43093706 74.841042 31.10874243 73.1360177 32.78271484 71.42724609 C35.20098113 68.96000955 37.63232952 66.50631579 40.06640625 64.0546875 C40.80224945 63.29819916 41.53809265 62.54171082 42.29623413 61.76229858 C50.82434001 53.23061413 58.78862709 48.26897422 71.01171875 48.20874023 C79.15757933 48.38952049 84.81226608 51.45665817 90.79296875 56.78125 C97.04617037 63.65533689 98.62862005 71.36673686 98.296875 80.484375 C96.79307294 92.82485379 86.70640555 100.95175568 78.38745117 109.31713867 C77.56368484 110.14908249 76.73991852 110.98102631 75.89118958 111.83818054 C73.18829321 114.56571075 70.48142943 117.28924794 67.7734375 120.01171875 C66.84353815 120.94694178 65.9136388 121.8821648 64.95556068 122.84572792 C61.04660721 126.77625034 57.13623772 130.70535492 53.22214794 134.63076305 C47.64531076 140.22384586 42.07715526 145.82526323 36.52070731 151.43860453 C32.59296072 155.40517226 28.65556193 159.36199531 24.7109955 163.31183606 C22.3637602 165.66270417 20.0221135 168.01870505 17.68816185 170.38277245 C15.08267198 173.01997171 12.46174921 175.64086387 9.83666992 178.25854492 C9.07945648 179.0321637 8.32224304 179.80578247 7.54208374 180.60284424 C1.7690192 186.30987471 -4.87196107 191.41512882 -13.20703125 192.2578125 C-14.48578125 192.24492188 -15.76453125 192.23203125 -17.08203125 192.21875 C-18.36078125 192.23164062 -19.63953125 192.24453125 -20.95703125 192.2578125 C-30.83471997 191.24977211 -37.94754547 184.45441093 -44.59912109 177.70776367 C-45.49148468 176.82255539 -46.38384827 175.93734711 -47.30325317 175.02531433 C-49.72557988 172.61690695 -52.13628153 170.19796081 -54.54172087 167.77275634 C-57.07308729 165.22488276 -59.61716618 162.68975372 -62.15933228 160.15266418 C-66.42284808 155.89365471 -70.6761168 151.62461867 -74.92333984 147.34936523 C-79.82120642 142.41942259 -84.73494098 137.50574476 -89.65747678 132.60044307 C-94.41133964 127.862486 -99.15377828 123.11324904 -103.89116287 118.35881996 C-105.89936375 116.34377908 -107.91141142 114.33270173 -109.92673874 112.32478905 C-112.74329028 109.51737565 -115.54302243 106.69354502 -118.34130859 103.86791992 C-119.58657318 102.63244415 -119.58657318 102.63244415 -120.85699463 101.37200928 C-129.22182233 92.86807422 -132.50802812 85.25874515 -132.43359375 73.25 C-131.91749712 67.88259501 -130.00739661 64.0498298 -127.08203125 59.59375 C-126.50453125 58.665625 -125.92703125 57.7375 -125.33203125 56.78125 C-118.66325987 50.29772227 -111.07579725 48.23819341 -101.98168945 48.21313477 C-84.84390427 48.6212261 -72.18129874 66.35864842 -60.95703125 77.65625 C-59.60570439 79.0126046 -58.25414353 80.3687261 -56.90234375 81.72460938 C-53.62620598 85.01164555 -50.35323814 88.30180696 -47.08203125 91.59375 C-47.07838562 90.71615524 -47.07473999 89.83856049 -47.07098389 88.93437195 C-47.03295843 80.62295492 -46.97594197 72.3119245 -46.89812851 64.00078106 C-46.85878864 59.72894039 -46.82653461 55.4573017 -46.81103516 51.18530273 C-46.79577888 47.05476831 -46.76117705 42.92478966 -46.71372223 38.79450417 C-46.69900017 37.22668123 -46.69099556 35.6587789 -46.6901474 34.09088707 C-46.67705262 22.01082015 -45.67776425 11.39062276 -36.94921875 2.25 C-26.94630382 -6.62287852 -11.03918867 -7.45611242 0 0 Z " fill="currentColor"  transform="translate(272.08203125,320.40625)"/>
<path d="M0 0 C1.27875 -0.01289063 2.5575 -0.02578125 3.875 -0.0390625 C13.75268872 0.96897789 20.86551422 7.76433907 27.51708984 14.51098633 C28.40945343 15.39619461 29.30181702 16.28140289 30.22122192 17.19343567 C32.64354863 19.60184305 35.05425028 22.02078919 37.45968962 24.44599366 C39.99105604 26.99386724 42.53513493 29.52899628 45.07730103 32.06608582 C49.34081683 36.32509529 53.59408555 40.59413133 57.84130859 44.86938477 C62.73917517 49.79932741 67.65290973 54.71300524 72.57544553 59.61830693 C77.32930839 64.356264 82.07174703 69.10550096 86.80913162 73.85993004 C88.8173325 75.87497092 90.82938017 77.88604827 92.84470749 79.89396095 C95.66125903 82.70137435 98.46099118 85.52520498 101.25927734 88.35083008 C102.08945374 89.17448059 102.91963013 89.9981311 103.77496338 90.84674072 C110.65160062 97.83773667 115.08424991 104.60845634 115.3125 114.6875 C115.20670078 123.34380002 113.22461585 129.59225767 107.3125 136 C99.72101466 142.86848673 92.85773293 144.40068518 82.640625 144.0546875 C66.51192386 142.15108543 53.64371437 124.40913163 42.75 113.4375 C41.50414445 112.18661167 40.25805187 110.93595938 39.01171875 109.68554688 C36.00508527 106.6680664 33.00163471 103.6474527 30 100.625 C29.99413376 101.49228729 29.98826752 102.35957458 29.98222351 103.25314331 C29.92410766 111.46181433 29.85192394 119.67021871 29.76428509 127.87862968 C29.71972532 132.09777763 29.68043833 136.31683221 29.65356445 140.53613281 C29.62738676 144.61471955 29.58688451 148.69294419 29.53681374 152.77130508 C29.52024214 154.32042023 29.50866784 155.86959787 29.50238609 157.41878891 C29.44801627 169.6045982 28.81891443 180.37338182 20 189.625 C12.9029866 195.90681591 5.81929102 197.09485122 -3.5234375 196.9375 C-11.2223222 196.24546542 -17.98026676 192.51881615 -23 186.625 C-27.33549413 179.52647075 -29.10526345 173.76031447 -29.20532227 165.46972656 C-29.21522186 164.75713181 -29.22512146 164.04453705 -29.23532104 163.31034851 C-29.26683139 160.96214078 -29.29165191 158.61391285 -29.31640625 156.265625 C-29.33698483 154.63465864 -29.35798154 153.00369751 -29.37937927 151.3727417 C-29.43450665 147.08530923 -29.48395699 142.79782937 -29.53222656 138.51031494 C-29.58250983 134.13313594 -29.63816024 129.75602553 -29.69335938 125.37890625 C-29.80082675 116.79432888 -29.90229696 108.20969402 -30 99.625 C-30.48113754 100.1172406 -30.96227509 100.6094812 -31.45799255 101.11663818 C-36.01911192 105.77840334 -40.59252745 110.42771661 -45.17974758 115.06380844 C-47.53710058 117.44713315 -49.88808823 119.83602307 -52.23120117 122.23339844 C-54.93259549 124.99574803 -57.65008113 127.74136456 -60.37109375 130.484375 C-61.19959335 131.33868103 -62.02809296 132.19298706 -62.88169861 133.07318115 C-68.87586511 139.07017678 -74.32174821 142.92925999 -82.80859375 144.19140625 C-92.67623266 144.18078446 -99.16927087 142.59693284 -106.8125 136.3125 C-114.12905954 127.323584 -115.95841733 120.26292473 -115 108.625 C-112.32365855 98.01636942 -102.90684395 90.38048124 -95.46948242 82.90161133 C-94.64571609 82.06966751 -93.82194977 81.23772369 -92.97322083 80.38056946 C-90.27032446 77.65303925 -87.56346068 74.92950206 -84.85546875 72.20703125 C-83.9255694 71.27180822 -82.99567005 70.3365852 -82.03759193 69.37302208 C-78.12863846 65.44249966 -74.21826897 61.51339508 -70.30417919 57.58798695 C-64.72734201 51.99490414 -59.15918651 46.39348677 -53.60273856 40.78014547 C-49.67499197 36.81357774 -45.73759318 32.85675469 -41.79302675 28.90691394 C-39.44579145 26.55604583 -37.10414475 24.20004495 -34.7701931 21.83597755 C-32.16470323 19.19877829 -29.54378046 16.57788613 -26.91870117 13.96020508 C-25.78288101 12.79977692 -25.78288101 12.79977692 -24.62411499 11.61590576 C-17.53287342 4.60577597 -10.15728123 -0.10239195 0 0 Z "  transform="translate(255,-0.625)"/>
</svg>
