<?xml version="1.0" encoding="UTF-8"?>
<svg version="1.1" xmlns="http://www.w3.org/2000/svg" fill="currentColor" viewBox="0 0 512.000000 512.000000"
 preserveAspectRatio="xMidYMid meet" stroke="none">
<path d="M0 0 C29.04 0 58.08 0 88 0 C89.95115924 5.85347772 91.78428325 11.61569974 93.35888672 17.56347656 C93.57674583 18.37728539 93.79460495 19.19109421 94.01906586 20.0295639 C94.74193097 22.73254887 95.46082018 25.43657431 96.1796875 28.140625 C96.70042118 30.0912281 97.22139324 32.04176757 97.74258423 33.99224854 C99.15924608 39.29681551 100.57238938 44.6023142 101.9848938 49.9079895 C103.49118538 55.56354193 105.00072559 61.21822732 106.50976562 66.87304688 C116.10043471 102.8207706 125.66071139 138.77661414 135.22070217 174.73250675 C143.31968356 205.1926814 151.44007041 235.64706035 159.58309937 266.0954895 C161.00815295 271.42409699 162.43265515 276.75285166 163.85694218 282.08166409 C168.56421586 299.69311937 173.27175367 317.30447335 178.00733948 334.90834045 C179.37561326 339.9948822 180.74093555 345.0822143 182.10526943 350.16981411 C183.29410007 354.60162921 184.4897744 359.03156259 185.68676758 363.46118164 C186.27455514 365.65242503 186.86206035 367.84374419 187.44921875 370.03515625 C187.71334564 371.00578003 187.97747253 371.97640381 188.24960327 372.97644043 C188.48394073 373.8557019 188.7182782 374.73496338 188.9597168 375.64086914 C189.16251755 376.39324356 189.3653183 377.14561798 189.57426453 377.92079163 C190 380 190 380 190 384 C167.56 384 145.12 384 122 384 C114.68497069 358.57514577 107.56658871 333.10265748 100.56445312 307.59008789 C99.13287728 302.37443015 97.69724365 297.15989812 96.26066399 291.94561672 C95.14370423 287.88939275 94.02908254 283.83252918 92.91516495 279.77546883 C92.38566389 277.84825938 91.85536489 275.92126899 91.32424545 273.99450493 C90.59247528 271.33871258 89.86392141 268.68205897 89.13623047 266.02514648 C88.80914345 264.84203636 88.80914345 264.84203636 88.47544861 263.63502502 C87 258.22844735 87 258.22844735 87 256 C44.925 256.495 44.925 256.495 2 257 C-0.22621094 265.91644531 -2.45242187 274.83289063 -4.74609375 284.01953125 C-6.15416741 289.65693342 -7.56230044 295.29432066 -8.97070312 300.93164062 C-11.20780247 309.88597697 -13.44465426 318.84037465 -15.67993164 327.79516602 C-17.30770385 334.31621351 -18.9362996 340.83705467 -20.56588989 347.35764807 C-21.42893149 350.81111955 -22.29155676 354.26469383 -23.15319633 357.7185154 C-24.11444172 361.5715342 -25.07752545 365.42409216 -26.04077148 369.27661133 C-26.3270491 370.42531708 -26.61332672 371.57402283 -26.90827942 372.75753784 C-27.17049286 373.80501694 -27.4327063 374.85249603 -27.7028656 375.93171692 C-27.93054847 376.84337018 -28.15823133 377.75502344 -28.39281368 378.69430256 C-28.86340566 380.48130383 -29.4156345 382.24690351 -30 384 C-52.44 384 -74.88 384 -98 384 C-96.87499682 374.99997458 -96.87499682 374.99997458 -95.99603271 371.59681702 C-95.79787649 370.8195929 -95.59972027 370.04236877 -95.39555931 369.24159241 C-95.17962435 368.41558029 -94.96368938 367.58956818 -94.74121094 366.73852539 C-94.39586524 365.39303116 -94.39586524 365.39303116 -94.04354286 364.02035522 C-93.27854868 361.04488155 -92.5064907 358.07128917 -91.734375 355.09765625 C-91.18794362 352.97841561 -90.64194306 350.85906384 -90.09634399 348.73960876 C-88.62633481 343.03438097 -87.15015092 337.3307674 -85.6727829 331.62744141 C-84.12156683 325.63470532 -82.57605135 319.64049915 -81.02978516 313.64648438 C-77.36076282 299.42902749 -73.68155155 285.21421683 -70 271 C-69.49319483 269.0428696 -68.98639909 267.08573675 -68.47961426 265.12860107 C-64.60816074 250.17842351 -60.7329027 235.22923482 -56.85205078 220.28149414 C-50.07998081 194.19530588 -43.34719887 168.09908056 -36.625 142 C-36.3654528 140.99230686 -36.10590561 139.98461372 -35.83849335 138.94638443 C-35.31638892 136.9193087 -34.79428466 134.89223294 -34.27218056 132.86515713 C-32.96538734 127.7915947 -31.65850983 122.71805398 -30.3515625 117.64453125 C-29.96283274 116.13547179 -29.96283274 116.13547179 -29.56624985 114.59592628 C-22.6355544 87.69247422 -15.68220509 60.79487604 -8.72722816 33.89769268 C-7.78780525 30.26458751 -6.8484738 26.63145869 -5.90913773 22.99833107 C-5.26682531 20.514288 -4.62431411 18.03029642 -3.98178101 15.54631042 C-3.59722215 14.05911432 -3.21266974 12.57191655 -2.828125 11.0847168 C-2.56973815 10.08618935 -2.56973815 10.08618935 -2.30613136 9.06748962 C-1.52549882 6.04775629 -0.75648142 3.02592567 0 0 Z M42 93 C38.86664518 105.46399557 35.73707329 117.92893417 32.61236572 130.39510059 C31.16141613 136.18322424 29.70915141 141.97101135 28.25390625 147.75805664 C26.85031328 153.33990034 25.45014215 158.92259202 24.05236816 164.50589561 C23.5177257 166.63891024 22.98183811 168.77161316 22.44470215 170.90400124 C21.69423918 173.88416688 20.94815817 176.86539686 20.203125 179.84692383 C19.97870728 180.7338089 19.75428955 181.62069397 19.52307129 182.53445435 C19.32113159 183.34633713 19.11919189 184.15821991 18.91113281 184.9947052 C18.64565643 186.05246265 18.64565643 186.05246265 18.37481689 187.13158894 C17.90165568 189.17262704 17.90165568 189.17262704 18 192 C35.49 192 52.98 192 71 192 C67.84724374 179.30245391 67.84724374 179.30245391 64.46630859 166.67211914 C64.24460495 165.87159622 64.02290131 165.0710733 63.79447937 164.24629211 C63.08156262 161.67523057 62.36539029 159.10509504 61.6484375 156.53515625 C61.40085316 155.64640745 61.15326881 154.75765865 60.89818192 153.84197807 C59.59511509 149.16518766 58.28940025 144.48914631 56.98144531 139.8137207 C55.63174757 134.98694007 54.29163922 130.15754857 52.95349693 125.32755375 C51.91905546 121.6004677 50.877607 117.87536668 49.83418655 114.15078545 C49.33632968 112.36885865 48.84115753 110.58617953 48.34870529 108.80275154 C47.6648644 106.32867276 46.97117801 103.85756614 46.27490234 101.38696289 C46.07331009 100.64893433 45.87171783 99.91090576 45.66401672 99.1505127 C45.1693779 97.41542625 44.5925212 95.70414528 44 94 C43.34 93.67 42.68 93.34 42 93 Z "  transform="translate(98,64)"/>
<path d="M0 0 C30.03679979 -0.93864999 59.07678836 9.6001736 81.01171875 30 C81.77097656 30.71414062 82.53023437 31.42828125 83.3125 32.1640625 C83.91707031 32.69257813 84.52164063 33.22109375 85.14453125 33.765625 C103.67043013 50.68623522 112.72944904 79.21288016 114.48109221 103.50182581 C114.73005928 109.15526429 114.69002678 114.80790985 114.65307617 120.46533203 C114.65222729 122.32018012 114.65271012 124.1750292 114.65440369 126.02987671 C114.65525488 131.00395 114.6377732 135.97780064 114.61668181 140.95182276 C114.59776683 146.17277516 114.59615301 151.39373419 114.59260559 156.61471558 C114.58332825 166.47396997 114.55877362 176.33312306 114.52855712 186.1923331 C114.49487789 197.42831444 114.47849329 208.66430094 114.46347082 219.90032029 C114.4322196 242.98830324 114.37726227 266.07614755 114.3125 289.1640625 C93.1925 289.1640625 72.0725 289.1640625 50.3125 289.1640625 C49.9825 279.5940625 49.6525 270.0240625 49.3125 260.1640625 C46.3425 263.4640625 43.3725 266.7640625 40.3125 270.1640625 C24.61597356 284.208323 6.21463956 289.01522975 -14.47412109 288.30029297 C-34.78588261 287.0501316 -54.05800287 277.10056377 -67.6875 262.1640625 C-79.61976724 247.72267364 -86.59235672 229.88105668 -87.6875 211.1640625 C-87.74035156 210.39578125 -87.79320312 209.6275 -87.84765625 208.8359375 C-88.76213482 182.91245804 -78.54738572 158.47715085 -61.10205078 139.65283203 C-45.31898213 123.04165622 -23.78340922 111.30498139 -0.56982422 109.98706055 C3.09959963 109.91948715 6.76747428 109.87133414 10.4375 109.8515625 C11.10157867 109.84794708 11.76565735 109.84433167 12.44985962 109.84060669 C25.09940067 109.81297804 37.2520061 111.14389787 49.3125 115.1640625 C48.01962194 100.13194294 45.31406437 85.75885578 33.28515625 75.421875 C25.79300132 69.97549836 16.52812672 66.8595815 7.3125 66.1640625 C6.35730469 66.08671875 6.35730469 66.08671875 5.3828125 66.0078125 C-9.89260486 65.33636558 -26.1989533 71.58905364 -38.63671875 80.16015625 C-40.6875 81.1640625 -40.6875 81.1640625 -42.63500977 80.9465332 C-45.20925596 79.96515351 -45.99725223 78.88846501 -47.578125 76.6484375 C-48.11493896 75.90198975 -48.65175293 75.15554199 -49.20483398 74.38647461 C-49.77661377 73.57057861 -50.34839355 72.75468262 -50.9375 71.9140625 C-52.18176101 70.1796733 -53.42792926 68.44665112 -54.67578125 66.71484375 C-55.32756348 65.80686035 -55.9793457 64.89887695 -56.65087891 63.96337891 C-60.69074732 58.41061804 -64.90173283 52.98684471 -69.09277344 47.54785156 C-73.45428893 41.86154532 -77.6239398 36.06692662 -81.6875 30.1640625 C-78.11183777 26.32578101 -74.40700946 23.45505569 -69.875 20.7890625 C-69.21975342 20.40258545 -68.56450684 20.0161084 -67.8894043 19.61791992 C-46.95885761 7.54633724 -24.00943028 1.46569196 0 0 Z M0.3125 155.1640625 C-0.77417969 155.58816406 -1.86085938 156.01226562 -2.98046875 156.44921875 C-14.95402687 161.78897945 -21.84075596 170.12963003 -26.6875 182.1640625 C-28.59634151 187.65921229 -29.27122103 193.38571399 -29.6875 199.1640625 C-29.76871094 200.24494141 -29.76871094 200.24494141 -29.8515625 201.34765625 C-30.17560574 209.61075881 -28.38973101 218.18479892 -23.125 224.734375 C-18.4050274 229.42869558 -12.23462265 231.67725065 -5.6875 232.1640625 C11.86397866 231.28536203 26.87181981 222.51093224 38.859375 210.078125 C42.46136218 205.79933131 45.03639033 201.25556915 47.3125 196.1640625 C47.67214844 195.39835937 48.03179687 194.63265625 48.40234375 193.84375 C51.28232287 185.36449817 50.42818197 176.00832509 50.375 167.1640625 C50.36997576 165.70703279 50.36541449 164.2500014 50.36132812 162.79296875 C50.35039388 159.2499648 50.33318 155.70702453 50.3125 152.1640625 C38.51327629 146.26445064 11.94950795 150.6030374 0.3125 155.1640625 Z "  transform="translate(397.6875,155.8359375)"/>
</svg>
