<svg version="1.0" xmlns="http://www.w3.org/2000/svg"
 width="512.000000pt" height="512.000000pt" viewBox="0 0 512.000000 512.000000"
 preserveAspectRatio="xMidYMid meet">

<g transform="translate(0.000000,512.000000) scale(0.100000,-0.100000)"
fill="currentColor" stroke="none">
<path d="M2335 5110 c-502 -51 -924 -217 -1335 -524 -122 -91 -375 -344 -466
-466 -310 -415 -479 -850 -524 -1350 -32 -361 25 -767 156 -1114 85 -224 242
-498 398 -696 77 -97 299 -319 396 -396 590 -467 1334 -653 2065 -519 791 146
1477 667 1829 1389 202 414 290 853 258 1291 -38 525 -205 966 -526 1395 -82
109 -317 350 -425 435 -374 294 -802 478 -1261 541 -132 18 -446 26 -565 14z
m520 -556 c206 -30 397 -90 591 -185 397 -193 730 -527 924 -924 140 -288 203
-562 203 -885 0 -471 -157 -915 -452 -1273 -69 -85 -222 -236 -304 -302 -270
-218 -608 -365 -968 -421 -143 -22 -439 -22 -579 1 -585 93 -1071 404 -1396
892 -480 721 -429 1703 125 2376 69 84 222 236 304 302 299 241 706 403 1090
435 126 10 330 3 462 -16z"/>
<path d="M2450 4214 c-46 -20 -77 -50 -103 -99 l-22 -40 0 -850 0 -850 25 -45
c14 -24 45 -58 68 -75 l44 -30 746 0 c738 0 747 0 787 21 62 32 98 91 103 168
3 49 0 71 -16 103 -27 51 -81 99 -129 112 -25 7 -246 11 -625 11 l-588 0 0
717 c0 702 0 718 -21 759 -45 95 -171 140 -269 98z"/>
</g>
</svg>
